<svg width="414" height="611" viewBox="0 0 414 611" fill="none" xmlns="http://www.w3.org/2000/svg">
<path fill-rule="evenodd" clip-rule="evenodd" d="M367.419 127.499C262.247 8.64901 131.583 -139.006 4.0007 269.97C-9.62426 317.952 8.87764 433.599 158.685 512.33C254.82 577.483 413.121 671.114 413.121 556.412C413.121 533.178 387.769 501.514 356.571 466.239C331.655 474.113 292.43 477.155 254.646 460.001C215.279 442.127 178.402 402.755 160.738 326.546C143.053 250.239 161.146 201.473 192.326 171.995C218.718 147.044 253.73 136.644 281.88 134.308C256.627 111.741 228.835 98.0823 200.214 100.746C168.121 103.732 132.78 127.471 97.2356 187.803L87.6395 182.15C123.97 120.483 161.899 93.125 199.182 89.6558C236.32 86.2001 270.616 106.676 299.227 135.422C328.445 164.779 356.791 208.121 374.093 243.396L402.718 166.541C391.319 154.507 379.539 141.194 367.419 127.499ZM356.902 234.375C340.316 203.731 316.893 169.445 292.954 144.924C265.292 145.223 227.281 154.275 199.977 180.088C172.3 206.255 154.582 250.653 171.588 324.031C188.618 397.507 223.593 433.67 259.25 449.859C291.685 464.585 325.449 463.135 348.374 457.026C345.636 453.964 342.868 450.878 340.082 447.772C285.101 386.486 223.032 317.299 247.187 263.268C276.921 196.758 325.979 206.877 356.902 234.375Z" fill="#E299AD"/>
</svg>
