<svg width="5785" height="756" viewBox="0 0 5785 756" fill="none" xmlns="http://www.w3.org/2000/svg">
<g clip-path="url(#clip0_77_6478)">
<rect width="5801.85" height="754.932" transform="translate(-5 0.640625)" fill="black"/>
<path id="leftEye" fill-rule="evenodd" clip-rule="evenodd" d="M382.145 550.985C319.619 487.344 154.667 359.614 -5.00085 357.752C-164.669 359.614 -329.62 487.344 -392.147 550.985H-392.156C-392.155 550.987 -392.153 550.988 -392.152 550.99C-392.153 550.991 -392.155 550.993 -392.156 550.994H-392.147C-329.62 614.635 -164.669 742.366 -5.00085 744.227C154.667 742.366 319.619 614.635 382.145 550.994H382.154C382.153 550.993 382.151 550.991 382.15 550.99C382.151 550.988 382.153 550.987 382.154 550.985H382.145Z" fill="#097441"/>
<circle cx="-4.99953" cy="551.343" r="127.416" fill="white"/>
<path fill-rule="evenodd" clip-rule="evenodd" d="M1131.63 703.771C1069.11 640.13 904.156 512.4 744.487 510.538C584.819 512.4 419.868 640.13 357.341 703.771H357.332C357.334 703.773 357.335 703.774 357.337 703.776C357.335 703.777 357.334 703.779 357.332 703.78H357.341C419.868 767.422 584.819 895.152 744.487 897.013C904.156 895.152 1069.11 767.422 1131.63 703.78H1131.64C1131.64 703.779 1131.64 703.777 1131.64 703.776C1131.64 703.774 1131.64 703.773 1131.64 703.771H1131.63Z" fill="white"/>
<circle cx="744.491" cy="704.129" r="127.416" fill="#FDB600"/>
<path class="whites" fill-rule="evenodd" clip-rule="evenodd" d="M2292.92 378.1C2175.83 258.927 1866.95 19.7438 1567.96 16.2578C1268.97 19.7438 960.088 258.927 843.002 378.1H842.984C842.987 378.103 842.99 378.106 842.993 378.109C842.99 378.111 842.987 378.114 842.984 378.117H843.002C960.088 497.29 1268.97 736.473 1567.96 739.959C1866.95 736.473 2175.83 497.29 2292.92 378.117H2292.93C2292.93 378.114 2292.93 378.111 2292.93 378.109C2292.93 378.106 2292.93 378.103 2292.93 378.1H2292.92Z" fill="#8000FF"/>
<circle class="pupil" cx="1567.96" cy="378.771" r="238.596" fill="#FDB600"/>
<path fill-rule="evenodd" clip-rule="evenodd" d="M4835.91 451.112C4746.07 359.67 4509.06 176.145 4279.65 173.471C4050.23 176.145 3813.23 359.67 3723.39 451.112H3723.38C3723.38 451.114 3723.38 451.116 3723.38 451.118C3723.38 451.121 3723.38 451.123 3723.38 451.125H3723.39C3813.23 542.567 4050.23 726.092 4279.65 728.766C4509.06 726.092 4746.07 542.567 4835.91 451.125H4835.92C4835.92 451.123 4835.92 451.121 4835.92 451.119C4835.92 451.116 4835.92 451.114 4835.92 451.112H4835.91Z" fill="#FC5812"/>
<circle  class="eye" cx="4279.65" cy="451.627" r="183.075" fill="white"/>
<path fill-rule="evenodd" clip-rule="evenodd" d="M904.945 217.426C841.784 120.897 675.143 -72.8559 513.839 -75.6797C352.536 -72.8559 185.895 120.897 122.734 217.426L122.731 217.426C122.731 217.427 122.732 217.428 122.732 217.429C122.732 217.43 122.731 217.43 122.731 217.431L122.734 217.431C185.895 313.96 352.536 507.713 513.839 510.537C675.143 507.713 841.784 313.96 904.945 217.431L904.948 217.431C904.948 217.43 904.947 217.43 904.947 217.429C904.947 217.428 904.948 217.427 904.948 217.426L904.945 217.426Z" fill="white"/>
<circle cx="513.842" cy="214.983" r="176.905" fill="#8000FF"/>
<path fill-rule="evenodd" clip-rule="evenodd" d="M3723.37 378.107C3643.51 256.064 3432.83 11.0975 3228.89 7.52734C3024.95 11.0975 2814.26 256.064 2734.4 378.107L2734.4 378.107C2734.4 378.108 2734.4 378.109 2734.4 378.11C2734.4 378.111 2734.4 378.112 2734.4 378.113L2734.4 378.113C2814.26 500.157 3024.95 745.123 3228.89 748.693C3432.83 745.123 3643.51 500.157 3723.37 378.114L3723.37 378.114C3723.37 378.112 3723.37 378.111 3723.37 378.11C3723.37 378.109 3723.37 378.108 3723.37 378.107L3723.37 378.107Z" fill="#097441"/>
<circle cx="3228.89" cy="375.021" r="223.664" fill="white"/>
<path fill-rule="evenodd" clip-rule="evenodd" d="M5086.01 79.9582C5040.15 -0.384989 4919.14 -161.65 4802.01 -164C4684.88 -161.65 4563.87 -0.384994 4518 79.9582L4518 79.9582C4518 79.9589 4518 79.9597 4518 79.9604C4518 79.9612 4518 79.962 4518 79.9627L4518 79.9627C4563.87 160.306 4684.88 321.571 4802.01 323.921C4919.14 321.571 5040.15 160.306 5086.01 79.9627L5086.02 79.9627C5086.02 79.962 5086.02 79.9612 5086.02 79.9604C5086.02 79.9597 5086.02 79.9589 5086.02 79.9582L5086.01 79.9582Z" fill="#8000FF"/>
<ellipse cx="4802.01" cy="77.9274" rx="128.462" ry="147.242" fill="white"/>
<path fill-rule="evenodd" clip-rule="evenodd" d="M6079.91 136.875C6004.91 33.3864 5807.01 -174.336 5615.46 -177.363C5423.9 -174.336 5226.01 33.3864 5151 136.875L5151 136.875C5151 136.876 5151 136.877 5151 136.878C5151 136.879 5151 136.88 5151 136.881L5151 136.881C5226.01 240.37 5423.9 448.092 5615.46 451.12C5807.01 448.092 6004.91 240.37 6079.91 136.881L6079.92 136.881C6079.92 136.88 6079.92 136.879 6079.92 136.878C6079.92 136.877 6079.92 136.876 6079.92 136.875L6079.91 136.875Z" fill="white"/>
<ellipse cx="5623.5" cy="130.5" rx="218.5" ry="193.5" fill="#8000FF"/>
<path fill-rule="evenodd" clip-rule="evenodd" d="M2895.91 744.222C2832.75 647.693 2666.11 453.94 2504.81 451.116C2343.5 453.94 2176.86 647.693 2113.7 744.222L2113.7 744.222C2113.7 744.223 2113.7 744.224 2113.7 744.225C2113.7 744.225 2113.7 744.226 2113.7 744.227L2113.7 744.227C2176.86 840.756 2343.5 1034.51 2504.81 1037.33C2666.11 1034.51 2832.75 840.756 2895.91 744.227L2895.92 744.227C2895.92 744.226 2895.92 744.225 2895.92 744.225C2895.92 744.224 2895.92 744.223 2895.92 744.222L2895.91 744.222Z" fill="white"/>
<circle cx="2504.81" cy="741.782" r="176.905" fill="#FC5812"/>
<path fill-rule="evenodd" clip-rule="evenodd" d="M2895.92 107.482C2832.76 10.9537 2666.12 -182.8 2504.82 -185.624C2343.51 -182.8 2176.87 10.9537 2113.71 107.482L2113.71 107.482C2113.71 107.483 2113.71 107.484 2113.71 107.485C2113.71 107.486 2113.71 107.487 2113.71 107.487L2113.71 107.487C2176.87 204.016 2343.51 397.77 2504.82 400.593C2666.12 397.77 2832.76 204.016 2895.92 107.487L2895.92 107.487C2895.92 107.487 2895.92 107.486 2895.92 107.485C2895.92 107.484 2895.92 107.483 2895.92 107.482L2895.92 107.482Z" fill="white"/>
<circle cx="2504.81" cy="105.038" r="176.905" fill="#097441"/>
<path fill-rule="evenodd" clip-rule="evenodd" d="M4566.17 -75.1018C4465.05 -166.543 4198.29 -350.068 3940.07 -352.743C3681.85 -350.068 3415.09 -166.543 3313.97 -75.1018H3313.96C3313.96 -75.0996 3313.96 -75.0974 3313.96 -75.0952C3313.96 -75.093 3313.96 -75.0909 3313.96 -75.0887H3313.97C3415.09 16.3528 3681.85 199.878 3940.07 202.553C4198.29 199.878 4465.05 16.3528 4566.17 -75.0887H4566.18C4566.18 -75.0909 4566.18 -75.093 4566.18 -75.0952C4566.18 -75.0974 4566.18 -75.0996 4566.18 -75.1018H4566.17Z" fill="white"/>
<ellipse cx="3940.07" cy="-74.5863" rx="206.06" ry="183.075" fill="#FC5812"/>
<path fill-rule="evenodd" clip-rule="evenodd" d="M5589.06 560.288C5525.5 482.466 5357.83 326.276 5195.53 324C5033.24 326.276 4865.57 482.466 4802.01 560.288H4802C4802 560.289 4802 560.291 4802 560.293C4802 560.295 4802 560.297 4802 560.299H4802.01C4865.57 638.12 5033.24 794.31 5195.53 796.586C5357.83 794.31 5525.5 638.12 5589.06 560.299H5589.07C5589.07 560.297 5589.07 560.295 5589.06 560.293C5589.07 560.291 5589.07 560.289 5589.07 560.288H5589.06Z" fill="white"/>
<ellipse cx="5195.54" cy="560.727" rx="129.516" ry="155.806" fill="#097441"/>
</g>
<defs>
<clipPath id="clip0_77_6478">
<rect width="5801.85" height="754.932" fill="white" transform="translate(-5 0.640625)"/>
</clipPath>
</defs>
</svg>
