<svg width="2892" height="3614" viewBox="0 0 2892 3614" fill="none" xmlns="http://www.w3.org/2000/svg">
<g clip-path="url(#clip0_77_6545)">
<rect width="2893" height="3614" transform="matrix(-1 0 0 1 2893 0)" fill="white"/>
<path fill-rule="evenodd" clip-rule="evenodd" d="M-5.35132 3619.58L1439.84 3619.58L1463.5 3619.58L2958.57 3619.58V3485.28C2919.9 3470.75 2862.3 3450.73 2793.85 3426.95C2507.63 3327.47 2031.78 3162.1 1957.74 3056.66C1866.01 2926.01 1863.92 2659.37 1874.35 2542.39L1463.5 2531.12V2530.47L1451.66 2530.8L1439.84 2530.47V2531.12L1028.99 2542.39C1039.41 2659.37 1037.33 2926.01 945.592 3056.66C870.932 3162.99 420.655 3320.59 147.59 3416.16C85.134 3438.02 31.9487 3456.63 -5.35132 3470.65V3619.58Z" fill="black"/>
<path d="M474.926 1365.07C474.926 1817.58 595.792 2213.79 776.453 2496.47C957.412 2779.61 1196.66 2946.6 1432.97 2946.6C1669.84 2946.6 1915.93 2793.11 2103.47 2517.36C2290.81 2241.91 2418.55 1845.86 2418.55 1365.07C2418.55 608.529 1910.83 208.925 1432.97 208.925C955.581 208.925 474.926 608.023 474.926 1365.07Z" fill="black" stroke="white" stroke-width="28.1561"/>
</g>
<defs>
<clipPath id="clip0_77_6545">
<rect width="2893" height="3614" fill="white" transform="matrix(-1 0 0 1 2893 0)"/>
</clipPath>
</defs>
</svg>
