<svg width="2894" height="3119" viewBox="0 0 2894 3119" fill="none" xmlns="http://www.w3.org/2000/svg">
<g clip-path="url(#clip0_1209_58)">
<rect width="2894" height="3119" fill="black"/>
<path d="M0.453125 370H638.067V635.365H756.878M2147.18 316.365V635.365H1852.72M1525.54 635.365V316.365H1852.72M1525.54 635.365H1852.72M1525.54 635.365H1226.99M756.878 635.365H1226.99M756.878 635.365H896.706V316.365M302.709 950.277L756.878 942.098V1248.83H616.127V1578.65V1878.6H803.45H1080.29V2089.44H851.098V2483.13M0.673736 1248.83H279.164V1578.65M851.098 2483.13H1228M851.098 2483.13H638.067M851.098 2483.13V2806.16M517.337 2183.17H10.2257M10.2258 2806.16H302.709V2483.13M596 2806.16V3118.09M1228 3118.09V2483.13M1228 2483.13V2288.05H1525.54V2503.45M1831.86 2806.16H1525.54V2503.45M2379 2445.5V2183.17H2137.08V1918.35H1902.98V2496.2H1525.54V2503.45M2137.08 3118.48V2483.13M2427.49 2806.16H2643.38V1578.65H2427.49V1878.6V1248.83M2427.49 1248.83H2301.71M2427.49 1248.83V942.098M2427.49 316.365H2643.38V635.365H2427.49V942.098M2427.49 942.098H1852.72V635.365M1226.99 635.365V762.624H1525.54V950.277M1226.99 316.365V1.19897M2885.86 1248.83H2744.58V950.277M328.134 635.365H0.453125M0.927108 1866.24H328.134" stroke="white" stroke-width="22.3959"/>
<rect x="1532" y="2486" width="381" height="22" fill="#D9D9D9" class="path"/>
<rect x="1304.48" y="1143.8" width="495.753" height="267.967" transform="rotate(0.0274576 1304.48 1143.8)" fill="#097441"/>
<rect x="988.289" y="1355.68" width="333.403" height="361.018" transform="rotate(0.0274576 988.289 1355.68)" fill="#FDB600"/>
<rect x="1799.92" y="1798.48" width="746.21" height="347.823" transform="rotate(-89.9725 1799.92 1798.48)" fill="#8000FF"/>
<rect x="843.613" y="1365.03" width="448.841" height="478.068" transform="rotate(-89.9725 843.613 1365.03)" fill="#FC5812"/>
<rect x="1503.95" y="1411.87" width="296.153" height="353.772" transform="rotate(0.0274576 1503.95 1411.87)" fill="#FDB600"/>
<rect x="1321.67" y="1411.78" width="182.284" height="594.089" transform="rotate(0.0274576 1321.67 1411.78)" fill="#8000FF"/>
<rect x="755.406" y="1747.94" width="382.951" height="232.697" transform="rotate(-89.9725 755.406 1747.94)" fill="#097441"/>
<rect x="1187.02" y="2005.74" width="451.386" height="195.854" transform="rotate(0.0274576 1187.02 2005.74)" fill="#097441"/>
<path fill-rule="evenodd" clip-rule="evenodd" d="M1083.04 1550.34C1097.33 1526.2 1135.04 1477.73 1171.52 1477.04C1208 1477.77 1245.66 1526.27 1259.93 1550.43L1083.04 1550.34ZM1083.04 1550.34C1097.31 1574.5 1134.97 1623.01 1171.45 1623.73C1207.93 1623.04 1245.64 1574.58 1259.94 1550.43L1083.04 1550.34Z" fill="white"/>
<ellipse cx="1204.02" cy="1550.39" rx="32.5189" ry="38.2454" transform="rotate(0.0274576 1204.02 1550.39)" fill="black"/>
<path fill-rule="evenodd" clip-rule="evenodd" d="M1752 1580.8C1731.96 1546.96 1679.11 1479.03 1627.98 1478.06C1576.85 1479.07 1524.06 1547.06 1504.05 1580.92L1752 1580.8ZM1751.99 1580.8C1731.99 1614.66 1679.2 1682.64 1628.07 1683.66C1576.94 1682.69 1524.09 1614.76 1504.05 1580.92L1751.99 1580.8Z" fill="white"/>
<ellipse cx="45.5791" cy="53.6054" rx="45.5791" ry="53.6054" transform="matrix(-1 0.000479226 0.000479226 1 1627.98 1527.23)" fill="#8000FF"/>
<path fill-rule="evenodd" clip-rule="evenodd" d="M1444.34 1563.09C1434.13 1608.11 1422.96 1657.31 1470.12 1743.85C1487.72 1773.06 1510 1833.55 1452.23 1824.64C1452.1 1824.37 1451.95 1824.09 1451.8 1823.79C1450.01 1820.38 1447.51 1815.58 1463.21 1808.74C1484.52 1799.46 1439.67 1767.31 1428 1846.75C1425.88 1848.92 1420.17 1852.56 1412.73 1851.97C1405.29 1852.56 1399.58 1848.92 1397.46 1846.75C1385.8 1767.31 1340.95 1799.46 1362.25 1808.74C1377.96 1815.58 1375.45 1820.38 1373.67 1823.79C1373.52 1824.09 1373.37 1824.37 1373.24 1824.64C1315.46 1833.55 1337.74 1773.06 1355.34 1743.85C1402.5 1657.31 1391.34 1608.11 1381.12 1563.09C1377.48 1547.03 1373.95 1531.5 1373.24 1515L1409.4 1515H1452.23C1451.51 1531.5 1447.99 1547.03 1444.34 1563.09Z" fill="white"/>
<path d="M1365 1316C1400.44 1274.7 1628.78 1262.35 1738.52 1261.34C1645.78 1189.44 1451.18 1229.34 1365.47 1258.28L1365 1316Z" fill="#FDB600"/>
<path d="M935.211 1078L844 1143.98C978.289 1072.59 1106.65 1135.58 1167.46 1137.52C1216.11 1139.07 1229.99 1107.11 1230.86 1090.94C1200.32 1101.29 1021.04 1086.63 935.211 1078Z" fill="#097441"/>
<path fill-rule="evenodd" clip-rule="evenodd" d="M1830 1575.69C1828.9 1529.06 2021.78 1334.44 2126.76 1274.28C2231.75 1214.12 1908.13 1688.2 1880.2 1684.41L1830 1575.69ZM1869.98 1568.75C1871.49 1564.1 1873.3 1559.3 1875.39 1554.36C1877.39 1549.64 1879.64 1544.8 1882.13 1539.87C1887.08 1543.49 1892.76 1546.76 1898.38 1548.61C1904.68 1550.69 1911.3 1551.1 1916.67 1547.68C1922.07 1544.25 1925.59 1537.36 1926.62 1526.35C1927.66 1515.38 1926.28 1499.92 1921.52 1478.67C1924.36 1474.96 1927.3 1471.22 1930.32 1467.47C1934.16 1462.69 1938.15 1457.88 1942.27 1453.05C1943.85 1463.93 1945.56 1479.23 1946.23 1494.21C1946.62 1502.75 1946.66 1511.16 1946.15 1518.56C1945.64 1526 1944.58 1532.28 1942.84 1536.65L1946.64 1538.16C1948.61 1533.19 1949.71 1526.41 1950.23 1518.84C1950.75 1511.23 1950.71 1502.66 1950.32 1494.03C1949.56 1477.2 1947.51 1460 1945.79 1448.96C1961.67 1430.66 1979.48 1412.05 1998.88 1393.56C2003.67 1400.2 2012.68 1408.77 2024.33 1413.07C2036.13 1417.44 2050.55 1417.36 2065.7 1406.68L2063.34 1403.34C2049.37 1413.2 2036.37 1413.17 2025.74 1409.24C2015 1405.26 2006.57 1397.25 2002.14 1391.1L1999.34 1393.12C2039.99 1354.42 2087.58 1316.27 2138.93 1282.53L2136.68 1279.11C2051.98 1334.77 1977.41 1402.43 1927.14 1464.91C1902 1496.14 1882.88 1526.14 1871.62 1552.76C1860.39 1579.32 1856.84 1602.85 1863.37 1620.91L1867.22 1619.52C1862.78 1607.26 1863.3 1591.88 1868.34 1574.13C1872.97 1571.26 1879.15 1569.93 1883.89 1574.21C1886.37 1576.45 1888.73 1580.42 1890.28 1587.11C1891.83 1593.8 1892.55 1603.06 1891.87 1615.69L1895.95 1615.91C1896.64 1603.05 1895.93 1593.38 1894.26 1586.19C1892.6 1579.01 1889.94 1574.17 1886.63 1571.17C1881.32 1566.38 1874.99 1566.79 1869.98 1568.75ZM1918.28 1482.96C1904.37 1501.5 1892.83 1519.41 1884.03 1536.19C1888.88 1539.8 1894.37 1542.99 1899.66 1544.73C1905.45 1546.64 1910.6 1546.7 1914.48 1544.23C1918.34 1541.78 1921.57 1536.41 1922.55 1525.96C1923.47 1516.17 1922.38 1502.25 1918.28 1482.96ZM2124.92 1321.38C2043.64 1475.82 1939.29 1602.66 1897.22 1646.84L1894.26 1644.02C1936.11 1600.07 2040.22 1473.53 2121.3 1319.47L2124.92 1321.38ZM2007.88 1455.1C2007.86 1470.17 2002.36 1486.69 1997.33 1497.31L1993.63 1495.55C1998.52 1485.24 2003.78 1469.33 2003.79 1455.1C2003.8 1448 2002.5 1441.47 1999.36 1436.27C1996.26 1431.14 1991.26 1427.13 1983.5 1425.16L1984.51 1421.2C1993.24 1423.42 1999.17 1428.05 2002.86 1434.16C2006.51 1440.21 2007.88 1447.55 2007.88 1455.1Z" fill="#E299AD"/>
<path fill-rule="evenodd" clip-rule="evenodd" d="M922.658 1512.51C871.943 1459.76 772.239 1393.07 779.141 1548.36C772.24 1581.72 795.544 1657.93 879.059 1695.89C902.353 1719.19 935.991 1751.8 949.105 1695.89C941.794 1674.41 936.829 1625.03 932.58 1582.78C929.09 1548.07 926.083 1518.18 922.658 1512.51ZM807.342 1588.34C804.902 1574.41 803.176 1558.91 803.042 1544.39C802.909 1529.91 804.355 1516.21 808.388 1505.99C812.443 1495.71 819.323 1488.54 830.093 1488.23C840.524 1487.94 853.974 1494.15 871.171 1508.59C882.643 1518.22 895.919 1531.62 911.251 1549.51L911.411 1549.7L911.523 1549.92C914.841 1556.48 916.977 1566.9 913.67 1578.18C909.716 1591.67 898.103 1606.02 872.383 1616.48C873.878 1621.08 875.712 1626.05 877.82 1630.99C892.627 1619.55 903.919 1618.75 912.053 1623.71C920.235 1628.69 924.253 1639 925.566 1646.67L925.675 1647.31L925.395 1647.9C921.11 1656.86 916.574 1662.51 911.772 1665.25C906.797 1668.1 901.808 1667.68 897.228 1665.17C892.768 1662.73 888.668 1658.32 885.019 1653.07C881.346 1647.79 878.015 1641.49 875.147 1635.08C872.251 1628.6 869.808 1621.96 867.951 1616.05C865.061 1610.05 862.399 1602.97 860.991 1596.09C859.586 1589.23 859.368 1582.26 861.757 1576.78C862.97 1574 864.854 1571.62 867.553 1569.88C870.238 1568.15 873.618 1567.13 877.726 1566.9C885.486 1566.46 896.099 1568.79 910.33 1574.79C912.409 1565.61 910.611 1557.3 907.983 1551.98C893.334 1534.9 880.649 1522.04 869.704 1512.7C863.529 1516.86 855.103 1523.84 848.514 1532.18C841.418 1541.16 836.767 1551.3 838.661 1561.04L834.648 1561.82C832.41 1550.31 837.966 1538.93 845.307 1529.65C851.864 1521.35 860.1 1514.39 866.442 1509.98C850.474 1496.98 838.69 1492.08 830.209 1492.32C821.701 1492.56 815.915 1498.05 812.191 1507.49C808.445 1516.98 806.998 1530.06 807.13 1544.35C807.261 1558.6 808.957 1573.87 811.368 1587.64L807.342 1588.34ZM864.996 1595.27C866.199 1601.15 868.401 1607.28 870.885 1612.68C894.556 1603.04 905.203 1590.3 909.199 1578.75C894.959 1572.7 884.885 1570.59 877.959 1570.98C874.391 1571.18 871.733 1572.05 869.766 1573.32C867.811 1574.58 866.427 1576.3 865.503 1578.42C863.618 1582.74 863.651 1588.7 864.996 1595.27ZM909.926 1627.2C903.757 1623.44 894.105 1623.29 879.527 1634.84C882.173 1640.6 885.16 1646.11 888.375 1650.74C891.878 1655.78 895.541 1659.59 899.19 1661.58C902.718 1663.51 906.183 1663.74 909.744 1661.7C913.391 1659.62 917.371 1655.03 921.422 1646.73C920.079 1639.61 916.405 1631.15 909.926 1627.2Z" fill="#E299AD"/>
<rect x="2427" y="307" width="228" height="25" fill="#D9D9D9" class="path"/>
<rect x="2631" y="330" width="24" height="315" fill="#D9D9D9" class="path"/>
<rect x="2418" y="623" width="237" height="22" fill="#D9D9D9" class="path"/>
<rect x="2416" y="623" width="22" height="1258" fill="#D9D9D9" class="path"/>
<rect x="2301" y="1238" width="137" height="22" fill="#D9D9D9" class="path"/>
<rect x="2735" y="950" width="22" height="310" fill="#D9D9D9" class="path"/>
<rect x="2756" y="1238" width="130" height="22" fill="#D9D9D9" class="path"/>
<rect x="2437" y="1568" width="218" height="22" fill="#D9D9D9" class="path"/>
<rect x="2633" y="1568" width="22" height="1249" fill="#D9D9D9" class="path"/>
<rect x="2427" y="2795" width="228" height="22" fill="#D9D9D9" class="path"/>
<rect x="2367" y="2174" width="22" height="271" fill="#D9D9D9" class="path"/>
<rect x="2127" y="2171" width="262" height="25" fill="#D9D9D9" class="path"/>
<rect x="2125" y="1907" width="23" height="289" fill="#D9D9D9" class="path"/>
<rect x="1893" y="1907" width="255" height="22" fill="#D9D9D9" class="path"/>
<rect x="1891" y="1907" width="22" height="598" fill="#D9D9D9" class="path"/>
<rect x="2124" y="2483" width="22" height="635" fill="#D9D9D9" class="path"/>
<rect x="1516" y="2795" width="316" height="22" fill="#D9D9D9" class="path"/>
<rect x="1514" y="2278" width="22" height="539" fill="#D9D9D9" class="path"/>
<rect x="1217" y="2277" width="315" height="24" fill="#D9D9D9" class="path"/>
<rect x="1217" y="2277" width="23" height="841" fill="#D9D9D9" class="path"/>
<rect x="584" y="2805" width="22" height="314" fill="#D9D9D9" class="path"/>
<rect x="636" y="2472" width="592" height="22" fill="#D9D9D9" class="path"/>
<rect x="841" y="2082" width="21" height="723" fill="#D9D9D9" class="path"/>
<rect x="840" y="2078" width="253" height="22" fill="#D9D9D9" class="path"/>
<rect x="1070" y="1868" width="23" height="232" fill="#D9D9D9" class="path"/>
<rect x="609" y="1868" width="482" height="22" fill="#D9D9D9" class="path"/>
<rect x="291" y="2483" width="22" height="334" fill="#D9D9D9" class="path"/>
<rect y="2795" width="313" height="22" fill="#D9D9D9" class="path"/>
<rect x="9" y="2173" width="507" height="22" fill="#D9D9D9" class="path"/>
<rect x="-13" y="1852" width="338" height="25" fill="#D9D9D9" class="path"/>
<rect x="268" y="1240" width="22" height="335" fill="#D9D9D9" class="path"/>
<rect y="1238" width="290" height="22" fill="#D9D9D9" class="path"/>
<rect x="603" y="1237" width="22" height="653" fill="#D9D9D9" class="path"/>
<rect x="603" y="1237" width="165" height="23" fill="#D9D9D9" class="path"/>
<rect x="302" y="930" width="466" height="22" fill="#D9D9D9" class="path"/>
<rect x="746" y="942" width="22" height="307" fill="#D9D9D9" class="path"/>
<rect x="2136" y="317" width="21" height="328" fill="#D9D9D9" class="path"/>
<rect x="1840" y="929" width="598" height="21" fill="#D9D9D9" class="path"/>
<rect x="1840" y="625" width="23" height="321" fill="#D9D9D9" class="path"/>
<rect x="625" y="625" width="1534" height="22" fill="#D9D9D9" class="path"/>
<rect x="1514" y="754" width="22" height="194" fill="#D9D9D9" class="path"/>
<rect x="1217" y="751" width="319" height="21" fill="#D9D9D9" class="path"/>
<rect x="1216" y="636" width="25" height="136" fill="#D9D9D9" class="path"/>
<rect x="1217" y="-6" width="22" height="322" fill="#D9D9D9" class="path"/>
<rect x="1516" y="307" width="335" height="22" fill="#D9D9D9" class="path"/>
<rect x="1516" y="307" width="22" height="318" fill="#D9D9D9" class="path"/>
<rect x="886" y="316" width="21" height="309" fill="#D9D9D9" class="path"/>
<rect y="360" width="652" height="27" fill="#D9D9D9" class="path"/>
<rect x="628" y="374" width="24" height="265" fill="#D9D9D9" class="path"/>
<rect y="625" width="326" height="22" fill="#D9D9D9" class="path"/>

<g transform="translate(1630,2600)" id="maze-mouth"> 
<path fill-rule="evenodd" clip-rule="evenodd" d="M31.9128 16.6186C40.3091 9.32808 48.3006 2.38916 55.1245 0.0211085C65.853 -0.312289 69.9703 5.07693 72.6636 8.60237C74.0217 10.38 75.0178 11.6838 76.3169 11.5411V11.5319C76.3282 11.5337 76.3395 11.5354 76.3507 11.5371C76.3716 11.5344 76.3926 11.5313 76.4137 11.5279V11.5451C77.7128 11.6878 78.7089 10.384 80.067 8.60636C82.7604 5.08093 86.8776 -0.308295 97.6062 0.0251029C104.43 2.39315 112.421 9.33207 120.818 16.6226C131.319 25.741 142.454 35.4095 152.731 37.3726C147.356 38.9879 141.297 43.2133 132.014 49.6867C123.896 55.3476 113.313 62.7275 98.5667 71.5847C92.1783 75.4218 78.1105 70.4265 76.3633 68.7189C74.5983 70.4302 60.5474 75.4148 54.1639 71.5807C39.4176 62.7235 28.8346 55.3436 20.7169 49.6827C11.4338 43.2093 5.37458 38.9839 0 37.3686C10.2761 35.4055 21.4112 25.737 31.9128 16.6186Z" fill="#FC5812"/>
<path fill-rule="evenodd" clip-rule="evenodd" d="M17.3424 35.7568C33.1794 32.9499 56.0912 28.889 76.1999 36.4969H76.3678V36.4967H76.5291C96.6376 28.8891 119.549 32.9499 135.386 35.7568C136.858 36.0177 138.269 36.2678 139.611 36.4967H149.505C140.163 33.3714 130.259 24.7716 120.862 16.6123L120.861 16.6122C112.465 9.32173 104.474 2.38281 97.6498 0.0147609C86.9213 -0.318637 82.804 5.07059 80.1106 8.59602C78.7215 10.4143 77.7111 11.7369 76.3678 11.5227V11.5215C76.3666 11.5217 76.3654 11.5219 76.3642 11.5221C76.363 11.5219 76.3618 11.5217 76.3606 11.5215V11.5227C75.0172 11.7369 74.0069 10.4143 72.6177 8.59602C69.9243 5.07059 65.807 -0.318637 55.0785 0.0147609C48.2547 2.38281 40.2632 9.32173 31.8668 16.6122C22.4696 24.7718 12.5651 33.3718 3.22266 36.4969H13.116C14.4582 36.268 15.8695 36.0179 17.3419 35.7569L17.3424 35.7568Z" fill="#E299AD"/>    
</g>

</g>
<defs>
<clipPath id="clip0_1209_58">
<rect width="2894" height="3119" fill="white"/>
</clipPath>
</defs>
</svg>
