<svg width="100%" height="100%" viewBox="0 0 2882 3119" fill="none" xmlns="http://www.w3.org/2000/svg">


<g clip-path="url(#clip0_186_2)">
<rect width="100%" height="100%" fill="black"/>
<rect x="1304.48" y="1143.8" width="495.753" height="267.967" transform="rotate(0.0274576 1304.48 1143.8)" fill="#097441"/>
<rect x="988.289" y="1355.68" width="333.403" height="361.018" transform="rotate(0.0274576 988.289 1355.68)" fill="#FDB600"/>
<rect x="1799.92" y="1798.48" width="746.21" height="347.823" transform="rotate(-89.9725 1799.92 1798.48)" fill="#8000FF"/>
<rect x="843.613" y="1365.03" width="448.841" height="478.068" transform="rotate(-89.9725 843.613 1365.03)" fill="#FC5812"/>
<rect x="1503.95" y="1411.87" width="296.153" height="353.772" transform="rotate(0.0274576 1503.95 1411.87)" fill="#FDB600"/>
<rect x="1321.67" y="1411.78" width="182.284" height="594.089" transform="rotate(0.0274576 1321.67 1411.78)" fill="#8000FF"/>
<rect x="755.406" y="1747.94" width="382.951" height="232.697" transform="rotate(-89.9725 755.406 1747.94)" fill="#097441"/>
<rect x="1187.02" y="2005.74" width="451.386" height="195.854" transform="rotate(0.0274576 1187.02 2005.74)" fill="#097441"/>

<g transform="translate(1620, 2576)" class="figure" width="304" height="146" viewBox="0 0 304 146" fill="none" xmlns="http://www.w3.org/2000/svg">
<path fill-rule="evenodd" clip-rule="evenodd" d="M63.7194 33.2936C80.3691 18.8368 96.2159 5.07721 109.747 0.381443C131.022 -0.279672 139.186 10.407 144.527 17.3978C147.22 20.9232 149.196 23.5087 151.772 23.2251V23.2071C151.794 23.2107 151.816 23.2141 151.838 23.2172C151.879 23.2119 151.921 23.2058 151.963 23.1989V23.2332C154.54 23.5169 156.515 20.9314 159.208 17.406C164.549 10.4151 172.714 -0.271498 193.988 0.389617C207.519 5.08538 223.366 18.845 240.016 33.3018C260.84 51.3834 282.92 70.5555 303.298 74.4483C292.64 77.6515 280.625 86.0302 262.217 98.8669C246.12 110.092 225.134 124.726 195.893 142.29C183.224 149.899 155.326 139.992 151.863 136.606C148.365 140 120.501 149.885 107.843 142.282C78.6013 124.718 57.6156 110.084 41.5184 98.8587C23.1103 86.022 11.0951 77.6433 0.4375 74.4401C20.8147 70.5474 42.8951 51.3752 63.7194 33.2936Z" fill="#FC5812"/>
<path fill-rule="evenodd" clip-rule="evenodd" d="M34.8185 71.2443C66.2225 65.6783 111.655 57.6257 151.53 72.7116L151.853 72.7117H152.186C192.061 57.6258 237.494 65.6783 268.898 71.2444L268.903 71.2453C271.821 71.7624 274.617 72.258 277.277 72.7117H296.896C278.37 66.5144 258.73 49.4613 240.096 33.2813L240.096 33.2813C223.447 18.8245 207.6 5.06492 194.068 0.369165C172.794 -0.29195 164.63 10.3947 159.289 17.3855C156.533 20.9926 154.529 23.6157 151.864 23.1884V23.1866C151.862 23.1869 151.86 23.1872 151.858 23.1875C151.856 23.1872 151.854 23.1869 151.853 23.1866V23.1884C149.187 23.6157 147.183 20.9925 144.427 17.3854C139.087 10.3946 130.922 -0.292001 109.648 0.369114C96.1164 5.06487 80.2696 18.8245 63.62 33.2812L63.6199 33.2813C44.9857 49.4612 25.3457 66.5144 6.82031 72.7116H26.4392C29.1005 72.2578 31.8989 71.7618 34.8185 71.2443Z" fill="#E299AD"/>
</g>

<g transform="translate(878, 2544)" class="figure">
<path fill-rule="evenodd" clip-rule="evenodd" d="M0.0483925 102.8C20.0845 68.9554 72.9394 1.02527 124.07 0.0594098C175.2 1.07428 227.99 69.0551 247.994 102.919L0.0483925 102.8ZM0.051927 102.8C20.0556 136.664 72.8454 204.644 123.975 205.659C175.106 204.693 227.961 136.763 247.997 102.919L0.051927 102.8Z" fill="white"/>
<ellipse cx="169.624" cy="102.86" rx="45.5791" ry="53.6054" transform="rotate(0.0274576 169.624 102.86)" fill="black"/>
</g>

<g transform="translate(922, 31)" class="figure">
<path fill-rule="evenodd" clip-rule="evenodd" d="M247.998 102.8C227.962 68.9554 175.107 1.02527 123.976 0.0594098C72.8464 1.07428 20.0566 69.0551 0.0529549 102.919L247.998 102.8ZM247.995 102.8C227.991 136.664 175.201 204.644 124.071 205.659C72.9404 204.693 20.0855 136.763 0.0493693 102.919L247.995 102.8Z" fill="white"/>
<ellipse cx="45.5791" cy="53.6054" rx="45.5791" ry="53.6054" transform="matrix(-1 0.000479226 0.000479226 1 123.98 49.2323)" fill="#8000FF"/>
</g>

<g transform="translate(2495, 1265)" class="figure">
<path fill-rule="evenodd" clip-rule="evenodd" d="M145.17 61.3014C94.4548 8.54374 -5.24915 -58.1474 1.6532 97.1492C-5.24875 130.509 18.0554 206.72 101.57 244.681C124.865 267.976 158.503 300.588 171.617 244.681C164.306 223.194 159.34 173.816 155.092 131.569C151.602 96.8605 148.595 66.9646 145.17 61.3014ZM29.8536 137.132C27.4133 123.195 25.6873 107.697 25.5537 93.1747C25.4205 78.6958 26.8667 64.9985 30.8999 54.7759C34.955 44.4979 41.8343 37.3261 52.605 37.0201C63.0361 36.7239 76.4857 42.9413 93.6823 57.3755C105.155 67.005 118.431 80.4086 133.762 98.2971L133.923 98.4844L134.034 98.7046C137.353 105.265 139.489 115.683 136.182 126.965C132.228 140.458 120.615 154.803 94.8946 165.272C96.3894 169.866 98.2234 174.839 100.332 179.775C115.139 168.341 126.431 167.539 134.565 172.495C142.746 177.479 146.765 187.792 148.077 195.461L148.187 196.101L147.907 196.687C143.622 205.652 139.086 211.297 134.283 214.041C129.308 216.884 124.32 216.464 119.74 213.959C115.28 211.519 111.18 207.107 107.53 201.858C103.858 196.576 100.526 190.28 97.6587 183.866C94.7627 177.389 92.3196 170.748 90.4627 164.833C87.5729 158.84 84.9102 151.757 83.503 144.881C82.0976 138.014 81.8794 131.043 84.2683 125.57C85.4817 122.79 87.3661 120.405 90.0644 118.668C92.7499 116.938 96.1297 115.922 100.238 115.687C107.998 115.244 118.611 117.576 132.841 123.575C134.921 114.397 133.122 106.086 130.495 100.766C115.845 83.6877 103.161 70.8232 92.216 61.4894C86.0407 65.6524 77.6152 72.63 71.0255 80.9678C63.9299 89.9458 59.279 100.09 61.1726 109.828L57.16 110.608C54.9217 99.0972 60.4774 87.7217 67.8185 78.4332C74.3761 70.1358 82.6116 63.175 88.9533 58.7692C72.9858 45.7685 61.2019 40.8653 52.7211 41.1062C44.2122 41.3479 38.4264 46.8372 34.7024 56.2761C30.9566 65.7703 29.5098 78.8455 29.6412 93.1371C29.7723 107.385 31.4687 122.655 33.8801 136.427L29.8536 137.132ZM87.5077 144.061C88.711 149.941 90.9129 156.064 93.3966 161.469C117.067 151.825 127.715 139.088 131.71 127.535C117.471 121.486 107.396 119.373 100.471 119.768C96.903 119.972 94.2451 120.837 92.2775 122.104C90.3226 123.363 88.9385 125.089 88.0147 127.205C86.1293 131.524 86.1622 137.487 87.5077 144.061ZM132.438 175.986C126.269 172.227 116.616 172.075 102.039 183.628C104.685 189.383 107.671 194.901 110.886 199.525C114.39 204.563 118.053 208.377 121.701 210.372C125.23 212.302 128.695 212.526 132.255 210.492C135.903 208.408 139.882 203.822 143.934 195.514C142.591 188.398 138.917 179.933 132.438 175.986Z" fill="#E299AD"/>    
</g>

<g transform="translate(2525, 2672)" class="figure">
<path fill-rule="evenodd" clip-rule="evenodd" d="M0.00476053 306.691C-1.10414 260.061 191.784 65.4379 296.764 5.27778C401.745 -54.8823 78.1315 419.198 50.1986 415.414L0.00476053 306.691ZM39.979 299.754C41.4935 295.101 43.2995 290.297 45.3895 285.356C47.3854 280.637 49.6356 275.804 52.1302 270.868C57.0839 274.489 62.7578 277.759 68.3781 279.613C74.678 281.691 81.2959 282.104 86.6749 278.683C92.0732 275.25 95.5859 268.363 96.6228 257.346C97.6554 246.375 96.2805 230.924 91.5227 209.673C94.3636 205.96 97.2971 202.224 100.32 198.468C104.163 193.692 108.15 188.885 112.274 184.054C113.848 194.927 115.563 210.228 116.235 225.211C116.618 233.751 116.66 242.155 116.15 249.56C115.638 257.002 114.578 263.278 112.837 267.651L116.635 269.163C118.613 264.195 119.707 257.414 120.228 249.84C120.752 242.229 120.706 233.659 120.319 225.027C119.564 208.199 117.51 191.004 115.795 179.963C131.673 161.657 149.483 143.049 168.878 124.561C173.674 131.197 182.685 139.768 194.328 144.072C206.133 148.435 220.55 148.363 235.696 137.677L233.339 134.337C219.366 144.196 206.373 144.166 195.745 140.238C184.996 136.265 176.573 128.254 172.145 122.102L169.341 124.12C209.994 85.4248 257.582 47.2705 308.929 13.5287L306.684 10.1126C221.98 65.7749 147.412 133.429 97.1354 195.905C72.0006 227.139 52.8841 257.143 41.6247 283.764C30.3939 310.316 26.8352 333.849 33.3738 351.911L37.2174 350.519C32.7802 338.263 33.3031 322.885 38.3408 305.127C42.9693 302.26 49.1463 300.93 53.8858 305.209C56.3712 307.453 58.7273 311.421 60.2809 318.114C61.8328 324.799 62.5492 334.061 61.871 346.695L65.9528 346.914C66.6432 334.054 65.9313 324.378 64.2627 317.189C62.5958 310.008 59.9393 305.167 56.625 302.175C51.3166 297.382 44.9858 297.794 39.979 299.754ZM88.2752 213.96C74.3707 232.504 62.8278 250.406 54.026 267.187C58.8754 270.795 64.3703 273.987 69.6585 275.731C75.4454 277.64 80.6021 277.701 84.4811 275.234C88.3407 272.779 91.5694 267.414 92.5531 256.963C93.4747 247.171 92.383 233.253 88.2752 213.96ZM294.916 52.377C213.636 206.817 109.291 333.658 67.2164 377.837L64.2563 375.018C106.112 331.069 210.22 204.53 291.298 50.4732L294.916 52.377ZM177.877 186.102C177.862 201.167 172.357 217.695 167.326 228.306L163.633 226.555C168.523 216.24 173.775 200.332 173.79 186.098C173.797 178.996 172.499 172.472 169.36 167.274C166.257 162.136 161.258 158.131 153.499 156.16L154.505 152.198C163.243 154.417 169.167 159.048 172.859 165.161C176.515 171.214 177.885 178.555 177.877 186.102Z" fill="#E299AD"/>
</g>

<g transform="translate(25, 826)" class="figure">
<path fill-rule="evenodd" clip-rule="evenodd" d="M108.352 48.8189C98.134 93.8382 86.9678 143.035 134.131 229.576C151.733 258.79 174.009 319.275 116.234 310.372C116.104 310.099 115.956 309.816 115.803 309.523C114.019 306.105 111.517 301.309 127.218 294.47C148.527 285.187 103.673 253.035 92.0106 332.474C89.8873 334.644 84.1824 338.286 76.7402 337.699C69.2977 338.286 63.5927 334.644 61.4693 332.474C49.8067 253.035 4.95314 285.187 26.2624 294.47C41.9634 301.309 39.4606 306.105 37.6769 309.523C37.5239 309.816 37.3762 310.099 37.2458 310.372C-20.5286 319.275 1.74742 258.79 19.3492 229.576C66.5121 143.035 55.346 93.8382 45.128 48.8189C41.4829 32.759 37.9585 17.2307 37.2458 0.728424L73.4056 0.728394H116.234C115.521 17.2307 111.997 32.759 108.352 48.8189Z" fill="white"/>
</g>

<g transform="translate(36, 1987)" class="figure">
<path d="M91.2112 0L0 65.9798C134.289 -5.41404 262.647 57.5754 323.458 59.5162C372.107 61.0688 385.994 29.1108 386.856 12.9378C356.322 23.288 177.037 8.62518 91.2112 0Z" fill="#097441"/>
</g>

<g transform="translate(1949, 759)"  class="figure">
<path d="M0.577637 95.7042C36.0218 54.4073 264.358 42.0601 374.095 41.0486C281.361 -30.8489 86.7605 9.04808 1.05185 37.9838L0.577637 95.7042Z" fill="#FDB600"/>
</g>

<rect x="1215" y="2" width="23" height="202" fill="#FFFFFF" class="path"/>
<rect x="1638" y="305" width="273" height="22" fill="#FFFFFF" class="path"/>
<rect x="1617" y="305" width="23" height="342" fill="#FFFFFF" class="path"/>
<rect x="627" y="624" width="1236" height="22" fill="#FFFFFF" class="path"/>
<!-- <rect x="885" y="447" width="22" height="177" fill="#FFFFFF" class="path"/> -->
<rect x="488" y="421" width="162" height="22" fill="#FFFFFF" class="path"/>
<rect x="628" y="421" width="22" height="222" fill="#FFFFFF" class="path"/>
<rect x="571" y="931" width="198" height="22" fill="#FFFFFF" class="path"/>
<rect x="747" y="625" width="22" height="630" fill="#FFFFFF" class="path"/>
<rect y="737" width="155" height="22" fill="#FFFFFF" class="path"/>
<rect y="1237" width="155" height="22" fill="#FFFFFF" class="path"/>
<rect x="133" y="1255" width="22" height="325" fill="#FFFFFF" class="path"/>
<rect x="605" y="1237" width="22" height="650" fill="#FFFFFF" class="path"/>
<rect x="615" y="1237" width="154" height="22" fill="#FFFFFF" class="path"/>
<rect x="-1" y="1856" width="170" height="22" fill="#FFFFFF" class="path"/>
<rect x="11" y="2172" width="289" height="22" fill="#FFFFFF" class="path"/>
<rect x="616" y="1867" width="475" height="22" fill="#FFFFFF" class="path"/>
<rect x="1069" y="1878" width="22" height="221" fill="#FFFFFF" class="path"/>
<rect x="793" y="2077" width="297" height="22" fill="#FFFFFF" class="path"/>
<rect x="793" y="2077" width="22" height="417" fill="#FFFFFF" class="path"/>
<rect x="637" y="2471" width="601" height="23" fill="#FFFFFF" class="path"/>
<rect x="290" y="2659" width="23" height="156" fill="#FFFFFF" class="path"/>
<rect x="9" y="2792" width="304" height="23" fill="#FFFFFF" class="path"/>
<rect x="1218" y="2277" width="23" height="838" fill="#FFFFFF" class="path"/>
<rect x="1238" y="2277" width="297" height="22" fill="#FFFFFF" class="path"/>
<rect x="1514" y="2277" width="22" height="538" fill="#FFFFFF" class="path"/>
<rect x="1525" y="2794" width="310" height="22" fill="#FFFFFF" class="path"/>
<rect x="2009" y="2906" width="23" height="213" fill="#FFFFFF" class="path"/>
<rect x="1525" y="2485" width="387" height="22" fill="#FFFFFF" class="path"/>
<rect x="2008" y="1919" width="23" height="489" fill="#FFFFFF" class="path"/>
<rect x="1892" y="1907" width="22" height="587" fill="#FFFFFF" class="path"/>
<rect x="1898" y="1907" width="133" height="22" fill="#FFFFFF" class="path"/>
<rect x="2427" y="2528" width="93" height="22" fill="#FFFFFF" class="path"/>
<rect x="2502" y="1569" width="22" height="980" fill="#FFFFFF" class="path"/>
<rect x="2416" y="413" width="22" height="1424" fill="#FFFFFF" class="path"/>
<rect x="2427" y="1569" width="93" height="22" fill="#FFFFFF" class="path"/>
<rect x="2304" y="1236" width="123" height="25" fill="#FFFFFF" class="path"/>
<rect x="1852" y="933" width="570" height="21" fill="#FFFFFF" class="path"/>
<rect x="1841" y="635" width="22" height="319" fill="#FFFFFF" class="path"/>
<rect x="1515" y="760" width="22" height="189" fill="#FFFFFF" class="path"/>
<rect x="1217" y="636" width="22" height="138" fill="#FFFFFF" class="path"/>
<rect x="1231" y="751" width="306" height="22" fill="#FFFFFF" class="path"/>
</g>
<defs>
<clipPath id="clip0_186_2">
<rect width="2894" height="3119" fill="white"/>
</clipPath>
</defs>
</svg>
