<svg width="2892" height="3119" viewBox="0 0 2892 3119" fill="none" xmlns="http://www.w3.org/2000/svg">
<rect width="2894" height="3119" fill="black"/>
<path class="path" d="M302.709 316.365H638.067V635.365H756.878M2147.18 316.365V635.365H1852.72M1525.54 635.365V316.365H1852.72M1525.54 635.365H1852.72M1525.54 635.365H1226.99M756.878 635.365H1226.99M756.878 635.365V942.098M756.878 635.365H896.706V316.365M756.878 942.098L302.709 950.278M756.878 942.098V1248.83H616.127V1578.65V1878.6H803.45H1080.29V2089.44H803.45V2483.13M0.673736 1248.83H279.164V1578.65M517.337 2183.17H10.2257M10.2258 2806.16H302.709V2483.13M638.067 2806.16L636.588 3118.09M1228 3118.09V2483.13M1228 2483.13H851.098M1228 2483.13V2288.05H1525.54V2503.45M638.067 2483.13H851.098M851.098 2483.13V2806.16M1831.86 2806.16H1525.54V2503.45M2427.49 2483.13V2183.17H2137.08V1918.35H1902.98V2496.2H1525.54V2503.45M2137.08 3118.48V2483.13M2427.49 2806.16H2643.38V1578.65H2427.49V1878.6V1248.83M2427.49 1248.83H2301.71M2427.49 1248.83V942.098M2427.49 316.365H2643.38V635.365H2427.49V942.098M2427.49 942.098H1852.72V635.365M1226.99 635.365V762.624H1525.54V950.278M1226.99 316.365V1.1991M2885.86 1248.83H2744.58V950.278M328.134 635.365H0.453125M0.927108 1866.24H328.134" stroke="white" stroke-width="22.3959"/>
<rect x="1304.48" y="1143.8" width="495.753" height="267.967" transform="rotate(0.0274576 1304.48 1143.8)" fill="#097441"/>
<rect x="988.288" y="1355.68" width="333.403" height="361.018" transform="rotate(0.0274576 988.288 1355.68)" fill="#FDB600"/>
<rect x="1799.92" y="1798.48" width="746.21" height="347.823" transform="rotate(-89.9725 1799.92 1798.48)" fill="#8000FF"/>
<rect x="843.613" y="1365.03" width="448.841" height="478.068" transform="rotate(-89.9725 843.613 1365.03)" fill="#FC5812"/>
<rect x="1503.95" y="1411.87" width="296.153" height="353.772" transform="rotate(0.0274576 1503.95 1411.87)" fill="#FDB600"/>
<rect x="1321.66" y="1411.78" width="182.284" height="594.089" transform="rotate(0.0274576 1321.66 1411.78)" fill="#8000FF"/>
<rect x="755.404" y="1747.94" width="382.951" height="232.697" transform="rotate(-89.9725 755.404 1747.94)" fill="#097441"/>
<rect x="1187.02" y="2005.74" width="451.386" height="195.854" transform="rotate(0.0274576 1187.02 2005.74)" fill="#097441"/>
<path fill-rule="evenodd" clip-rule="evenodd" d="M2589.07 2973.39C2609.11 2939.54 2661.97 2871.61 2713.1 2870.65C2764.23 2871.66 2817.02 2939.64 2837.02 2973.5L2589.07 2973.39ZM2589.08 2973.39C2609.08 3007.25 2661.87 3075.23 2713 3076.25C2764.13 3075.28 2816.99 3007.35 2837.02 2973.51L2589.08 2973.39Z" fill="white"/>
<ellipse cx="2758.65" cy="2973.45" rx="45.5791" ry="53.6054" transform="rotate(0.0274576 2758.65 2973.45)" fill="black"/>
<path fill-rule="evenodd" clip-rule="evenodd" d="M331.99 2014.75C311.954 1980.9 259.099 1912.97 207.968 1912.01C156.838 1913.02 104.048 1981 84.0442 2014.87L331.99 2014.75ZM331.986 2014.75C311.982 2048.61 259.193 2116.59 208.063 2117.61C156.932 2116.64 104.077 2048.71 84.0406 2014.87L331.986 2014.75Z" fill="white"/>
<ellipse cx="45.5791" cy="53.6054" rx="45.5791" ry="53.6054" transform="matrix(-1 0.000479226 0.000479226 1 207.973 1961.18)" fill="#8000FF"/>
<path fill-rule="evenodd" clip-rule="evenodd" d="M192.35 857.819C182.132 902.838 170.966 952.035 218.129 1038.58C235.731 1067.79 258.007 1128.28 200.232 1119.37C200.102 1119.1 199.954 1118.82 199.801 1118.52C198.017 1115.1 195.515 1110.31 211.216 1103.47C232.525 1094.19 187.671 1062.03 176.009 1141.47C173.885 1143.64 168.18 1147.29 160.738 1146.7C153.296 1147.29 147.591 1143.64 145.467 1141.47C133.805 1062.03 88.9512 1094.19 110.26 1103.47C125.961 1110.31 123.459 1115.1 121.675 1118.52C121.522 1118.82 121.374 1119.1 121.244 1119.37C63.4694 1128.28 85.7455 1067.79 103.347 1038.58C150.51 952.035 139.344 902.838 129.126 857.819C125.481 841.759 121.957 826.231 121.244 809.728L157.404 809.728H200.232C199.52 826.231 195.995 841.759 192.35 857.819Z" fill="white"/>
<g  transform="translate(1600,2560)" id="maze-mouth" width="304" height="146" viewBox="0 0 304 146" fill="none" xmlns="http://www.w3.org/2000/svg">
<path fill-rule="evenodd" clip-rule="evenodd" d="M63.7184 33.2936C80.3681 18.8368 96.2149 5.07721 109.746 0.381443C131.021 -0.279672 139.185 10.407 144.526 17.3978C147.219 20.9232 149.195 23.5087 151.771 23.2251V23.2071C151.793 23.2107 151.815 23.2141 151.837 23.2172C151.878 23.2119 151.92 23.2058 151.962 23.1989V23.2332C154.539 23.5169 156.514 20.9314 159.207 17.406C164.548 10.4151 172.713 -0.271498 193.987 0.389617C207.518 5.08538 223.365 18.845 240.015 33.3018C260.839 51.3834 282.919 70.5555 303.297 74.4483C292.639 77.6515 280.624 86.0302 262.216 98.8669C246.119 110.092 225.133 124.726 195.892 142.29C183.223 149.899 155.325 139.992 151.862 136.606C148.364 140 120.5 149.885 107.842 142.282C78.6003 124.718 57.6146 110.084 41.5174 98.8587C23.1093 86.022 11.0941 77.6433 0.436523 74.4401C20.8138 70.5474 42.8941 51.3752 63.7184 33.2936Z" fill="#FC5812"/>
<path fill-rule="evenodd" clip-rule="evenodd" d="M34.8185 71.2443C66.2225 65.6783 111.655 57.6257 151.53 72.7116L151.853 72.7117H152.186C192.061 57.6258 237.494 65.6783 268.898 71.2444L268.903 71.2453C271.821 71.7624 274.617 72.258 277.277 72.7117H296.896C278.37 66.5144 258.73 49.4613 240.096 33.2813L240.096 33.2813C223.447 18.8245 207.6 5.06492 194.068 0.369165C172.794 -0.29195 164.63 10.3947 159.289 17.3855C156.533 20.9926 154.529 23.6157 151.864 23.1884V23.1866C151.862 23.1869 151.86 23.1872 151.858 23.1875C151.856 23.1872 151.854 23.1869 151.853 23.1866V23.1884C149.187 23.6157 147.183 20.9925 144.427 17.3854C139.087 10.3946 130.922 -0.292001 109.648 0.369114C96.1164 5.06487 80.2696 18.8245 63.62 33.2812L63.6199 33.2813C44.9857 49.4612 25.3457 66.5144 6.82031 72.7116H26.4392C29.1005 72.2578 31.8989 71.7618 34.8185 71.2443Z" fill="#E299AD"/>
</g>
<path d="M1910.58 856.704C1946.02 815.407 2174.36 803.06 2284.1 802.049C2191.36 730.151 1996.76 770.048 1911.05 798.984L1910.58 856.704Z" fill="#FDB600"/>
<path d="M846.615 123.155L755.403 189.135C889.693 117.741 1018.05 180.731 1078.86 182.672C1127.51 184.224 1141.4 152.266 1142.26 136.093C1111.73 146.443 932.44 131.781 846.615 123.155Z" fill="#097441"/>
<path fill-rule="evenodd" clip-rule="evenodd" d="M840.845 2966.41C839.736 2919.78 1032.62 2725.16 1137.6 2665C1242.59 2604.84 918.971 3078.92 891.038 3075.13L840.845 2966.41ZM880.819 2959.47C882.333 2954.82 884.139 2950.02 886.229 2945.07C888.225 2940.36 890.475 2935.52 892.97 2930.59C897.924 2934.21 903.598 2937.48 909.218 2939.33C915.518 2941.41 922.136 2941.82 927.515 2938.4C932.913 2934.97 936.426 2928.08 937.463 2917.06C938.495 2906.09 937.12 2890.64 932.363 2869.39C935.203 2865.68 938.137 2861.94 941.16 2858.19C945.003 2853.41 948.99 2848.6 953.114 2843.77C954.687 2854.65 956.403 2869.95 957.075 2884.93C957.458 2893.47 957.5 2901.87 956.99 2909.28C956.478 2916.72 955.418 2923 953.677 2927.37L957.475 2928.88C959.452 2923.91 960.547 2917.13 961.068 2909.56C961.592 2901.95 961.545 2893.38 961.158 2884.75C960.404 2867.92 958.35 2850.72 956.634 2839.68C972.512 2821.38 990.323 2802.77 1009.72 2784.28C1014.51 2790.91 1023.52 2799.49 1035.17 2803.79C1046.97 2808.15 1061.39 2808.08 1076.54 2797.4L1074.18 2794.06C1060.21 2803.91 1047.21 2803.88 1036.58 2799.96C1025.84 2795.98 1017.41 2787.97 1012.98 2781.82L1010.18 2783.84C1050.83 2745.14 1098.42 2706.99 1149.77 2673.25L1147.52 2669.83C1062.82 2725.49 988.252 2793.15 937.975 2855.62C912.84 2886.86 893.724 2916.86 882.465 2943.48C871.234 2970.03 867.675 2993.57 874.214 3011.63L878.057 3010.24C873.62 2997.98 874.143 2982.6 879.181 2964.84C883.809 2961.98 889.986 2960.65 894.726 2964.93C897.211 2967.17 899.567 2971.14 901.121 2977.83C902.673 2984.52 903.389 2993.78 902.711 3006.41L906.793 3006.63C907.483 2993.77 906.771 2984.1 905.103 2976.91C903.436 2969.73 900.779 2964.89 897.465 2961.89C892.156 2957.1 885.826 2957.51 880.819 2959.47ZM929.115 2873.68C915.211 2892.22 903.668 2910.12 894.866 2926.91C899.715 2930.51 905.21 2933.7 910.498 2935.45C916.285 2937.36 921.442 2937.42 925.321 2934.95C929.181 2932.5 932.409 2927.13 933.393 2916.68C934.315 2906.89 933.223 2892.97 929.115 2873.68ZM1135.76 2712.1C1054.48 2866.53 950.131 2993.38 908.056 3037.55L905.096 3034.74C946.952 2990.79 1051.06 2864.25 1132.14 2710.19L1135.76 2712.1ZM1018.72 2845.82C1018.7 2860.88 1013.2 2877.41 1008.17 2888.02L1004.47 2886.27C1009.36 2875.96 1014.62 2860.05 1014.63 2845.82C1014.64 2838.71 1013.34 2832.19 1010.2 2826.99C1007.1 2821.85 1002.1 2817.85 994.339 2815.88L995.345 2811.92C1004.08 2814.14 1010.01 2818.77 1013.7 2824.88C1017.35 2830.93 1018.72 2838.27 1018.72 2845.82Z" fill="#E299AD"/>
<path fill-rule="evenodd" clip-rule="evenodd" d="M2613.17 1329.3C2562.45 1276.54 2462.75 1209.85 2469.65 1365.15C2462.75 1398.51 2486.06 1474.72 2569.57 1512.68C2592.86 1535.98 2626.5 1568.59 2639.62 1512.68C2632.31 1491.19 2627.34 1441.82 2623.09 1399.57C2619.6 1364.86 2616.6 1334.96 2613.17 1329.3ZM2497.85 1405.13C2495.41 1391.2 2493.69 1375.7 2493.55 1361.17C2493.42 1346.7 2494.87 1333 2498.9 1322.78C2502.95 1312.5 2509.83 1305.33 2520.61 1305.02C2531.04 1304.72 2544.49 1310.94 2561.68 1325.38C2573.15 1335 2586.43 1348.41 2601.76 1366.3L2601.92 1366.48L2602.03 1366.7C2605.35 1373.26 2607.49 1383.68 2604.18 1394.97C2600.23 1408.46 2588.62 1422.8 2562.89 1433.27C2564.39 1437.87 2566.22 1442.84 2568.33 1447.77C2583.14 1436.34 2594.43 1435.54 2602.56 1440.49C2610.75 1445.48 2614.76 1455.79 2616.08 1463.46L2616.19 1464.1L2615.91 1464.69C2611.62 1473.65 2607.09 1479.3 2602.28 1482.04C2597.31 1484.88 2592.32 1484.46 2587.74 1481.96C2583.28 1479.52 2579.18 1475.11 2575.53 1469.86C2571.86 1464.58 2568.53 1458.28 2565.66 1451.87C2562.76 1445.39 2560.32 1438.75 2558.46 1432.83C2555.57 1426.84 2552.91 1419.76 2551.5 1412.88C2550.1 1406.01 2549.88 1399.04 2552.27 1393.57C2553.48 1390.79 2555.37 1388.41 2558.06 1386.67C2560.75 1384.94 2564.13 1383.92 2568.24 1383.69C2576 1383.24 2586.61 1385.58 2600.84 1391.57C2602.92 1382.4 2601.12 1374.09 2598.5 1368.77C2583.85 1351.69 2571.16 1338.82 2560.22 1329.49C2554.04 1333.65 2545.62 1340.63 2539.03 1348.97C2531.93 1357.95 2527.28 1368.09 2529.17 1377.83L2525.16 1378.61C2522.92 1367.1 2528.48 1355.72 2535.82 1346.43C2542.38 1338.14 2550.61 1331.17 2556.95 1326.77C2540.99 1313.77 2529.2 1308.87 2520.72 1309.11C2512.21 1309.35 2506.43 1314.84 2502.7 1324.28C2498.96 1333.77 2497.51 1346.85 2497.64 1361.14C2497.77 1375.39 2499.47 1390.66 2501.88 1404.43L2497.85 1405.13ZM2555.51 1412.06C2556.71 1417.94 2558.91 1424.06 2561.4 1429.47C2585.07 1419.82 2595.71 1407.09 2599.71 1395.53C2585.47 1389.49 2575.4 1387.37 2568.47 1387.77C2564.9 1387.97 2562.25 1388.84 2560.28 1390.1C2558.32 1391.36 2556.94 1393.09 2556.01 1395.21C2554.13 1399.52 2554.16 1405.49 2555.51 1412.06ZM2600.44 1443.99C2594.27 1440.23 2584.62 1440.07 2570.04 1451.63C2572.68 1457.38 2575.67 1462.9 2578.89 1467.52C2582.39 1472.56 2586.05 1476.38 2589.7 1478.37C2593.23 1480.3 2596.69 1480.53 2600.26 1478.49C2603.9 1476.41 2607.88 1471.82 2611.93 1463.51C2610.59 1456.4 2606.92 1447.93 2600.44 1443.99Z" fill="#E299AD"/>
</svg>
