<svg width="380" height="607" viewBox="0 0 380 607" fill="none" xmlns="http://www.w3.org/2000/svg">
<path fill-rule="evenodd" clip-rule="evenodd" d="M112.23 86.8588C137.479 167.894 165.072 256.45 48.5286 412.225C5.03308 464.812 -50.0129 573.686 92.7524 557.66C93.0748 557.168 93.4397 556.659 93.8177 556.131C98.2254 549.979 104.41 541.346 65.6117 529.035C12.9547 512.327 123.792 454.452 152.611 597.444C157.858 601.35 171.959 607.908 190.353 606.848C208.747 607.908 222.847 601.35 228.094 597.444C256.914 454.452 367.751 512.327 315.094 529.035C276.295 541.346 282.48 549.979 286.887 556.131C287.265 556.659 287.63 557.168 287.953 557.66C430.718 573.686 375.672 464.812 332.177 412.225C215.633 256.45 243.226 167.894 268.475 86.8588C277.482 57.9506 286.192 29.9994 287.953 0.294922H198.585H182.12H92.7524C94.5136 29.9994 103.223 57.9506 112.23 86.8588Z" fill="#8000FF"/>
</svg>
