<svg width="2893" height="2966" viewBox="0 0 2893 2966" fill="none" xmlns="http://www.w3.org/2000/svg">

<style>
.card{
    cursor: pointer
}

.card .card_letter-2{
    opacity:0;
    transition: 0.5s ease-in-out;
}

.flipped .card_letter-2{
    transition: 0.5s ease-in-out;
    opacity:1;
}
.flipped .card_letter-1{
        transition: 0.5s ease-in-out;
    opacity:0;
}

</style>

<g class="card">
<rect width="706.567" height="593.085" fill="#FDB600"/>
<path class="card_letter-1" fill-rule="evenodd" clip-rule="evenodd" d="M490.083 437.613C454.139 409.871 396.852 396 318.223 396H159V593H234.821V454.258H311.484C364.839 454.258 403.872 462.833 428.584 479.983C453.296 497.132 465.652 523.109 465.652 557.913C465.652 570.832 464.153 582.528 461.155 593H539.689C542.563 580.553 544 567.849 544 554.886C544 504.446 526.028 465.355 490.083 437.613Z" fill="white"/>
<path class="card_letter-2" fill-rule="evenodd" clip-rule="evenodd" d="M269.728 401.99C261.088 401.99 246.647 402.484 226.405 403.471C225.293 470.34 224.599 533.595 224.322 593.235H281.254C281.399 521.148 281.877 462.707 282.688 417.912C354.028 421.862 389.699 462.099 389.699 538.624C389.699 559.435 386.887 577.639 381.265 593.235H397.745C402.502 577.276 404.88 559.072 404.88 538.624C404.88 447.535 359.83 401.99 269.728 401.99ZM478.75 593.235C483.565 576.775 485.972 558.818 485.972 539.365C485.972 490.734 470.544 451.731 439.687 422.356C408.83 392.733 364.273 377.922 306.015 377.922C287.995 377.922 262.692 378.292 230.108 379.033C197.523 379.773 168.271 380.144 142.351 380.144C116.678 380.144 92.1162 379.403 68.6651 377.922C66.6903 382.365 66.6903 388.167 68.6651 395.325C79.7735 396.313 88.9071 397.3 96.0659 398.288C103.225 399.275 111.988 401.003 122.356 403.471C132.724 405.94 140.5 409.519 145.684 414.21C151.114 418.653 154.077 424.207 154.57 430.872C156.567 477.804 157.757 531.925 158.138 593.235H142.955C142.572 532.353 141.383 478.479 139.389 431.613C138.895 422.479 111.371 415.197 56.8161 409.766C52.6196 393.474 53.1133 377.552 58.2972 362C84.4637 362.987 112.605 363.605 142.721 363.851C172.838 364.098 207.397 363.975 246.4 363.481C285.65 362.987 314.408 362.741 332.676 362.741C401.054 362.741 453.14 378.786 488.934 410.877C524.728 442.968 542.625 485.797 542.625 539.365C542.625 558.844 540.045 576.801 534.885 593.235H478.75Z" fill="white"/>
</g>

<g class="card">
<rect y="593.087" width="724.371" height="593.085" fill="#FC5812"/>
<path class="card_letter-1" fill-rule="evenodd" clip-rule="evenodd" d="M159.14 593C159.156 599.141 159.163 605.349 159.163 611.624C159.163 705.182 157.682 782.817 154.72 844.531C154.226 853.665 127.196 860.947 73.6285 866.378C67.4572 881.189 67.4572 897.111 73.6285 914.144C153.362 912.169 200.388 911.182 214.706 911.182C234.207 911.182 289.502 912.169 380.592 914.144C386.269 897.605 387.01 882.423 382.813 868.599C380.345 868.105 371.088 866.871 355.042 864.896C339.244 862.675 327.765 860.453 320.606 858.231C313.694 856.01 308.387 853.665 304.684 851.196C301.228 848.727 299.5 846.753 299.5 845.271C298.019 805.775 297.278 751.097 297.278 681.237C311.349 684.446 327.271 686.051 345.045 686.051C408.239 686.051 459.585 670.746 499.082 640.136C516.543 626.687 530.169 610.975 539.958 593H484.593C478.373 605.302 470.489 616.571 460.943 626.806C433.789 656.181 395.156 670.869 345.045 670.869C306.042 670.869 271.112 663.957 240.255 650.133C240.255 710.366 240.996 775.412 242.477 845.271C242.97 864.032 284.195 875.881 366.151 880.818C368.125 888.471 368.125 894.272 366.151 898.222C317.767 896.741 267.286 896 214.706 896C169.531 896 125.962 896.741 83.9964 898.222C82.0216 890.569 82.0216 884.768 83.9964 880.818C140.773 875.388 169.408 863.539 169.902 845.271C172.864 767.759 174.345 689.877 174.345 611.624C174.345 605.348 174.337 599.14 174.322 593H159.14ZM240.298 593C240.269 603.9 240.255 614.675 240.255 625.324C264.694 634.458 289.996 639.025 316.163 639.025C350.969 639.025 377.136 627.793 394.662 605.329C397.649 601.46 400.381 597.35 402.858 593H383.664C370.399 611.199 351.478 621.48 326.901 623.843C316.286 622.856 306.412 620.264 297.278 616.067C297.278 608.241 297.282 600.552 297.288 593H240.298Z" fill="white"/>
<path class="card_letter-2" fill-rule="evenodd" clip-rule="evenodd" d="M143.415 593.235V922.235H222.137V711.594H293.861C340.511 711.594 379.872 707.048 411.944 697.955C444.016 688.358 469.673 675.477 488.916 659.312C508.159 643.148 521.863 624.963 530.026 604.758C531.638 600.943 533.101 597.102 534.415 593.235H451.345C448.86 598.183 445.93 602.781 442.558 607.031C429.729 623.195 410.194 635.066 383.954 642.643C357.713 649.715 324.767 653.251 285.114 653.251H222.137V593.235H143.415Z" fill="white"/>

</g>

<g class="card">
<rect x="0.134766" y="2372.34" width="706.432" height="593.085" fill="#FDB600"/>
<path class="card_letter-1" fill-rule="evenodd" clip-rule="evenodd" d="M224.089 2348L126.726 2592.79C120.061 2609.09 91.3024 2620.19 40.4505 2626.12C34.2791 2640.93 34.526 2656.6 41.1911 2673.14C123.393 2670.18 204.979 2670.18 285.947 2673.14C292.612 2656.6 292.859 2640.93 286.687 2626.12C272.123 2625.62 259.04 2624.76 247.438 2623.53C235.836 2622.29 225.715 2620.69 217.075 2618.71C208.435 2616.74 202.14 2614.15 198.19 2610.94C194.487 2607.48 193.377 2603.65 194.858 2599.46L242.624 2476.89C294.71 2474.18 343.587 2473.69 389.255 2475.41L437.762 2597.98C441.218 2607.11 437.392 2613.78 426.283 2617.97C415.175 2621.92 396.167 2624.64 369.26 2626.12C363.336 2640.44 363.336 2656.11 369.26 2673.14H662.893C669.558 2656.6 669.805 2640.93 663.634 2626.12C638.455 2624.14 620.805 2621.3 610.684 2617.6C600.562 2613.65 593.157 2605.88 588.467 2594.27L489.214 2348H431.17L535.516 2605.75C537.738 2611.92 542.428 2617.11 549.587 2621.3C556.993 2625.25 566.003 2628.46 576.618 2630.93C587.232 2633.4 598.958 2635.38 611.794 2636.86C624.878 2638.09 638.331 2639.08 652.155 2639.82C652.896 2641.55 653.513 2643.15 654.006 2644.63C654.5 2646.11 654.747 2647.59 654.747 2649.08C654.747 2651.54 653.883 2654.51 652.155 2657.96C627.47 2657.22 603.401 2656.6 579.95 2656.11C556.746 2655.62 533.788 2655.37 511.078 2655.37C488.367 2655.37 466.15 2655.62 444.427 2656.11C422.951 2656.6 401.721 2657.22 380.739 2657.96C379.258 2655 378.517 2652.04 378.517 2649.08C378.517 2646.36 379.258 2643.27 380.739 2639.82L420.729 2634.26C430.603 2632.29 438.873 2628.71 445.538 2623.53C452.45 2618.34 455.906 2612.42 455.906 2605.75C455.906 2603.78 455.289 2600.94 454.055 2597.24L400.364 2460.97C392.464 2460.73 382.961 2460.6 371.852 2460.6C360.991 2460.36 348.524 2460.23 334.454 2460.23C328.036 2460.23 316.31 2460.36 299.277 2460.6C282.491 2460.85 260.398 2461.22 232.997 2461.71L178.936 2597.24C177.948 2599.95 177.455 2602.67 177.455 2605.38C177.455 2609.58 178.689 2613.41 181.157 2616.86C183.626 2620.07 188.44 2623.03 195.598 2625.75C202.757 2628.46 212.755 2631.06 225.591 2633.52C238.428 2635.75 255.09 2637.84 275.579 2639.82C277.06 2643.27 277.801 2646.36 277.801 2649.08C277.801 2652.04 277.06 2655 275.579 2657.96C241.019 2656.97 213.619 2656.23 193.377 2655.74C173.381 2655.25 160.545 2655 154.867 2655C148.449 2655 136.6 2655.25 119.32 2655.74C102.287 2656.23 79.7003 2656.97 51.5589 2657.96C50.0778 2655 49.3372 2652.04 49.3372 2649.08C49.3372 2646.36 50.0778 2643.27 51.5589 2639.82C102.411 2633.65 132.774 2618.22 142.648 2593.53L240.306 2348H224.089ZM277.702 2348L245.957 2429.87C269.161 2430.86 298.66 2431.35 334.454 2431.35C357.164 2431.35 375.185 2431.1 388.515 2430.61L356.445 2348H340.245L366.298 2416.17C330.504 2417.16 297.672 2416.91 267.803 2415.43L293.722 2348H277.702Z" fill="white"/>
<path class="card_letter-2" fill-rule="evenodd" clip-rule="evenodd" d="M224.394 2369C223.149 2371.68 221.878 2374.39 220.579 2377.15C208.73 2401.84 195.4 2428.25 180.589 2456.39C166.271 2484.53 152.447 2510.95 139.117 2535.63C126.281 2560.32 114.679 2581.79 104.311 2600.06C93.943 2617.84 87.0311 2629.19 83.5751 2634.13C78.638 2639.56 72.7135 2645.24 65.8016 2651.16C59.8771 2656.59 52.4715 2662.52 43.5847 2668.93C34.698 2674.86 23.8364 2680.78 11 2686.71C31.7357 2684.73 51.2372 2683.25 69.5044 2682.26C87.2779 2680.78 102.83 2679.55 116.16 2678.56C131.959 2677.57 146.029 2676.83 158.372 2676.34C170.715 2675.85 183.304 2675.35 196.141 2674.86C207.002 2674.36 218.851 2674.12 231.688 2674.12C244.524 2674.12 257.114 2674.36 269.456 2674.86C260.076 2665.97 252.917 2658.32 247.98 2651.9C243.537 2644.99 240.081 2639.06 237.612 2634.13C235.144 2628.7 233.416 2624.01 232.428 2620.06C231.934 2616.6 232.428 2612.16 233.909 2606.73C234.897 2602.28 236.625 2597.1 239.093 2591.18C241.562 2584.76 245.265 2577.35 250.202 2568.96L444.97 2548.96C446.944 2570.19 448.179 2587.47 448.672 2600.8C449.166 2613.64 449.166 2624.01 448.672 2631.91C448.179 2640.79 447.438 2647.46 446.451 2651.9C444.97 2655.85 442.254 2660.29 438.304 2665.23C434.849 2669.18 429.911 2674.12 423.493 2680.04C417.569 2685.47 409.669 2691.64 399.795 2698.56C418.556 2697.57 434.849 2696.58 448.672 2695.59C462.99 2694.61 474.592 2693.62 483.479 2692.63C493.847 2691.64 502.733 2691.15 510.139 2691.15C517.545 2690.66 526.431 2690.16 536.799 2689.67C545.686 2689.18 557.041 2688.93 570.865 2688.93C584.689 2688.44 601.228 2687.7 620.483 2686.71C610.115 2682.76 601.475 2679.3 594.563 2676.34C588.145 2673.38 582.961 2670.91 579.011 2668.93C574.568 2666.96 571.359 2665.48 569.384 2664.49C564.447 2662.02 560.991 2659.31 559.016 2656.34C557.041 2652.89 552.351 2645.98 544.945 2635.61C542.477 2632.15 538.527 2621.29 533.096 2603.02C528.159 2584.26 522.482 2561.8 516.064 2535.63C509.645 2508.97 503.227 2480.58 496.809 2450.47C490.745 2421.55 485.122 2394.39 479.94 2369H413.061C414.757 2378.2 416.259 2385.85 417.569 2391.96C418.556 2399.37 420.037 2408.01 422.012 2417.88C423.493 2426.28 425.468 2436.89 427.937 2449.73C430.405 2462.07 433.121 2476.88 436.083 2494.16L282.046 2507.49C283.033 2504.53 287.723 2494.66 296.117 2477.87C303.028 2463.55 314.137 2441.09 329.442 2410.48C335.518 2398.51 342.508 2384.69 350.411 2369H224.394Z" fill="white"/>
</g>

<g class="card">
<rect y="1186.17" width="706.566" height="396.658" fill="#8000FF"/>
<path class="card_letter-1" fill-rule="evenodd" clip-rule="evenodd" d="M516.594 1580.1C520.51 1500.97 495.962 1423.78 451.195 1360.08C419.524 1315.21 377.297 1278.26 326.272 1251.87C320.113 1241.31 307.797 1236.03 298.12 1238.67C245.335 1272.98 200.469 1315.21 164.399 1363.6C120.412 1423.42 87.8618 1492.04 72.9062 1561.54C71.5242 1567.69 70.3396 1573.89 69.3574 1580.1H102.194C104.167 1569.8 106.515 1559.51 108.976 1549.22C123.931 1489.4 149.444 1433.1 186.393 1383.83C218.064 1341.6 255.892 1303.77 300.759 1271.22C350.025 1290.58 391.372 1328.41 422.163 1371.51C453.834 1416.38 477.587 1470.92 485.505 1524.59C488.081 1542.91 488.608 1561.69 487.389 1580.1H516.594Z" fill="white"/>
<path class="card_letter-2" fill-rule="evenodd" clip-rule="evenodd" d="M545.444 1584.56C545.492 1582.37 545.539 1580.18 545.582 1577.99C546.527 1546.56 547 1515.53 547 1484.89C547 1454.26 546.527 1423.4 545.582 1392.31C544.637 1361.22 543.535 1329.34 542.274 1296.65C540.384 1265 520.222 1242.33 481.787 1228.67C443.667 1214.89 380.975 1208 293.709 1208C205.183 1208 141.86 1214.89 103.74 1228.67C65.9358 1242.33 46.2459 1265 44.6707 1296.65C42.7805 1331.16 41.3628 1363.61 40.4177 1394.02C39.4726 1424.31 39 1454.2 39 1483.7C39 1513.08 39.4726 1543.37 40.4177 1574.57C40.5181 1577.87 40.6238 1581.2 40.7348 1584.56H65.6467C65.5837 1582.65 65.5225 1580.74 65.4633 1578.84C64.5181 1548.55 64.0456 1518.66 64.0456 1489.16C64.0456 1459.67 64.5181 1429.26 65.4633 1397.95C66.4084 1366.63 67.826 1332.92 69.7163 1296.82C71.2915 1268.24 88.6186 1247.57 121.698 1234.82C155.092 1221.95 212.429 1215.52 293.709 1215.52C371.838 1215.52 428.23 1221.78 462.885 1234.31C497.539 1246.72 515.654 1267.61 517.229 1297C518.804 1331.16 519.907 1364.01 520.537 1395.56C521.482 1426.99 521.954 1457.85 521.954 1488.14C521.954 1518.43 521.482 1548.95 520.537 1579.7C520.487 1581.32 520.437 1582.94 520.386 1584.56H545.444ZM90.8462 1584.56C90.7278 1580.97 90.6153 1577.42 90.5088 1573.89C89.5637 1542.46 89.0912 1512.05 89.0912 1482.67C89.0912 1453.18 89.5637 1423.34 90.5088 1393.16C91.454 1362.99 92.8716 1330.99 94.7619 1297.17C96.022 1270.29 111.616 1251.27 141.545 1240.11C171.789 1228.84 222.51 1223.2 293.709 1223.2C364.593 1223.2 414.999 1228.95 444.927 1240.46C474.856 1251.84 490.608 1270.75 492.183 1297.17C493.758 1334.63 494.861 1369.14 495.491 1400.68C496.436 1432.11 496.909 1462.35 496.909 1491.38C496.909 1520.42 496.436 1549.8 495.491 1579.53C495.438 1581.2 495.384 1582.88 495.33 1584.56H470.143C470.254 1579.91 470.354 1575.33 470.446 1570.81C471.391 1539.61 471.863 1509.78 471.863 1481.31C471.863 1452.72 471.391 1423.63 470.446 1394.02C469.5 1364.41 468.398 1332.24 467.138 1297.51C465.878 1274.05 452.803 1257.08 427.915 1246.6C403.027 1236.01 358.292 1230.72 293.709 1230.72C230.386 1230.72 185.808 1235.79 159.975 1245.92C134.457 1256.06 121.068 1273.14 119.807 1297.17C117.917 1331.22 116.5 1363.5 115.554 1394.02C114.609 1424.54 114.137 1454.6 114.137 1484.21C114.137 1513.82 114.609 1544.22 115.554 1575.43C115.646 1578.45 115.743 1581.5 115.844 1584.56H90.8462ZM140.902 1584.56C140.394 1569.87 139.978 1555.67 139.655 1541.95C139.025 1501.86 139.182 1462.35 140.127 1423.4C141.073 1384.34 142.648 1342.32 144.853 1297.34C145.798 1275.81 157.14 1260.61 178.877 1251.73C200.93 1242.85 239.207 1238.41 293.709 1238.41C349.156 1238.41 387.433 1243.02 408.54 1252.24C429.963 1261.47 441.147 1276.61 442.092 1297.68C443.667 1336.85 444.77 1372.1 445.4 1403.41C446.345 1434.73 446.818 1464.4 446.818 1492.41C446.818 1520.42 446.345 1549.01 445.4 1578.16C445.331 1580.28 445.262 1582.41 445.191 1584.56H420.087C420.184 1580.55 420.273 1576.59 420.354 1572.69C421.3 1542.52 421.772 1513.48 421.772 1485.58C421.772 1457.68 421.3 1428.69 420.354 1398.63C419.724 1368.57 418.622 1335.03 417.047 1298.02C416.101 1279.57 407.123 1266.31 390.111 1258.22C373.414 1250.02 341.28 1245.92 293.709 1245.92C248.343 1245.92 216.524 1249.74 198.252 1257.37C180.295 1265 170.844 1278.38 169.899 1297.51C167.693 1343.17 166.118 1385.76 165.173 1425.28C164.228 1464.79 164.07 1504.48 164.7 1544.34C165.009 1557.37 165.403 1570.78 165.88 1584.56H140.902Z" fill="white"/>
</g>

<g class="card">
  <rect x="0.0507812" y="1582.83" width="724.371" height="789.512" fill="#097441"/>

    <g class="card_letter-1">
    <path fill-rule="evenodd" clip-rule="evenodd" d="M69 1580.1C72.7427 1656.63 91.5423 1713.43 125.399 1750.49C163.978 1791.57 221.589 1812.11 298.232 1812.11C373.332 1812.11 428.628 1788.05 464.121 1739.92C494.467 1699.36 512.026 1646.09 516.796 1580.1H370.247C368.667 1620.5 363.437 1650.59 354.557 1670.38C348.899 1684.46 341.183 1694.44 331.41 1700.31C321.636 1705.59 309.548 1708.23 295.146 1708.23C279.714 1708.23 266.854 1704.71 256.567 1697.67C246.279 1690.04 238.306 1677.71 232.648 1660.69C226.045 1642.33 222.09 1615.46 220.785 1580.1H69Z" fill="white"/>
    <path fill-rule="evenodd" clip-rule="evenodd" d="M159 2373.2H268.257C268.361 2372.89 268.467 2372.56 268.575 2372.24C273.018 2359.65 278.079 2346.45 283.756 2332.62C289.681 2318.8 295.729 2304.97 301.9 2291.15C308.071 2277.33 313.008 2264.86 316.711 2253.75C319.92 2264.86 324.611 2277.33 330.782 2291.15C336.953 2304.97 343.001 2318.8 348.926 2332.62C354.85 2346.45 360.034 2359.65 364.478 2372.24C364.591 2372.56 364.704 2372.89 364.814 2373.2H512.423C509.159 2367.77 506.005 2361.9 502.963 2355.58C496.545 2342 490.62 2327.19 485.189 2311.15C480.005 2294.85 475.562 2278.56 471.859 2262.27C468.156 2245.73 465.194 2229.81 462.972 2214.5C460.998 2199.2 460.01 2185.87 460.01 2174.51C460.01 2169.57 460.257 2165.13 460.751 2161.18C461.491 2156.99 461.862 2153.53 461.862 2150.81V2147.48V2146C455.443 2148.22 447.421 2150.2 437.793 2151.92C428.166 2153.41 417.798 2154.76 406.69 2156C395.581 2156.99 384.102 2157.73 372.253 2158.22C360.404 2158.71 348.802 2158.96 337.447 2158.96C324.364 2158.96 311.774 2158.71 299.678 2158.22C287.582 2157.73 276.227 2156.99 265.612 2156C254.998 2154.76 245.37 2153.41 236.731 2151.92C228.338 2150.2 221.302 2148.22 215.625 2146C215.625 2147.97 215.501 2149.46 215.254 2150.44V2153.78C215.254 2156.49 215.501 2159.82 215.995 2163.77C216.489 2167.72 216.735 2171.8 216.735 2175.99C216.735 2188.09 215.501 2201.91 213.033 2217.46C210.564 2233.02 207.108 2249.06 202.665 2265.6C198.221 2281.89 193.037 2298.06 187.113 2314.11C181.188 2330.15 174.77 2344.72 167.858 2357.8C164.949 2363.31 161.996 2368.44 159 2373.2Z" fill="white"/>
    </g>

    <g class="card_letter-2">
    <path fill-rule="evenodd" clip-rule="evenodd" d="M41 1584.56C48.3537 1624.61 69.0675 1656.61 103.141 1680.55C146.593 1710.85 210.046 1726 293.5 1726C376.954 1726 440.407 1710.85 483.859 1680.55C517.933 1656.61 538.646 1624.61 546 1584.56H458.63C452.839 1609.57 439.868 1629.94 419.716 1645.69C391.438 1667.56 349.366 1678.5 293.5 1678.5C237.979 1678.5 196.079 1667.56 167.801 1645.69C147.649 1629.94 134.678 1609.57 128.887 1584.56H41Z" fill="white"/>
    <path fill-rule="evenodd" clip-rule="evenodd" d="M427.132 2369C423.209 2351.5 419.841 2333.3 417.029 2314.39C411.691 2278.51 407.354 2243.14 404.017 2208.27C401.348 2173.4 398.346 2141.56 395.009 2112.75C387.002 2141.05 375.993 2170.11 361.98 2199.93C347.968 2229.74 333.622 2257.29 318.942 2282.56C304.929 2307.32 293.252 2326.52 283.911 2340.17C277.707 2349.78 271.265 2359.39 264.585 2369H230.846C239.837 2355.35 248.517 2341.69 256.887 2328.04C260.223 2322.48 266.228 2311.87 274.903 2296.2C283.577 2280.53 293.252 2262.09 303.928 2240.86C314.605 2219.64 324.614 2197.15 333.955 2173.4C343.964 2149.14 352.305 2125.64 358.977 2102.9C365.65 2080.15 368.986 2059.94 368.986 2042.25C368.986 2025.07 364.983 2011.68 356.976 2002.07C349.636 1992.47 336.291 1987.67 316.94 1987.67H315.939C310.601 1987.67 307.932 1986.41 307.932 1983.88C307.932 1981.35 311.268 1979.59 317.941 1978.57C349.969 1976.05 372.323 1981.86 385.001 1996.01C397.678 2010.16 404.017 2028.86 404.017 2052.11C404.017 2056.15 403.684 2060.44 403.017 2064.99C403.017 2069.54 402.683 2074.34 402.016 2079.4C406.019 2081.92 408.688 2086.22 410.023 2092.28C414.026 2108.46 418.03 2129.68 422.033 2155.96C426.704 2182.24 432.042 2211.05 438.048 2242.38C444.053 2273.71 451.059 2305.55 459.066 2337.89C461.944 2348.46 464.969 2358.83 468.141 2369H427.132Z" fill="white"/>
    </g>
</g>

<g class="card">
<rect x="706.568" y="233.299" width="998.339" height="363.944" fill="#097441"/>
<rect x="706.568" y="0.250488" width="998.339" height="233.049" fill="#FC5812"/>
<path class="card_letter-1" fill-rule="evenodd" clip-rule="evenodd" d="M1230.56 275.061C1229.46 273.581 1229.18 271.361 1229.73 268.401C1226.97 269.881 1224.77 269.881 1223.11 268.401C1221.45 266.921 1219.52 265.44 1217.32 263.96C1215.66 263.96 1213.45 263.714 1210.69 263.22C1208.49 262.727 1207.11 262.974 1206.55 263.96L1201.59 262.48C1199.93 261.987 1198 261.493 1195.79 261C1193.58 261 1191.38 261.247 1189.17 261.74C1186.96 262.233 1184.48 262.48 1181.72 262.48C1179.51 262.48 1177.03 262.233 1174.27 261.74C1171.51 260.753 1166.82 261.493 1160.2 263.96C1155.23 265.44 1150.26 265.687 1145.29 264.7C1140.33 263.714 1135.08 263.467 1129.57 263.96C1128.46 263.96 1127.36 264.454 1126.25 265.44C1125.7 265.934 1122.67 265.934 1117.15 265.44C1114.39 265.44 1111.63 265.934 1108.87 266.921C1106.11 267.907 1103.35 268.401 1100.59 268.401C1098.38 268.401 1096.45 267.907 1094.8 266.921C1093.14 265.934 1091.49 265.44 1089.83 265.44C1088.73 265.44 1087.62 265.687 1086.52 266.181C1085.42 266.674 1081.83 266.427 1075.76 265.44C1073 265.44 1070.24 265.934 1067.48 266.921C1065.27 267.414 1062.79 267.414 1060.03 266.921C1057.82 266.427 1056.17 265.934 1055.06 265.44C1054.51 264.454 1053.13 263.96 1050.92 263.96C1048.16 264.454 1045.68 265.194 1043.47 266.181C1041.82 266.674 1039.61 267.414 1036.85 268.401C1031.88 269.388 1026.64 269.881 1021.12 269.881C1015.6 269.388 1010.08 269.634 1004.56 270.621C1002.91 271.114 1001.25 271.854 999.598 272.841C998.494 273.335 997.114 273.581 995.459 273.581C993.803 273.581 992.147 273.335 990.492 272.841C989.388 272.348 988.008 272.101 986.353 272.101C984.697 272.101 983.041 272.348 981.386 272.841C980.282 273.335 978.902 273.581 977.247 273.581C973.383 273.581 969.52 273.088 965.657 272.101C962.346 271.114 959.035 271.114 955.723 272.101C951.308 273.581 948.273 276.048 946.617 279.502C946.065 287.396 949.101 292.33 955.723 294.303C962.898 295.784 971.176 296.277 980.558 295.784C990.492 294.797 1000.15 293.563 1009.53 292.083C1018.91 290.603 1025.54 290.356 1029.4 291.343C1026.64 296.77 1024.71 302.938 1023.6 309.845C1021.4 310.832 1019.74 312.559 1018.64 315.026C1018.09 317.493 1016.43 319.219 1013.67 320.206V326.867C1013.67 328.84 1012.29 332.294 1009.53 337.228C1008.43 339.695 1008.15 342.655 1008.7 346.109C1009.26 349.563 1008.43 354.743 1006.22 361.65C1006.22 364.117 1005.67 366.091 1004.56 367.571C1003.46 369.051 1002.63 370.778 1002.08 372.752C1001.53 373.738 1001.25 374.725 1001.25 375.712C1001.81 376.699 1000.98 378.919 998.77 382.373C998.218 383.853 998.218 385.333 998.77 386.813C999.322 388.293 999.322 389.527 998.77 390.513C998.218 392.98 997.39 394.954 996.287 396.434C995.735 397.914 994.907 399.641 993.803 401.615L990.492 413.456C989.94 417.403 989.112 421.35 988.008 425.297L986.353 431.218C985.801 432.698 985.249 434.425 984.697 436.398C984.145 438.372 983.869 440.345 983.869 442.319C984.421 444.292 984.145 446.513 983.041 448.979C979.73 452.927 978.075 456.627 978.075 460.081C978.626 463.534 978.35 467.481 977.247 471.922C973.935 475.869 971.452 480.803 969.796 486.723C968.693 492.151 965.933 497.331 961.518 502.265C960.414 504.732 959.862 506.952 959.862 508.926C959.862 510.899 959.311 512.873 958.207 514.846C957.103 518.793 955.447 522.247 953.24 525.207C951.584 528.168 950.204 531.621 949.101 535.569C947.997 537.542 947.445 539.516 947.445 541.489C947.445 543.463 947.169 545.683 946.617 548.15C945.513 550.123 944.41 551.85 943.306 553.33C942.754 554.811 942.202 556.784 941.65 559.251C939.443 566.652 937.511 574.052 935.856 581.453C934.601 587.06 932.08 592.243 928.291 597H958.249C958.437 595.452 959.251 594.464 960.69 594.035C962.346 593.541 963.726 592.801 964.829 591.814C963.174 589.347 962.898 586.387 964.002 582.933C965.657 579.48 967.865 577.013 970.624 575.533C970.072 574.546 969.796 572.572 969.796 569.612C970.348 566.652 970.9 563.445 971.452 559.991C972.556 556.537 973.659 553.33 974.763 550.37C975.867 546.916 977.523 543.709 979.73 540.749C982.49 537.295 983.869 533.102 983.869 528.168C984.421 523.234 986.905 518.793 991.32 514.846C990.768 510.899 991.044 507.199 992.147 503.745C993.251 499.798 994.631 496.098 996.287 492.644C997.942 489.19 999.322 485.737 1000.43 482.283C1002.08 478.336 1002.91 474.389 1002.91 470.442C1003.46 466.001 1005.39 461.314 1008.7 456.38C1012.57 451.446 1013.39 445.773 1011.19 439.359C1011.74 437.878 1012.29 436.645 1012.84 435.658C1013.95 434.671 1014.77 433.438 1015.33 431.958C1015.88 430.971 1015.88 430.231 1015.33 429.738C1015.33 428.751 1016.43 426.777 1018.64 423.817C1019.19 422.83 1019.74 420.61 1020.29 417.156C1021.4 413.703 1021.4 410.002 1020.29 406.055C1020.29 404.082 1021.12 401.861 1022.78 399.394C1024.43 396.434 1025.54 393.967 1026.09 391.994C1028.3 387.553 1029.95 382.866 1031.06 377.932L1034.37 363.131C1034.92 360.664 1035.47 358.443 1036.02 356.47C1036.57 354.003 1037.95 352.029 1040.16 350.549C1039.06 346.602 1039.06 343.149 1040.16 340.188C1041.82 337.228 1043.47 333.774 1045.13 329.827C1045.68 328.84 1045.96 327.607 1045.96 326.127C1046.51 324.153 1048.16 321.933 1050.92 319.466C1052.03 317.493 1052.58 315.519 1052.58 313.545C1053.13 311.572 1054.79 310.338 1057.55 309.845C1055.34 305.898 1054.79 302.444 1055.89 299.484C1057.55 296.03 1059.48 292.823 1061.68 289.863C1064.44 290.85 1067.2 291.59 1069.96 292.083C1073.27 292.577 1076.31 292.823 1079.07 292.823C1080.17 296.277 1079.9 299.484 1078.24 302.444C1077.14 305.405 1076.31 308.612 1075.76 312.065C1074.65 317.493 1074.1 323.166 1074.1 329.087C1074.1 334.514 1073.55 339.942 1072.45 345.369C1072.45 346.356 1071.89 347.589 1070.79 349.069C1070.24 350.056 1070.24 351.536 1070.79 353.51C1070.24 355.977 1069.41 358.443 1068.31 360.91C1067.2 362.884 1066.1 365.104 1065 367.571C1061.68 378.426 1059.75 389.527 1059.2 400.875C1058.65 412.222 1055.34 423.077 1049.27 433.438C1050.37 439.359 1050.37 443.059 1049.27 444.539C1048.72 445.526 1047.89 447.746 1046.78 451.2C1045.68 454.16 1045.4 455.887 1045.96 456.38C1047.06 456.874 1046.23 458.847 1043.47 462.301C1042.37 464.768 1041.82 467.728 1041.82 471.182C1041.82 474.142 1040.16 476.362 1036.85 477.843C1038.51 479.816 1038.78 481.79 1037.68 483.763C1036.57 485.243 1036.02 486.97 1036.02 488.944C1035.47 489.93 1035.19 491.164 1035.19 492.644C1035.75 493.631 1034.92 496.098 1032.71 500.045C1031.61 502.512 1031.06 504.979 1031.06 507.446C1031.61 509.913 1031.61 512.379 1031.06 514.846C1029.95 521.26 1028.57 527.674 1026.92 534.088L1023.6 553.33L1021.95 557.771C1021.4 559.251 1020.85 560.484 1020.29 561.471C1019.74 563.938 1019.19 567.885 1018.64 573.312C1018.09 578.246 1017.53 581.207 1016.98 582.193L1015.33 591.074C1015.33 592.061 1014.77 593.048 1013.67 594.035C1013.34 594.327 1013.21 595.316 1013.27 597H1247.14C1247.27 595.39 1247.81 594.155 1248.77 593.294C1250.43 592.308 1251.26 591.074 1251.26 589.594C1251.81 588.114 1251.26 586.387 1249.6 584.414C1248.5 581.947 1249.05 580.466 1251.26 579.973L1243.81 575.533C1242.15 574.546 1240.77 573.559 1239.67 572.572C1239.11 571.586 1238.84 570.105 1238.84 568.132V557.771C1237.73 554.811 1236.08 550.863 1233.87 545.93C1232.22 540.502 1231.39 536.062 1231.39 532.608C1234.15 530.141 1234.42 528.414 1232.22 527.428C1230.56 526.441 1230.28 524.221 1231.39 520.767C1231.39 519.78 1230.28 516.82 1228.08 511.886C1225.87 506.952 1224.49 503.745 1223.94 502.265C1222.83 499.798 1222.01 496.591 1221.45 492.644C1220.9 488.204 1218.97 484.503 1215.66 481.543C1215.11 480.556 1214.83 479.569 1214.83 478.583C1215.38 477.102 1214.28 474.142 1211.52 469.702C1210.97 468.221 1210.97 466.741 1211.52 465.261C1212.07 463.781 1212.07 462.301 1211.52 460.821C1210.42 459.341 1209.04 458.107 1207.38 457.12C1206.28 456.134 1205.45 454.653 1204.9 452.68C1204.35 442.812 1202.41 433.191 1199.1 423.817C1195.79 413.949 1192.76 404.328 1190 394.954C1189.45 393.474 1189.17 391.994 1189.17 390.513C1189.17 389.033 1187.79 386.32 1185.03 382.373C1183.37 378.426 1181.99 374.478 1180.89 370.531C1179.79 366.091 1178.68 361.897 1177.58 357.95C1175.92 352.029 1173.72 346.109 1170.96 340.188C1168.2 334.268 1166.82 328.1 1166.82 321.686C1165.16 321.193 1163.51 319.713 1161.85 317.246L1158.54 308.365C1157.99 304.911 1157.44 301.704 1156.88 298.744C1156.88 295.29 1157.16 292.823 1157.71 291.343C1180.34 288.383 1205.45 284.682 1233.04 280.242C1232.49 277.775 1231.66 276.048 1230.56 275.061ZM1196.62 505.225C1196.62 506.705 1198 508.926 1200.76 511.886L1201.59 517.807C1202.14 517.807 1202.97 519.04 1204.07 521.507C1205.17 525.948 1205.45 530.388 1204.9 534.828C1204.9 539.269 1205.45 543.709 1206.55 548.15C1207.66 552.59 1209.04 557.031 1210.69 561.471C1212.9 565.418 1213.73 569.612 1213.18 574.052C1207.66 574.052 1202.41 574.546 1197.45 575.533C1192.48 576.519 1187.24 577.013 1181.72 577.013C1179.51 577.013 1177.58 576.766 1175.92 576.273C1174.27 575.286 1172.34 574.546 1170.13 574.052C1168.47 574.052 1166.82 574.299 1165.16 574.793C1163.51 575.286 1161.85 575.533 1160.2 575.533C1159.09 575.533 1157.71 575.286 1156.06 574.793C1154.4 574.299 1152.75 574.052 1151.09 574.052C1143.36 574.052 1135.36 574.299 1127.08 574.793C1118.8 574.793 1110.8 573.559 1103.08 571.092C1101.97 572.079 1099.21 573.806 1094.8 576.273C1090.93 578.246 1088.17 579.726 1086.52 580.713C1085.42 581.7 1081.83 582.687 1075.76 583.673C1069.69 584.167 1065.55 584.66 1063.34 585.154C1060.58 585.647 1057.55 586.387 1054.23 587.374C1051.47 588.361 1048.99 587.621 1046.78 585.154C1045.13 581.207 1044.85 577.26 1045.96 573.312C1047.61 569.365 1048.72 565.418 1049.27 561.471C1050.37 557.524 1050.65 553.824 1050.1 550.37C1049.54 546.423 1049.82 542.476 1050.92 538.529C1051.47 537.049 1052.03 535.815 1052.58 534.828C1053.13 533.842 1054.79 530.388 1057.55 524.467C1059.75 519.534 1060.3 514.353 1059.2 508.926C1058.65 503.499 1060.58 498.565 1065 494.124C1064.44 492.151 1063.89 490.671 1063.34 489.684C1062.79 488.697 1062.79 486.97 1063.34 484.503C1065 482.53 1066.38 479.569 1067.48 475.622C1069.14 471.182 1070.79 466.495 1072.45 461.561C1074.1 456.627 1075.48 451.94 1076.59 447.499L1079.07 436.398C1079.62 433.931 1079.62 431.464 1079.07 428.997C1079.07 426.037 1079.62 423.324 1080.72 420.857C1081.28 418.39 1082.1 415.923 1083.21 413.456L1086.52 404.575C1087.62 400.134 1088.17 395.694 1088.17 391.254C1088.17 386.813 1088.73 382.619 1089.83 378.672C1090.93 371.271 1092.59 364.117 1094.8 357.21C1097.56 350.303 1099.49 343.149 1100.59 335.748C1101.14 331.801 1101.42 327.607 1101.42 323.166C1101.42 318.726 1101.97 314.532 1103.08 310.585L1108.04 301.704C1111.35 296.77 1114.39 294.303 1117.15 294.303C1120.46 293.317 1122.12 294.057 1122.12 296.524C1122.12 298.497 1123.22 299.977 1125.43 300.964C1125.43 302.938 1125.98 304.418 1127.08 305.405C1128.74 305.898 1130.12 306.885 1131.22 308.365C1132.88 312.312 1133.98 316.506 1134.53 320.946C1135.64 324.893 1137.02 328.84 1138.67 332.787L1140.33 335.748C1140.88 336.735 1141.98 339.942 1143.64 345.369C1144.74 347.342 1145.85 349.069 1146.95 350.549C1148.05 351.536 1148.88 353.016 1149.43 354.99C1151.64 360.417 1153.02 365.844 1153.57 371.271C1154.12 376.205 1155.5 381.386 1157.71 386.813L1159.37 391.254C1160.47 392.24 1161.3 393.474 1161.85 394.954C1162.95 397.421 1163.23 400.134 1162.68 403.095C1162.68 406.055 1162.95 408.769 1163.51 411.236C1164.61 416.169 1166.27 420.857 1168.47 425.297C1171.23 429.738 1173.16 434.425 1174.27 439.359C1174.82 440.345 1175.1 441.579 1175.1 443.059C1175.1 444.539 1175.37 446.019 1175.92 447.499C1178.68 456.38 1181.99 465.261 1185.86 474.142C1189.72 483.023 1193.03 491.904 1195.79 500.785C1196.34 502.265 1196.62 503.745 1196.62 505.225Z" fill="white"/>
<path class="card_letter-2" fill-rule="evenodd" clip-rule="evenodd" d="M920.122 573.321H1257.51C1228.03 450.16 1198.89 349.058 1170.08 270.018L1149.62 258.325C1139.01 258.108 1123.09 258 1101.87 258C1072.42 258 1037.13 259.408 995.986 262.223C955.061 264.821 918.899 269.152 887.5 275.215C884.469 287.774 882.953 300.658 882.953 313.867C882.953 331.19 885.443 346.673 890.424 360.315L968.702 368.76C951.278 443.376 935.085 511.563 920.122 573.321ZM1073.62 371.683H1088.56L1122.99 531.813H1050.23L1073.62 371.683Z" fill="white"/>
</g>

<g class="card">
<rect x="706.568" y="597.243" width="998.339" height="593.085" fill="#8000FF"/>
<path class="card_letter-1" fill-rule="evenodd" clip-rule="evenodd" d="M924.159 597L844 803H913.009L977.467 635.408H1192.08L1257.29 803H1327.82L1247.95 597H924.159Z" fill="white"/>
<path class="card_letter-2" fill-rule="evenodd" clip-rule="evenodd" d="M920.885 573.321C920.074 574.963 919.266 576.6 918.463 578.231C905.774 603.99 894.353 626.64 884.202 646.181C874.685 665.722 868.023 679.268 864.217 686.818C859.775 694.368 855.652 701.252 851.845 707.469C848.038 713.687 843.914 718.794 839.473 722.791C830.591 730.341 820.756 735.449 809.971 738.113C799.819 741.222 786.496 742.777 770 742.777V765.427H974.612V742.777C928.297 742.777 902.284 738.557 896.574 730.119C893.402 727.899 891.816 724.124 891.816 718.794C891.816 715.685 892.133 712.355 892.767 708.802C894.036 704.805 896.257 700.585 899.429 696.144C907.042 679.712 914.656 663.502 922.269 647.513C930.517 631.525 938.448 615.537 946.061 599.549H1206.82C1213.8 613.76 1221.1 627.972 1228.71 642.184C1236.33 656.396 1243.62 670.83 1250.6 685.485C1253.14 689.482 1255.36 693.48 1257.26 697.477L1264.88 708.135L1268.68 716.13C1269.95 718.35 1270.59 720.571 1270.59 722.791C1270.59 725.012 1270.27 726.344 1269.63 726.788C1266.46 732.118 1258.21 736.115 1244.89 738.779C1232.2 741.444 1211.58 742.777 1183.03 742.777V765.427H1420V742.777C1392.08 742.777 1371.46 739.446 1358.14 732.784C1346.72 726.122 1336.89 715.241 1328.64 700.141C1305.23 657.532 1282.05 615.259 1259.12 573.321H920.885Z" fill="white"/>
</g>

<g class="card">
<rect x="706.568" y="2372.34" width="589.313" height="593.085" fill="#8000FF"/>
<path class="card_letter-1" fill-rule="evenodd" clip-rule="evenodd" d="M941.669 2371C942.353 2376.93 942.695 2382.92 942.695 2388.99C942.695 2396.64 942.078 2404.17 940.843 2411.58C939.609 2418.74 938.251 2425.15 936.77 2430.83C945.41 2430.34 953.927 2429.84 962.32 2429.35C970.713 2428.86 979.723 2428.61 989.35 2428.61C1001.2 2428.61 1012.18 2430.09 1022.31 2433.05C1032.43 2436.02 1041.19 2440.46 1048.6 2446.38C1056 2452.31 1061.8 2459.84 1066 2468.97C1070.19 2478.1 1072.29 2488.84 1072.29 2501.18C1072.29 2510.81 1070.44 2519.95 1066.74 2528.59C1063.04 2536.98 1057.73 2544.38 1050.82 2550.8C1044.15 2557.22 1035.88 2562.28 1026.01 2565.98C1016.13 2569.69 1005.15 2571.54 993.053 2571.54C965.652 2571.54 944.793 2562.4 930.476 2544.14C916.405 2525.87 909.37 2497.98 909.37 2460.45C904.432 2461.44 898.878 2462.31 892.707 2463.05C886.535 2463.54 879.87 2464.03 872.712 2464.53C865.8 2465.02 858.641 2465.39 851.235 2465.64C843.83 2465.88 836.671 2466.01 829.759 2466.01C816.429 2466.01 803.222 2465.64 790.139 2464.9C777.303 2463.91 764.59 2462.43 752 2460.45C753.975 2469.83 755.456 2480.94 756.443 2493.78C757.431 2506.37 757.924 2520.56 757.924 2536.36C757.924 2540.8 757.801 2545.99 757.554 2551.91C757.554 2557.59 757.307 2563.27 756.814 2568.95C756.567 2574.38 755.95 2579.44 754.962 2584.13C754.222 2588.57 753.234 2591.9 752 2594.13C771.008 2594.13 788.164 2596.47 803.469 2601.16C818.774 2605.6 832.104 2611.03 843.459 2617.45C855.062 2623.87 864.812 2630.78 872.712 2638.19C880.858 2645.35 887.153 2651.52 891.596 2656.7C895.546 2654.73 901.84 2653 910.48 2651.52C919.12 2649.79 928.994 2648.43 940.103 2647.45C951.458 2646.21 963.431 2645.35 976.02 2644.85C988.61 2644.11 1000.83 2643.74 1012.68 2643.74C1023.29 2643.74 1034.03 2644.11 1044.89 2644.85C1056 2645.59 1066.37 2646.58 1076 2647.82C1085.62 2648.8 1094.02 2650.16 1101.18 2651.89C1108.58 2653.37 1114.01 2654.97 1117.47 2656.7C1120.43 2650.53 1124.87 2644.11 1130.8 2637.45C1136.72 2630.54 1143.39 2623.87 1150.79 2617.45C1158.45 2611.03 1166.59 2604.99 1175.23 2599.31C1184.12 2593.38 1192.88 2588.32 1201.52 2584.13C1210.41 2579.68 1218.92 2576.23 1227.07 2573.76C1235.46 2571.04 1242.99 2569.69 1249.66 2569.69C1247.44 2565.24 1245.58 2560.55 1244.1 2555.62C1242.87 2550.43 1241.88 2544.88 1241.14 2538.95C1240.4 2533.03 1239.91 2526.61 1239.66 2519.7V2495.63C1239.66 2488.97 1239.78 2481.68 1240.03 2473.78C1240.52 2465.64 1241.14 2457.86 1241.88 2450.46C1242.87 2442.8 1243.98 2436.02 1245.21 2430.09C1246.45 2423.92 1247.93 2419.48 1249.66 2416.76C1244.47 2416.76 1237.69 2415.9 1229.29 2414.17C1220.9 2412.19 1212.14 2409.35 1203 2405.65C1194.12 2401.95 1185.35 2397.51 1176.71 2392.32C1168.07 2386.89 1160.91 2380.72 1155.24 2373.81C1156.11 2372.86 1157 2371.92 1157.89 2371H941.669Z" fill="white"/>
<path class="card_letter-2" fill-rule="evenodd" clip-rule="evenodd" d="M1004.65 2372C1017.72 2376.01 1030.08 2382.13 1041.72 2390.35C1064.43 2406.4 1075.79 2432.32 1075.79 2468.11C1075.79 2501.93 1067.27 2528.96 1050.24 2549.2C1033.2 2569.45 1004.32 2579.57 963.591 2579.57C942.855 2579.57 922.984 2574.51 903.976 2564.38C885.215 2554.02 869.416 2540.81 856.58 2524.76C844.978 2510.2 834.98 2507.98 826.587 2518.1L807.333 2541.43C801.408 2548.59 803.383 2557.84 813.257 2569.2C826.093 2583.76 844.731 2598.45 869.169 2613.26C893.608 2627.83 924.588 2635.11 962.11 2635.11C1026.79 2635.11 1073.93 2620.42 1103.56 2591.04C1133.43 2561.42 1148.36 2520.94 1148.36 2469.59C1148.36 2435.03 1136.27 2405.29 1112.07 2380.35C1109.23 2377.42 1106.37 2374.64 1103.49 2372H1004.65Z" fill="white"/>
</g>

<g class="card">
<rect x="707" y="1186" width="2187" height="310" fill="#097441"/>
    <g class="card_letter-1">
    <path fill-rule="evenodd" clip-rule="evenodd" d="M800.068 1498.46H1041.34V1239.93C1053.56 1237.82 1066.67 1236.77 1080.67 1236.77C1152.21 1236.77 1211.02 1261.21 1257.1 1310.08C1302.67 1358.69 1325.45 1419.66 1325.45 1492.97C1325.45 1494.81 1325.44 1496.64 1325.41 1498.46H1355.96C1355.99 1496.64 1356 1494.8 1356 1492.97C1356 1408.36 1330.03 1339.51 1278.1 1286.43C1226.93 1234.14 1161.25 1208 1081.05 1208C1000.35 1208 933.272 1234.54 879.81 1287.62C854.862 1312.58 835.259 1342.14 821.003 1376.3C807.001 1410.2 800 1448.56 800 1491.39C800 1493.76 800.023 1496.11 800.068 1498.46Z" fill="white"/>
    <path fill-rule="evenodd" clip-rule="evenodd" d="M1539.51 1237.76V1226H1841.4L1869.47 1320.12L1854.3 1323.06C1833.06 1268.35 1792.86 1240.71 1732.93 1240.71H1687.42C1647.22 1240.71 1638.12 1248.35 1638.12 1276V1419.02H1592.61V1276C1592.61 1245.41 1583.51 1237.76 1543.3 1237.76H1539.51Z" fill="white"/>
    <path fill-rule="evenodd" clip-rule="evenodd" d="M2671.18 1272.97C2656.63 1260.32 2628.48 1254 2586.73 1254H2248V1306.35H2307.78V1415H2385.58V1306.35H2623.74V1415H2692.56C2692.85 1411.3 2693 1407.46 2693 1403.46V1348.07C2693 1310.65 2685.73 1285.61 2671.18 1272.97Z" fill="white"/>
    </g>

    <g class="card_letter-2">
    <path fill-rule="evenodd" clip-rule="evenodd" d="M1356.11 1496.15C1353.73 1465.88 1346.47 1437.12 1334.32 1409.88C1319.73 1375.51 1299.94 1345.56 1274.94 1320.04C1249.42 1295.03 1219.47 1275.24 1185.09 1260.66C1151.24 1245.55 1115.04 1238 1076.49 1238C1037.95 1238 1001.75 1245.55 967.893 1260.66C934.037 1275.24 904.608 1295.03 879.607 1320.04C854.085 1345.56 834.032 1375.51 819.448 1409.88C807.714 1437.12 800.7 1465.88 798.407 1496.15H830.613C832.9 1470.32 839.074 1445.73 849.137 1422.38C862.158 1391.65 879.867 1365.09 902.264 1342.69C924.661 1320.3 950.704 1302.59 980.393 1289.56C1010.6 1276.02 1042.64 1269.25 1076.49 1269.25C1110.87 1269.25 1142.9 1276.02 1172.59 1289.56C1202.8 1302.59 1229.36 1320.3 1252.28 1342.69C1274.68 1365.61 1292.39 1392.17 1305.41 1422.38C1315.57 1445.55 1321.76 1470.14 1324 1496.15H1356.11Z" fill="white"/>
    <path fill-rule="evenodd" clip-rule="evenodd" d="M1577 1240V1415H1665.94V1299.75H1996V1240H1577Z" fill="white"/>
    <path fill-rule="evenodd" clip-rule="evenodd" d="M2685.69 1415.22C2685.2 1376.97 2679.4 1343.57 2668.28 1315.03C2656.65 1285.21 2639.97 1262.2 2618.23 1246.03C2596.49 1229.34 2570.45 1221 2540.12 1221C2506.75 1221 2476.42 1231.62 2449.12 1252.85C2422.32 1274.08 2396.54 1309.98 2371.77 1360.53C2373.79 1338.29 2374.8 1320.59 2374.8 1307.45C2374.8 1286.72 2372.78 1273.83 2368.73 1268.78C2364.69 1263.21 2359.38 1260.43 2352.81 1260.43C2344.72 1260.43 2337.64 1264.23 2331.58 1271.81C2325.51 1278.89 2321.97 1291.53 2320.96 1309.73C2320.45 1320.34 2318.18 1337.78 2314.13 1362.05C2311.72 1378.25 2308.84 1395.97 2305.49 1415.22H2403.53C2420.26 1379.67 2437.98 1351.58 2456.7 1330.96C2486.53 1297.59 2516.36 1280.91 2546.18 1280.91C2572.47 1280.91 2593.2 1291.02 2608.37 1311.24C2623.54 1331.46 2631.12 1365.59 2631.12 1413.62C2631.12 1414.15 2631.12 1414.69 2631.11 1415.22H2685.69Z" fill="white"/>
    </g>
</g>

<g class="card">
<rect x="707" y="1496" width="713" height="876" fill="#FC5812"/>
    <g class="card_letter-1">
    <path fill-rule="evenodd" clip-rule="evenodd" d="M799.769 1495.71C798.59 1507.44 798 1519.64 798 1532.33C798 1563.32 801.581 1591.41 808.744 1616.62C815.907 1641.83 825.936 1664.29 838.829 1683.98C851.722 1703.68 866.908 1720.75 884.385 1735.19C902.149 1749.63 921.489 1761.58 942.405 1771.03C963.321 1780.49 985.526 1787.45 1009.02 1791.91C1032.52 1796.64 1056.3 1799 1080.36 1799C1119.04 1799 1155.15 1793.88 1188.67 1783.64C1222.48 1773.4 1251.84 1757.51 1276.77 1735.98C1301.99 1714.18 1321.76 1686.48 1336.08 1652.86C1350.69 1619.25 1358 1579.07 1358 1532.33C1358 1519.79 1357.35 1507.59 1356.04 1495.71H1097.3C1097.47 1501.47 1097.55 1507.77 1097.55 1514.6V1548.87C1097.55 1561.48 1097.27 1572.38 1096.7 1581.57C1096.12 1590.5 1095.12 1597.98 1093.69 1604.02C1092.25 1609.53 1090.25 1613.21 1087.67 1615.05C1085.38 1616.89 1082.66 1617.81 1079.5 1617.81C1076.35 1617.81 1073.92 1617.41 1072.2 1616.62C1070.48 1615.57 1069.05 1614.65 1067.9 1613.87C1068.19 1609.14 1068.62 1604.81 1069.19 1600.87C1069.76 1596.67 1070.19 1592.07 1070.48 1587.08C1071.05 1581.83 1071.48 1575.92 1071.77 1569.36C1072.05 1562.53 1072.2 1554.26 1072.2 1544.54V1518.94C1072.2 1509.8 1072.07 1502.06 1071.82 1495.71H799.769Z" fill="white"/>
    <path fill-rule="evenodd" clip-rule="evenodd" d="M1050.34 2272.38L1042.74 2276.17C1038.69 2277.69 1035.14 2277.95 1032.1 2276.93C1030.08 2275.92 1029.57 2274.4 1030.58 2272.38C1031.6 2269.85 1032.61 2268.33 1033.62 2267.82C1041.73 2259.72 1047.81 2249.85 1051.86 2238.21C1055.91 2226.06 1055.41 2216.44 1050.34 2209.35C1044.26 2199.73 1031.6 2193.41 1012.35 2190.37C994.109 2186.82 973.338 2186.07 950.034 2188.09C927.744 2189.61 906.467 2193.66 886.203 2200.24C865.939 2206.82 851.248 2215.43 842.129 2226.06C841.116 2227.07 839.596 2227.83 837.569 2228.34C836.556 2228.84 835.543 2228.59 834.53 2227.58C832.503 2226.56 831.49 2225.05 831.49 2223.02C831.49 2214.41 836.05 2206.06 845.168 2197.96C855.3 2189.86 867.965 2182.77 883.163 2176.7C898.361 2170.12 915.586 2165.31 934.836 2162.27C954.087 2158.73 973.845 2157.21 994.108 2157.72C1025.52 2159.23 1049.33 2164.3 1065.54 2172.9C1082.76 2181.51 1093.4 2191.63 1097.45 2203.28C1101.51 2214.92 1099.48 2227.07 1091.38 2239.73C1083.27 2252.38 1069.59 2263.27 1050.34 2272.38ZM1000.19 2260.23C984.99 2273.39 967.765 2287.31 948.515 2301.99C929.264 2316.17 911.026 2333.13 893.802 2352.87C889.749 2354.39 886.203 2355.65 883.163 2356.67L875.564 2360.46C889.749 2338.19 905.96 2317.69 924.198 2298.96C943.449 2280.22 958.647 2264.53 969.792 2251.88C982.963 2237.7 984.99 2229.1 975.871 2226.06C967.765 2223.02 955.1 2223.02 937.876 2226.06C921.665 2228.59 904.44 2232.64 886.203 2238.21C868.979 2243.78 857.327 2248.08 851.248 2251.12C847.195 2253.14 844.155 2253.39 842.129 2251.88V2248.08C852.261 2231.88 872.018 2219.22 901.401 2210.11C930.784 2201 959.66 2197.71 988.029 2200.24C1002.21 2201.76 1011.84 2204.54 1016.91 2208.59C1022.98 2212.64 1026.02 2217.7 1026.02 2223.78C1026.02 2229.35 1023.49 2235.42 1018.43 2242C1013.36 2248.08 1007.28 2254.15 1000.19 2260.23ZM1112.08 2371C1095.71 2360.88 1074.11 2353.07 1047.3 2347.55C1012.85 2339.96 968.779 2340.47 915.079 2349.07C919.132 2345.53 924.198 2341.73 930.277 2337.68C936.356 2333.13 941.929 2329.33 946.995 2326.29C953.074 2322.75 958.14 2319.96 962.193 2317.94C967.259 2315.91 970.805 2315.15 972.831 2315.66C974.858 2316.67 974.858 2318.95 972.831 2322.5C970.805 2326.04 968.272 2329.08 965.232 2331.61C972.325 2330.59 980.43 2330.09 989.549 2330.09H1012.35C1026.53 2322.5 1040.72 2314.65 1054.9 2306.55C1069.09 2298.45 1081.75 2289.59 1092.9 2279.97C1105.05 2269.85 1114.17 2258.96 1120.25 2247.32C1126.33 2235.17 1128.86 2221.25 1127.85 2205.56C1126.84 2195.94 1121.77 2187.58 1112.65 2180.5C1104.55 2173.41 1093.91 2167.59 1080.74 2163.03C1068.58 2158.48 1054.9 2154.93 1039.7 2152.4C1025.52 2149.87 1011.84 2148.35 998.668 2147.84C972.325 2146.83 949.021 2147.84 928.757 2150.88C908.493 2153.92 889.243 2158.22 871.005 2163.79C865.939 2165.82 862.899 2166.58 861.886 2166.07C860.873 2165.06 860.873 2164.04 861.886 2163.03C863.913 2162.02 865.432 2161.01 866.446 2159.99C871.512 2155.44 881.644 2150.63 896.841 2145.57C913.053 2140 931.797 2135.95 953.074 2133.42C975.364 2130.38 999.681 2129.37 1026.02 2130.38C1052.37 2131.39 1078.71 2135.95 1105.05 2144.05C1139.5 2154.68 1161.79 2168.6 1171.92 2185.81C1182.06 2203.02 1183.58 2221 1176.48 2239.73C1169.39 2257.95 1155.21 2275.92 1133.93 2293.64C1113.67 2310.85 1089.86 2324.77 1062.5 2335.4C1095.93 2340.97 1126.33 2351.86 1153.69 2368.06C1155.38 2369.02 1157.04 2370.01 1158.65 2371H1112.08ZM891.863 2371H1080.2C1073.12 2368.13 1065.2 2365.37 1056.42 2362.74C1031.09 2355.15 1005.25 2351.6 978.911 2352.11C952.567 2353.12 929.77 2356.92 910.52 2363.5C903.365 2365.88 897.146 2368.38 891.863 2371Z" fill="white"/>
    </g>

    <g class="card_letter-2">
    <path fill-rule="evenodd" clip-rule="evenodd" d="M798.347 1496.15C791.449 1519.98 788 1545.41 788 1572.43C788 1611.93 795.776 1648.59 811.328 1682.41C826.88 1715.98 849.714 1745.6 879.83 1771.28C905.503 1792.75 935.248 1808.8 969.068 1819.41C1002.89 1829.78 1039.17 1834.96 1077.93 1834.96C1116.93 1834.96 1153.59 1829.53 1187.9 1818.67C1222.22 1807.56 1251.59 1791.52 1276.03 1770.53C1307.13 1743.87 1329.97 1713.88 1344.53 1680.56C1359.34 1647.23 1366.75 1611.19 1366.75 1572.43C1366.75 1545.57 1363.32 1520.14 1356.47 1496.15H1134.67C1141.67 1504.43 1146.95 1514.42 1150.51 1526.15C1155.69 1542.19 1158.28 1557.99 1158.28 1573.55C1158.28 1587.62 1155.69 1602.55 1150.51 1618.35C1145.57 1633.9 1137.79 1646.49 1127.18 1656.12C1120.51 1662.04 1112.98 1666.73 1104.59 1670.19C1096.44 1673.4 1087.68 1675 1078.3 1675C1067.69 1675 1058.18 1673.4 1049.79 1670.19C1041.4 1666.73 1033.99 1661.92 1027.57 1655.75C1016.71 1645.63 1008.81 1633.16 1003.87 1618.35C998.937 1603.29 996.468 1587.86 996.468 1572.06C996.468 1557.25 999.06 1542.32 1004.24 1527.26C1008.46 1515.01 1014.15 1504.64 1021.3 1496.15H798.347Z" fill="white"/>
    <path fill-rule="evenodd" clip-rule="evenodd" d="M1026.91 2372.77H1103.71C1096.98 2362.78 1087.93 2355.1 1076.58 2349.72C1061.26 2342.06 1043.81 2337.38 1024.24 2335.68L1008.92 2333.12C1003.81 2332.27 1001.26 2330.99 1001.26 2329.29C1001.26 2326.74 1007.22 2323.76 1019.13 2320.36C1057.43 2307.59 1089.34 2290.57 1114.87 2269.29C1141.26 2247.17 1158.7 2222.06 1167.21 2193.98C1168.91 2188.87 1170.19 2183.77 1171.04 2178.66C1171.89 2173.55 1172.32 2168.02 1172.32 2162.06C1172.32 2148.45 1168.91 2135.68 1162.11 2123.77C1155.3 2111 1143.81 2100.79 1127.64 2093.13C1105.51 2082.92 1074.45 2078.66 1034.45 2080.36L1006.37 2081.64C990.197 2082.49 971.9 2084.62 951.475 2088.02C931.901 2090.58 917.859 2093.56 909.348 2096.96C905.093 2098.66 899.987 2101.64 894.03 2105.9C888.924 2110.15 886.371 2115.68 886.371 2122.49C886.371 2127.6 884.243 2139.09 879.988 2156.96C876.584 2174.83 872.754 2193.55 868.499 2213.13C864.244 2231.85 860.414 2246.32 857.01 2256.53L883.817 2242.49C882.966 2239.93 883.817 2232.27 886.371 2219.51C889.775 2206.74 892.328 2197.38 894.03 2191.42C897.434 2179.51 903.817 2167.17 913.178 2154.4C923.391 2140.79 933.178 2131 942.539 2125.04C952.751 2118.24 965.517 2113.13 980.836 2109.73C996.154 2106.32 1010.62 2104.62 1024.24 2104.62C1052.32 2104.62 1073.6 2111.43 1088.07 2125.04C1103.38 2137.81 1111.04 2153.98 1111.04 2173.55C1111.04 2183.77 1109.34 2193.55 1105.94 2202.91C1097.43 2230.15 1082.11 2251.85 1059.98 2268.02C1038.71 2283.34 1015.3 2295.25 989.771 2303.76C965.091 2311.42 943.39 2317.38 924.667 2321.63C920.412 2322.48 917.008 2322.91 914.455 2322.91C911.902 2322.91 907.646 2323.76 901.689 2325.46L896.583 2331.85C893.179 2336.1 889.349 2340.78 885.094 2345.89C911.476 2345.89 937.433 2347.59 962.964 2350.99C988.495 2353.55 1009.77 2360.78 1026.79 2372.7C1026.83 2372.72 1026.87 2372.75 1026.91 2372.77Z" fill="white"/>
    </g>
</g>

<g class="card">
<rect x="1704.91" y="0.250488" width="1189.29" height="596.992" fill="#FDB600"/>
    <g class="card_letter-1">
    <path fill-rule="evenodd" clip-rule="evenodd" d="M1853.63 595.909C1856.01 593.083 1858.4 590.243 1860.81 587.39C1877.34 567.907 1893.28 549.015 1908.63 530.714C1923.98 511.822 1938.44 493.816 1952.02 476.695C1966.19 459.574 1978.29 443.929 1988.33 429.76H1929.88C1914.53 429.76 1899.18 434.188 1883.83 443.044C1868.48 451.899 1856.68 464.002 1848.41 479.352H1826.27L1751 388.139L1760.74 366H2011.35L2076 431.531V458.098C2070.69 466.363 2063.6 476.4 2054.75 488.207C2045.89 499.424 2036.45 511.232 2026.41 523.629C2016.37 536.027 2006.34 548.72 1996.3 561.708C1986.37 573.976 1977.02 585.376 1968.24 595.909H1853.63Z" fill="white"/>
    <path fill-rule="evenodd" clip-rule="evenodd" d="M2754.84 620.403C2755.7 614 2756.13 610.181 2756.13 608.946C2756.13 604.813 2754.95 601.566 2752.59 599.204C2753.77 598.024 2754.95 597.433 2756.13 597.433C2752 564.963 2750.22 533.083 2750.82 501.793C2752 470.503 2751.11 438.033 2748.16 404.381V328.223H2749.93C2752.29 328.223 2753.77 327.043 2754.36 324.681L2752.59 323.796C2752 322.025 2746.39 316.711 2735.76 307.856C2735.76 304.904 2736.06 302.837 2736.65 301.657C2735.47 301.657 2734.87 302.247 2734.87 303.428L2730.45 299C2727.5 301.952 2722.48 304.313 2715.39 306.084C2708.9 307.856 2701.52 309.332 2693.25 310.512C2685.58 311.103 2677.61 311.693 2669.34 312.283H2649.86C2641.01 312.283 2632.74 311.398 2625.07 309.627C2623.29 310.217 2622.11 311.693 2621.52 314.055C2620.93 316.416 2619.46 317.597 2617.1 317.597C2616.51 317.597 2615.91 317.302 2615.32 316.711C2615.91 324.386 2616.21 332.061 2616.21 339.736C2616.8 346.82 2617.1 353.905 2617.1 360.989V401.725C2617.1 426.52 2616.51 450.135 2615.32 472.57C2614.73 494.413 2613.85 518.619 2612.67 545.185L2610.01 548.728C2599.97 548.728 2589.05 549.318 2577.25 550.499C2566.03 551.089 2554.81 551.384 2543.59 551.384C2532.97 551.384 2523.23 550.499 2514.37 548.728C2514.37 543.414 2513.78 537.51 2512.6 531.016C2512.01 524.522 2510.83 518.028 2509.06 511.534C2507.88 505.04 2506.7 499.136 2505.52 493.823C2504.92 487.919 2504.63 483.491 2504.63 480.54C2504.63 478.768 2504.92 477.588 2505.52 476.997H2507.29C2505.52 429.177 2504.04 394.64 2502.86 373.387C2502.27 352.134 2501.97 339.441 2501.97 335.308C2501.97 325.272 2499.32 319.368 2494 317.597C2488.69 315.235 2482.79 314.055 2476.29 314.055C2462.71 314.055 2449.13 314.645 2435.56 315.826C2422.57 316.416 2409.28 317.302 2395.71 318.482L2383.31 314.055C2382.72 336.489 2382.13 359.218 2381.54 382.243V452.202C2381.54 508.269 2382.03 564.336 2383.02 620.403H2394.76C2394.21 603.557 2393.93 586.749 2393.93 569.981L2393.05 570.867C2393.64 567.324 2393.93 564.372 2393.93 562.011C2394.53 559.649 2394.82 557.583 2394.82 555.812C2394.82 536.92 2394.23 522.161 2393.05 511.534C2392.46 500.317 2392.16 492.937 2392.16 489.395V483.196C2392.75 481.425 2393.34 479.359 2393.93 476.997L2394.82 442.461C2394.82 439.509 2394.53 436.262 2393.93 432.719V422.978C2393.93 418.255 2394.23 415.599 2394.82 415.008V329.109C2398.36 329.109 2401.9 329.404 2405.45 329.995H2416.07C2436.15 329.995 2451.2 329.404 2461.24 328.223C2471.27 326.452 2476.59 325.567 2477.18 325.567C2481.9 325.567 2484.56 328.814 2485.15 335.308C2486.33 341.802 2486.92 348.591 2486.92 355.676C2486.92 379.291 2486.62 402.315 2486.03 424.749C2485.44 447.183 2485.15 469.913 2485.15 492.937C2485.15 514.781 2486.03 536.625 2487.8 558.469C2491.94 559.649 2494.59 560.83 2495.77 562.011C2496.95 562.601 2498.14 564.963 2499.32 569.095L2504.63 563.782C2510.53 563.192 2516.14 562.896 2521.46 562.896C2527.36 562.306 2532.97 562.011 2538.28 562.011C2546.55 562.011 2554.81 562.306 2563.08 562.896H2599.38C2605.88 562.896 2613.55 561.421 2622.41 558.469C2623 559.059 2624.18 559.354 2625.95 559.354C2628.31 559.354 2630.08 557.288 2631.26 553.155C2632.45 549.023 2633.04 546.366 2633.04 545.185C2633.04 544.005 2632.74 542.824 2632.15 541.643V537.215L2635.69 530.131V519.504C2636.28 515.962 2636.58 512.715 2636.58 509.763C2636.58 493.823 2635.69 478.178 2633.92 462.828C2632.74 447.479 2632.15 431.834 2632.15 415.894C2632.15 400.544 2632.45 385.49 2633.04 370.73C2634.22 355.381 2636.28 340.326 2639.23 325.567C2646.32 326.748 2653.4 327.633 2660.49 328.223C2667.57 328.814 2674.95 329.109 2682.63 329.109H2728.68C2729.86 340.326 2730.74 351.543 2731.33 362.76C2731.92 373.387 2732.22 384.604 2732.22 396.411C2732.22 424.159 2731.33 451.611 2729.56 478.768C2731.59 525.422 2733.2 572.634 2734.39 620.403H2754.84Z" fill="white"/>
    </g>

    <g class="card_letter-2">
    <path fill-rule="evenodd" clip-rule="evenodd" d="M1730.92 342.33C1722.03 339.368 1713.39 334.924 1705 329C1706.97 343.811 1708.46 356.895 1709.44 368.25C1710.43 379.605 1711.42 388.986 1712.41 396.391L1714.63 418.608C1715.12 425.026 1715.37 432.432 1715.37 440.825V467.485C1715.37 477.853 1714.87 489.702 1713.89 503.032C1736.1 475.878 1755.85 454.896 1773.13 440.084C1790.91 424.779 1806.21 413.424 1819.05 406.018C1833.86 397.132 1846.69 391.948 1857.56 390.467C1873.85 389.479 1889.65 395.651 1904.95 408.981C1920.75 421.817 1930.87 443.293 1935.31 473.41C1937.29 488.221 1935.31 501.798 1929.39 514.141C1923.96 526.483 1916.55 537.098 1907.17 545.985C1897.79 554.872 1887.67 562.03 1876.81 567.461C1866.44 572.398 1857.56 575.114 1850.15 575.607C1844.23 576.101 1837.81 576.101 1830.9 575.607C1824.97 575.114 1818.06 574.373 1810.16 573.386C1802.26 571.904 1793.87 569.93 1784.98 567.461C1785.83 576.366 1786.31 583.996 1786.43 590.351H2000.16C1989.19 586.074 1976.21 582.888 1961.23 580.791C1981.48 574.867 1996.78 564.746 2007.15 550.428C2017.52 535.617 2025.17 520.559 2030.11 505.254C2035.54 487.48 2038.75 468.473 2039.73 448.231C2039.73 434.9 2036.77 421.817 2030.85 408.981C2024.92 396.144 2016.53 384.542 2005.67 374.174C1995.3 363.313 1982.46 354.426 1967.16 347.514C1951.85 340.108 1934.57 335.665 1915.32 334.184C1896.07 332.703 1880.02 332.95 1867.18 334.924C1854.35 336.406 1842.99 338.38 1833.12 340.849C1823.24 343.318 1814.11 345.786 1805.72 348.255C1797.82 350.723 1788.93 351.957 1779.06 351.957C1771.16 351.957 1763.01 350.97 1754.62 348.995C1747.71 347.514 1739.81 345.292 1730.92 342.33Z" fill="white"/>
    <path fill-rule="evenodd" clip-rule="evenodd" d="M2389.56 595.752H2705.78V441.25C2705.78 416.225 2717.92 386.65 2742.18 375.275V373H2614.78V375.275C2638.29 386.65 2649.67 416.225 2649.67 441.25V583.817H2445.67V441.25C2445.67 416.225 2457.05 386.65 2481.32 375.275V373H2353.92V375.275C2378.94 386.65 2389.56 416.225 2389.56 441.25V595.752Z" fill="white"/>
    </g>
</g>

<g class="card">
<rect x="1705" y="597" width="1189" height="589" fill="#FC5812"/>
    <g class="card_letter-1">
    <path fill-rule="evenodd" clip-rule="evenodd" d="M1846.08 595.909L1852.44 618.53C1961.36 618.53 2016.27 669.892 2016.27 734.538C2016.27 788.557 1966.68 826.636 1902.92 826.636C1861.3 826.636 1818.79 812.467 1795.76 794.756L1764.77 853.203C1795.76 870.028 1831.19 878.884 1868.38 878.884C1978.19 878.884 2073.83 798.298 2073.83 705.315C2073.83 653.619 2039.87 613.94 1988 595.909H1846.08Z" fill="white"/>
    <path fill-rule="evenodd" clip-rule="evenodd" d="M2370.93 597.403V925.695C2370.93 984.853 2359.04 1014.43 2335.26 1014.43C2328.99 1013.85 2320.63 1008.23 2310.18 997.55C2299.99 987.161 2289.41 981.967 2278.43 981.967C2261.19 981.967 2252.05 990.624 2251 1007.94C2251 1017.17 2253.74 1024.82 2259.23 1030.88C2264.98 1037.23 2275.95 1040.4 2292.15 1040.4C2336.57 1040.4 2368.84 1029.15 2388.96 1006.64C2409.07 984.42 2420.7 948.925 2423.84 900.156V611.436H2705.24V776.79C2705.24 799.587 2703.67 815.748 2700.53 825.271C2697.4 834.794 2688.78 841.142 2674.67 844.317L2651.93 849.511V867.691H2804V848.645L2777.35 842.152C2769.51 840.132 2764.29 837.535 2761.67 834.361C2759.32 830.898 2758.15 819.932 2758.15 801.463V597.403H2370.93Z" fill="white"/>
    </g>

    <g class="card_letter-2">
    <path fill-rule="evenodd" clip-rule="evenodd" d="M1901.97 590C1900.91 591.799 1900.38 593.863 1900.38 596.192C1900.38 599.226 1901.39 601.754 1903.42 603.776C1905.44 605.292 1908.47 606.051 1912.52 606.051C1917.07 606.051 1922.12 605.04 1927.68 603.017C1933.75 600.49 1940.58 597.709 1948.16 594.676C1972.93 596.698 1992.4 607.567 2006.55 627.284C2021.21 646.495 2028.54 671.015 2028.54 700.843C2028.54 728.648 2022.48 753.421 2010.34 775.16C1998.71 796.899 1982.79 815.099 1962.57 829.76C1942.85 844.421 1920.61 855.543 1895.83 863.127C1871.06 871.216 1845.78 875.513 1820 876.018V889.668C1845.78 889.668 1871.82 886.888 1898.11 881.327C1924.9 875.766 1950.43 867.424 1974.7 856.302C1998.97 845.685 2020.45 832.54 2039.16 816.868C2058.37 801.701 2073.28 784.513 2083.9 765.301C2095.02 745.585 2100.58 724.098 2100.58 700.843C2100.58 674.554 2093.76 653.068 2080.11 636.384C2066.46 619.701 2049.02 607.315 2027.78 599.226C2018.11 595.312 2008.18 592.236 1997.99 590H1901.97Z" fill="white"/>
    <path fill-rule="evenodd" clip-rule="evenodd" d="M2339 595V890H2442.89V667.049H2653.71V890H2757.6V595H2339Z" fill="white"/>

    </g>
</g>

<g class="card">
<rect x="1295.88" y="2372.34" width="1598.32" height="593.085" fill="#FDB600"/>

    <g class="card_letter-1">
    <path fill-rule="evenodd" clip-rule="evenodd" d="M1614.85 2369V2690H1839.24L2011.97 2369H1775.84L1732.97 2450.43V2369H1614.85ZM2131.02 2369H2014.38V2557.44H1955.14V2690H2191.01V2557.44H2131.02V2369Z" fill="white"/>
    <path fill-rule="evenodd" clip-rule="evenodd" d="M2386 2373V2788.07L2461.83 2825.98L2801.57 2796.41V2672.8L2725.73 2634.88L2591.51 2647.02V2575.73L2748.48 2561.32V2438.47L2672.65 2400.56L2591.51 2408.14V2373H2508.09V2423.31L2665.07 2408.9V2516.58L2508.09 2530.99V2662.18L2718.15 2643.22V2751.67L2393.58 2780.48V2373H2386Z" fill="white"/>
    </g>

    <g class="card_letter-2">
    <path fill-rule="evenodd" clip-rule="evenodd" d="M1642.44 2375.81C1642.12 2384.51 1640.84 2396.67 1638.61 2412.31C1637.45 2424.47 1637.74 2434.9 1639.47 2443.58C1640.63 2451.69 1642.08 2458.93 1643.82 2465.3C1645.56 2471.09 1647.29 2476.59 1649.03 2481.8C1650.19 2486.44 1650.48 2491.36 1649.9 2496.57C1649.32 2496.57 1648.74 2499.18 1648.16 2504.39C1647.58 2509.6 1647 2515.39 1646.42 2521.76C1645.85 2527.56 1645.27 2533.06 1644.69 2538.27C1643.53 2542.9 1642.37 2544.93 1641.21 2544.35C1642.37 2565.2 1642.08 2583.44 1640.34 2599.08C1638.03 2614.71 1637.74 2623.4 1639.47 2625.14L1636 2636.43L1671.62 2649.46H1682.04C1685.52 2649.46 1688.7 2649.75 1691.6 2650.33L1708.97 2652.07C1714.76 2652.65 1719.39 2653.22 1722.87 2653.8L1740.24 2644.25C1739.66 2638.46 1738.5 2634.4 1736.77 2632.09C1732.71 2629.77 1731.27 2621.08 1732.42 2606.03C1733 2600.81 1734.45 2597.63 1736.77 2596.47C1738.5 2595.31 1740.24 2593.29 1741.98 2590.39L1864.46 2427.08C1866.2 2425.34 1867.65 2423.6 1868.81 2421.86C1871.12 2418.97 1873.44 2413.76 1875.76 2406.23C1878.07 2398.7 1881.55 2390.88 1886.18 2382.77C1887.31 2380.36 1888.65 2378.04 1890.22 2375.81H1818.93L1740.24 2476.59C1733.29 2477.17 1729.53 2473.41 1728.95 2465.3C1727.79 2456.61 1728.08 2447.35 1729.82 2437.5C1730.98 2427.08 1732.71 2417.81 1735.03 2409.7C1737.35 2401.6 1738.5 2398.12 1738.5 2399.28C1739.42 2390.41 1740.34 2382.58 1741.26 2375.81H1642.44ZM2100.29 2375.81H1950.16C1950.26 2377.47 1950.36 2379.22 1950.46 2381.04C1951.04 2391.46 1951.91 2402.17 1953.07 2413.18C1953.65 2423.6 1954.23 2433.74 1954.81 2443.58C1954.81 2452.85 1954.23 2460.96 1953.07 2467.91C1951.33 2474.85 1948.73 2479.49 1945.25 2481.8C1945.25 2488.75 1947.86 2517.42 1953.07 2567.8C1954.81 2586.34 1956.26 2601.97 1957.41 2614.71C1957.99 2626.87 1958.57 2636.72 1959.15 2644.25L1970.44 2658.15C1977.97 2659.31 1987.82 2660.46 1999.98 2661.62C2011.56 2662.78 2023.43 2663.94 2035.6 2665.1C2047.18 2666.26 2058.18 2667.12 2068.61 2667.7C2078.45 2668.28 2085.4 2668.57 2089.45 2668.57C2092.93 2668.57 2096.69 2667.41 2100.75 2665.1C2104.8 2662.78 2108.28 2658.44 2111.17 2652.07C2108.47 2648.46 2106.64 2646.44 2105.69 2645.99H2107.7V2550.43L2096.4 2531.32L2109.43 2499.18L2107.7 2474.85C2107.7 2471.96 2107.12 2467.33 2105.96 2460.96C2104.8 2454.01 2103.64 2446.48 2102.48 2438.37C2101.33 2430.26 2100.46 2422.15 2099.88 2414.05C2098.72 2405.36 2098.43 2397.54 2099.01 2390.59C2099.48 2385.13 2099.91 2380.2 2100.29 2375.81Z" fill="white"/>
    <path fill-rule="evenodd" clip-rule="evenodd" d="M2391.18 2383.76C2390.67 2379.67 2390.14 2375.75 2389.6 2372H2501.44C2499.64 2377.3 2497.94 2383.93 2496.34 2391.91C2493.88 2402.28 2491.41 2416.35 2488.94 2434.12C2486.96 2451.89 2484.74 2474.85 2482.27 2502.99C2495.6 2499.04 2506.22 2495.34 2514.12 2491.88C2522.51 2488.43 2529.18 2485.47 2534.11 2483C2539.54 2480.03 2543.49 2477.32 2545.96 2474.85C2547.94 2471.89 2550.9 2466.46 2554.85 2458.56C2557.81 2451.65 2561.76 2442.27 2566.7 2430.42C2572.13 2418.57 2578.55 2402.28 2585.95 2381.54C2586.94 2404.25 2587.43 2423.26 2587.43 2438.56C2587.43 2453.37 2587.68 2465.47 2588.17 2474.85C2588.17 2485.71 2588.42 2494.35 2588.91 2500.77V2528.91V2571.12C2589.41 2588.4 2590.15 2610.37 2591.14 2637.03C2585.21 2618.77 2579.78 2604.45 2574.84 2594.08C2570.4 2583.22 2566.45 2575.07 2562.99 2569.64C2559.04 2563.22 2555.59 2558.78 2552.63 2556.31C2549.17 2555.32 2544.48 2554.34 2538.56 2553.35C2533.13 2552.86 2526.21 2552.61 2517.82 2552.61C2509.92 2552.61 2499.8 2553.84 2487.46 2556.31C2485.98 2583.47 2485.73 2605.44 2486.72 2622.22C2488.2 2638.51 2490.17 2651.1 2492.64 2659.99C2495.11 2670.36 2498.07 2677.76 2501.53 2682.21C2505.97 2686.65 2514.86 2690.35 2528.19 2693.32C2541.52 2695.79 2556.58 2696.77 2573.36 2696.28C2590.64 2695.29 2608.17 2692.33 2625.94 2687.39C2643.72 2682.45 2659.51 2674.31 2673.34 2662.95C2683.71 2653.57 2694.81 2641.72 2706.66 2627.41C2716.54 2615.06 2727.4 2599.51 2739.25 2580.75C2751.59 2561.99 2763.69 2539.28 2775.54 2512.62C2773.56 2534.84 2772.08 2553.35 2771.09 2568.16C2770.6 2582.48 2769.86 2594.08 2768.87 2602.97C2767.88 2613.34 2767.14 2621.24 2766.65 2626.67C2766.65 2632.59 2765.91 2640.98 2764.43 2651.84C2763.44 2661.23 2761.71 2674.06 2759.24 2690.35C2757.27 2706.15 2754.55 2726.39 2751.1 2751.08C2727.89 2751.57 2705.92 2752.07 2685.19 2752.56C2664.45 2752.56 2646.18 2752.81 2630.39 2753.3C2611.62 2753.8 2594.34 2754.29 2578.55 2754.78C2562.25 2754.78 2544.23 2755.52 2524.49 2757C2507.21 2757.99 2486.72 2759.47 2463.02 2761.45C2439.81 2763.42 2414.14 2766.14 2386 2769.59C2388.47 2736.02 2390.2 2704.42 2391.18 2674.8C2392.67 2644.69 2393.65 2618.27 2394.15 2595.56C2394.64 2568.9 2394.64 2544.22 2394.15 2521.51C2396.61 2464.73 2395.63 2418.81 2391.18 2383.76Z" fill="white"/>
    </g>
</g>

<g class="card">
<path d="M1420.11 1414.91C1710.66 1414.91 1873.56 1414.91 2164.11 1414.91V1943.63H1420.11V1414.91Z" fill="#FDB600"/>

<path class="card_letter-1" fill-rule="evenodd" clip-rule="evenodd" d="M1593.1 1414.02H1638.61H1740.59V1414.12H1871.81C1929.97 1414.12 1973.2 1424.9 2001.52 1446.47C2029.84 1467.65 2044 1498.04 2044 1537.65C2044 1579.22 2029.84 1611.76 2001.52 1635.29C1973.2 1658.43 1929.97 1670 1871.81 1670H1592.68L1593.1 1549.41L1592.68 1469.5C1592.68 1438.91 1593.1 1442.02 1593.1 1414.02ZM1892.29 1547.06V1532.35C1892.29 1521.76 1888.25 1513.72 1880.16 1508.23C1872.07 1502.35 1859.93 1499.41 1843.75 1499.41H1740.59V1578.82H1843.75C1858.92 1578.82 1870.8 1576.08 1879.4 1570.59C1888 1565.1 1892.29 1557.25 1892.29 1547.06Z" fill="white"/>

<path class="card_letter-2" fill-rule="evenodd" clip-rule="evenodd" d="M1577.1 1415V1710.49C1577.1 1726.68 1572.19 1740.85 1562.38 1752.99C1552.57 1764.62 1537.44 1773.48 1517 1779.55V1781.82C1534.99 1783.85 1555.02 1785.87 1577.1 1787.89L1645.79 1792.45C1669.5 1793.96 1692.39 1794.98 1714.47 1795.48C1737.37 1796.49 1757.4 1797 1774.57 1797C1845.71 1797 1906.63 1789.92 1957.32 1775.75C2008.84 1761.59 2048.5 1741.35 2076.3 1715.05C2104.1 1688.23 2118 1656.61 2118 1620.19C2118 1594.39 2110.64 1570.87 2095.92 1549.62C2081.2 1528.37 2060.35 1509.91 2033.37 1494.22C2007.2 1478.03 1975.72 1465.64 1938.93 1457.04C1902.95 1448.44 1862.88 1444.14 1818.73 1444.14C1790.93 1444.14 1763.94 1446.16 1737.78 1450.21C1721.55 1452.48 1706.83 1455.47 1693.62 1459.19V1415H1577.1ZM1693.62 1471.94V1721.88C1693.62 1734.52 1697.71 1745.4 1705.89 1754.51C1714.06 1763.11 1725.92 1769.68 1741.46 1774.23C1756.99 1778.79 1776.21 1781.06 1799.1 1781.06C1838.35 1781.06 1871.88 1774.49 1899.68 1761.33C1927.48 1748.18 1948.74 1729.72 1963.46 1705.94C1978.99 1681.66 1986.76 1652.82 1986.76 1619.43C1986.76 1585.54 1978.99 1557.21 1963.46 1534.44C1947.92 1511.17 1925.03 1493.46 1894.77 1481.32C1865.33 1469.18 1828.54 1463.11 1784.38 1463.11C1765.58 1463.11 1746.36 1464.38 1726.74 1466.91C1715.4 1468.13 1704.36 1469.8 1693.62 1471.94Z" fill="white"/>
</g>

<g class="card">
<rect x="2164.11" y="1414.91" width="730.086" height="528.724" fill="#8000FF"/>

<path class="card_letter-1" fill-rule="evenodd" clip-rule="evenodd" d="M2310.74 1415V1773H2520.76V1553.24H2561.9C2596.54 1553.24 2623.61 1544.22 2643.09 1526.17C2663.3 1508.13 2677.37 1484.31 2685.31 1454.72C2688.74 1441.95 2691.43 1428.71 2693.37 1415H2674.58C2672.89 1425.71 2670.69 1436.06 2667.99 1446.06C2661.5 1472.05 2649.59 1492.97 2632.27 1508.85C2615.67 1524.73 2592.21 1532.67 2561.9 1532.67H2502.36V1753.51H2330.23V1415H2310.74ZM2338.89 1415V1743.77H2492.62V1522.93H2561.9C2590.05 1522.93 2611.7 1515.35 2626.85 1500.19C2642.73 1485.04 2653.92 1465.19 2660.41 1440.65C2662.55 1432.34 2664.34 1423.78 2665.77 1415H2518.05C2517.88 1416.01 2517.7 1416.99 2517.51 1417.92C2514.63 1431.63 2509.94 1438.49 2503.44 1438.49H2492.62V1415H2338.89ZM2502.36 1415V1428.74H2503.44C2505.87 1428.74 2508.04 1424.16 2509.95 1415H2502.36Z" fill="white"/>
<path class="card_letter-2" xmlns="http://www.w3.org/2000/svg" fill-rule="evenodd" clip-rule="evenodd" d="M2305.45 1415.22V1711.76L2228 1724.64V1757.22H2489.28V1722.36L2385.7 1709.48V1415.22H2305.45ZM2601.2 1415.22C2600.54 1441.53 2593.71 1462.84 2580.72 1479.14C2567.04 1496.31 2547.13 1508.94 2521 1517.02C2495.5 1524.6 2464.08 1528.64 2426.76 1529.15L2431.42 1558.7C2437.02 1559.2 2442.31 1559.71 2447.29 1560.21H2464.08C2508.25 1560.21 2547.13 1554.15 2580.72 1542.03C2614.32 1529.4 2640.44 1510.71 2659.11 1485.96C2674.07 1466.11 2683.03 1442.53 2686 1415.22H2601.2Z" fill="white"/>
</g>

<g class="card">
<rect x="1420.11" y="1943.63" width="1474.08" height="428.713" fill="#097441"/>
    <g class="card_letter-1">
    <path fill-rule="evenodd" clip-rule="evenodd" d="M2173.28 2281.72C2170.79 2282.22 2169.54 2283.99 2169.54 2287.03H2163.31C2160.82 2286.52 2157.5 2286.02 2153.35 2285.51C2151.68 2282.98 2150.44 2280.45 2149.61 2277.92C2147.95 2274.88 2148.36 2272.1 2150.85 2269.57C2153.35 2267.55 2156.67 2266.54 2160.82 2266.54C2164.14 2266.54 2167.47 2267.55 2170.79 2269.57C2174.11 2271.09 2176.6 2273.62 2178.26 2277.16L2173.28 2281.72ZM2175.77 2243.76C2173.28 2244.78 2172.86 2246.55 2174.52 2249.08L2169.54 2250.6C2167.88 2250.6 2166.22 2251.1 2164.56 2252.11C2159.57 2253.13 2155.84 2253.63 2153.35 2253.63C2140.06 2252.62 2133 2247.81 2132.17 2239.21C2133.83 2234.15 2137.57 2230.35 2143.38 2227.82C2148.36 2225.29 2154.18 2222.76 2160.82 2220.23C2174.11 2225.29 2181.17 2231.87 2182 2239.97L2175.77 2243.76ZM2006.34 2337.13C2003.85 2338.14 2002.18 2339.91 2001.35 2342.44L1998.86 2341.68C1998.86 2341.18 1996.37 2342.44 1991.39 2345.48C1986.4 2348.01 1983.5 2351.3 1982.67 2355.34C1981.01 2359.9 1978.1 2362.94 1973.95 2364.45C1974.36 2366.22 1974.26 2367.74 1973.64 2369H1858.09L1860.57 2365.97C1861.41 2364.96 1863.48 2363.44 1866.8 2361.42C1870.13 2358.89 1871.37 2355.85 1870.54 2352.31C1870.54 2348.77 1873.03 2344.46 1878.02 2339.4C1880.51 2336.37 1881.75 2333.08 1881.75 2329.54C1883.42 2324.98 1885.08 2321.95 1886.74 2320.43C1890.89 2309.3 1898.37 2300.44 1909.16 2293.86C1909.99 2291.84 1912.07 2288.29 1915.39 2283.23C1917.05 2281.72 1918.71 2279.69 1920.37 2277.16C1922.04 2274.63 1924.11 2271.6 1926.6 2268.05C1926.6 2266.03 1927.43 2262.99 1929.1 2258.94C1931.59 2256.92 1933.66 2253.63 1935.32 2249.08L1937.82 2241.49C1938.65 2238.96 1939.48 2236.93 1940.31 2235.41C1952.77 2222.76 1959.41 2209.1 1960.24 2194.43C1964.39 2190.38 1967.72 2186.58 1970.21 2183.04C1971.87 2178.99 1971.87 2173.42 1970.21 2166.34C1970.21 2162.8 1970.62 2159.51 1971.45 2156.47C1972.28 2153.44 1973.53 2150.65 1975.19 2148.12C1976.02 2145.59 1976.85 2142.81 1977.68 2139.77L1980.17 2130.66C1981.01 2129.15 1981.42 2127.63 1981.42 2126.11C1981.42 2124.59 1981.84 2123.33 1982.67 2122.31C1983.5 2119.78 1985.16 2116.75 1987.65 2113.21C1989.31 2109.16 1993.05 2105.62 1998.86 2102.58C2005.51 2100.05 2010.07 2097.01 2012.57 2093.47C2019.21 2091.45 2023.78 2089.93 2026.27 2088.92C2029.59 2087.4 2034.16 2086.64 2039.98 2086.64C2043.3 2084.11 2048.7 2082.84 2056.17 2082.84C2059.49 2082.84 2062.82 2083.1 2066.14 2083.6C2068.63 2083.6 2071.95 2083.86 2076.1 2084.36C2081.09 2083.35 2085.24 2082.84 2088.56 2082.84C2092.72 2082.84 2097.7 2083.1 2103.51 2083.6C2108.5 2083.6 2112.23 2084.87 2114.72 2087.4C2119.71 2092.96 2125.52 2096.76 2132.17 2098.78C2136.32 2101.31 2138.4 2103.34 2138.4 2104.86C2140.06 2105.87 2142.13 2107.64 2144.62 2110.17C2146.29 2112.19 2146.29 2114.47 2144.62 2117C2148.78 2118.01 2150.44 2120.29 2149.61 2123.83C2148.78 2126.87 2147.95 2129.65 2147.12 2132.18C2150.44 2133.7 2152.1 2135.47 2152.1 2137.5C2152.1 2143.57 2150.44 2148.88 2147.12 2153.44C2146.29 2154.45 2145.87 2155.46 2145.87 2156.47C2145.87 2157.48 2145.46 2158.5 2144.62 2159.51C2141.3 2161.03 2139.23 2163.05 2138.4 2165.58C2137.57 2166.59 2137.15 2167.86 2137.15 2169.38C2136.32 2170.39 2135.07 2171.65 2133.41 2173.17C2128.43 2176.21 2125.94 2180.76 2125.94 2186.83C2126.77 2189.36 2127.18 2192.4 2127.18 2195.94C2126.35 2198.98 2125.52 2202.27 2124.69 2205.81C2125.52 2210.87 2124.69 2215.17 2122.2 2218.71C2120.54 2220.74 2119.71 2222.76 2119.71 2224.79C2118.88 2226.31 2118.46 2228.33 2118.46 2230.86C2116.8 2232.88 2115.56 2234.91 2114.72 2236.93C2113.06 2238.45 2111.82 2239.97 2110.99 2241.49C2110.99 2245.03 2109.74 2248.82 2107.25 2252.87C2109.74 2252.87 2110.99 2255.66 2110.99 2261.22C2113.48 2263.25 2114.72 2266.03 2114.72 2269.57C2115.56 2271.6 2115.97 2273.62 2115.97 2275.64C2115.97 2277.67 2116.39 2279.95 2117.22 2282.48C2118.05 2283.99 2118.46 2285.51 2118.46 2287.03C2118.46 2288.55 2118.88 2290.07 2119.71 2291.58L2122.2 2297.66C2122.2 2299.68 2123.03 2301.7 2124.69 2303.73C2123.03 2305.75 2122.2 2307.78 2122.2 2309.8C2123.03 2311.32 2123.45 2312.84 2123.45 2314.36C2122.62 2315.37 2122.2 2317.39 2122.2 2320.43V2330.3C2124.69 2332.83 2125.52 2335.86 2124.69 2339.4V2345.48C2124.69 2347 2125.11 2349.02 2125.94 2351.55L2128.43 2360.66C2129.26 2363.69 2130.09 2366.47 2130.92 2369H2036.12L2033.75 2358.38V2351.55C2032.92 2349.53 2031.67 2347.25 2030.01 2344.72L2026.27 2337.89C2024.61 2336.37 2021.29 2335.1 2016.3 2334.09C2012.15 2335.1 2008.83 2336.12 2006.34 2337.13ZM1724.54 2369C1724.07 2368.03 1723.32 2367.02 1722.29 2365.97V2356.1C1722.29 2350.54 1721.46 2346.74 1719.8 2344.72C1721.46 2340.67 1721.87 2336.12 1721.04 2331.05C1719.38 2325.99 1717.72 2321.44 1716.06 2317.39C1720.21 2313.34 1722.29 2309.3 1722.29 2305.25V2291.58C1723.12 2286.52 1724.36 2281.97 1726.02 2277.92C1726.86 2273.87 1729.35 2269.82 1733.5 2265.78C1731.01 2263.75 1729.76 2260.21 1729.76 2255.15C1731.42 2252.11 1731.01 2248.32 1728.52 2243.76L1722.29 2227.06C1722.29 2224.53 1721.87 2222.26 1721.04 2220.23C1720.21 2217.7 1718.97 2215.17 1717.3 2212.64C1718.13 2210.11 1718.13 2207.84 1717.3 2205.81C1716.47 2203.28 1716.06 2200.5 1716.06 2197.46C1715.23 2194.43 1715.64 2190.88 1717.3 2186.83C1719.8 2182.28 1719.8 2178.23 1717.3 2174.69L1719.8 2168.62C1719.8 2166.09 1719.38 2163.3 1718.55 2160.27C1717.72 2154.2 1717.72 2149.39 1718.55 2145.85C1719.38 2139.77 1719.38 2135.22 1718.55 2132.18C1717.72 2130.16 1717.3 2127.38 1717.3 2123.83L1719.8 2117V2112.45C1719.8 2110.93 1719.38 2108.9 1718.55 2106.37C1718.55 2102.83 1719.8 2100.05 1722.29 2098.03C1718.97 2093.47 1717.72 2087.9 1718.55 2081.33C1720.21 2075.76 1718.13 2070.45 1712.32 2065.39C1701.52 2059.31 1693.22 2056.02 1687.4 2055.52C1683.25 2055.01 1679.93 2054.76 1677.44 2054.76C1674.95 2054.76 1673.28 2054.51 1672.45 2054C1666.64 2054.51 1662.49 2054.76 1660 2054.76C1657.5 2054.76 1655.43 2055.01 1653.77 2055.52C1652.11 2056.53 1650.44 2057.29 1648.78 2057.8C1646.29 2057.8 1644.22 2058.05 1642.55 2058.55L1633.83 2060.83C1632.17 2061.34 1630.93 2061.84 1630.1 2062.35C1628.43 2062.35 1626.77 2062.6 1625.11 2063.11L1617.64 2067.66C1615.15 2069.18 1613.07 2070.95 1611.41 2072.98C1608.09 2077.53 1602.69 2080.57 1595.21 2082.09C1592.72 2086.13 1591.06 2089.93 1590.23 2093.47C1588.57 2097.01 1587.32 2099.8 1586.49 2101.82V2108.65C1585.66 2110.68 1584.83 2112.95 1584 2115.48C1585.66 2117.51 1586.49 2119.28 1586.49 2120.8C1586.49 2122.82 1588.15 2124.34 1591.47 2125.35C1589.81 2127.88 1590.23 2130.16 1592.72 2132.18C1595.21 2134.71 1595.21 2136.99 1592.72 2139.01C1594.38 2143.06 1596.46 2147.62 1598.95 2152.68C1600.61 2157.23 1602.27 2162.29 1603.93 2167.86L1615.15 2199.74C1617.64 2201.26 1619.71 2203.53 1621.38 2206.57L1625.11 2214.16C1625.94 2217.7 1626.36 2221.25 1626.36 2224.79L1623.87 2233.9V2243.76C1623.87 2246.8 1624.28 2249.84 1625.11 2252.87C1627.6 2255.4 1628.85 2257.93 1628.85 2260.46C1628.02 2262.49 1627.19 2265.52 1626.36 2269.57C1625.53 2271.09 1625.11 2273.37 1625.11 2276.4C1625.11 2282.48 1623.45 2287.79 1620.13 2292.34C1618.47 2296.39 1617.64 2299.68 1617.64 2302.21C1611.82 2307.27 1610.99 2312.08 1615.15 2316.63C1618.47 2321.69 1620.96 2327.26 1622.62 2333.33C1623.45 2338.9 1622.62 2344.97 1620.13 2351.55C1617.75 2357.83 1616.51 2363.64 1616.4 2369H1724.54ZM1763.4 2352.31C1757.59 2349.78 1753.85 2344.72 1752.19 2337.13C1754.68 2336.12 1757.17 2334.85 1759.66 2333.33C1761.32 2331.31 1764.23 2330.3 1768.38 2330.3C1770.87 2330.3 1772.95 2330.55 1774.61 2331.05C1776.27 2332.07 1777.52 2333.08 1778.35 2334.09L1780.84 2337.13C1784.16 2338.65 1785.82 2341.43 1785.82 2345.48C1780.84 2350.03 1773.37 2352.31 1763.4 2352.31Z" fill="white"/>
    <path fill-rule="evenodd" clip-rule="evenodd" d="M2474.34 2373L2474.9 2369.01C2474.9 2363.94 2473.72 2355.83 2471.36 2344.67C2469 2334.53 2467.83 2326.67 2467.83 2321.09C2467.83 2315.01 2468.12 2309.94 2468.71 2305.88C2469.89 2301.82 2471.95 2297.01 2474.9 2291.43C2526.19 2280.27 2584.56 2274.7 2650 2274.7C2675.35 2274.7 2700.41 2275.46 2725.17 2276.98L2746.39 2272.41L2745.51 2264.05C2745.51 2257.96 2746.69 2251.37 2749.05 2244.27C2751.99 2237.68 2753.47 2230.07 2753.47 2221.45C2752.88 2219.93 2751.7 2218.16 2749.93 2216.13C2748.75 2214.1 2747.57 2212.58 2746.39 2211.56C2707.48 2208.52 2684.19 2207 2676.53 2207L2647.35 2208.52C2615.51 2210.55 2586.92 2211.56 2561.57 2211.56C2558.03 2215.11 2552.72 2216.89 2545.65 2216.89C2533.27 2216.89 2523.83 2216.63 2517.35 2216.13C2510.86 2215.62 2503.79 2214.1 2496.12 2211.56H2386.47V2373H2419.44C2419.64 2372.94 2419.85 2372.88 2420.07 2372.81C2424.2 2371.8 2427.74 2371.29 2430.68 2371.29C2433.74 2371.29 2437.02 2371.86 2440.52 2373H2474.34ZM2652.65 2235.14C2652.65 2233.11 2652.95 2231.34 2653.54 2229.82H2693.33C2693.33 2234.89 2690.38 2238.69 2684.49 2241.23C2679.18 2243.76 2673.29 2245.03 2666.8 2245.03C2662.09 2245.03 2658.55 2244.52 2656.19 2243.51C2653.83 2241.99 2652.65 2239.2 2652.65 2235.14ZM2468.71 2255.68C2448.08 2263.79 2435.4 2267.85 2430.68 2267.85H2424.49L2436.87 2248.83C2423.9 2254.92 2414.47 2257.96 2408.58 2257.96L2414.77 2235.14C2414.77 2234.64 2428.91 2234.38 2457.21 2234.38C2477.26 2234.38 2492 2236.16 2501.43 2239.71C2500.84 2242.24 2489.93 2247.57 2468.71 2255.68ZM2556.26 2239.71H2550.07L2556.26 2235.14V2239.71ZM2515.58 2254.92C2517.35 2251.88 2520 2249.85 2523.54 2248.83L2524.42 2254.16C2524.42 2259.74 2521.18 2262.53 2514.7 2262.53C2512.93 2262.53 2512.04 2262.02 2512.04 2261L2515.58 2254.92ZM2420.07 2280.78C2424.79 2278.24 2430.39 2276.98 2436.87 2276.98H2440.41C2437.46 2281.03 2433.34 2284.58 2428.03 2287.63C2423.31 2290.67 2418.3 2292.19 2413 2292.19C2413 2287.12 2415.36 2283.32 2420.07 2280.78ZM2427.15 2321.85C2431.27 2320.33 2434.52 2318.05 2436.87 2315.01L2428.91 2315.77C2419.48 2315.77 2414.77 2313.74 2414.77 2309.68C2414.77 2308.67 2418.01 2306.13 2424.49 2302.08C2431.57 2298.02 2436.87 2294.47 2440.41 2291.43L2441.3 2302.84C2441.3 2311.97 2439.23 2319.06 2435.11 2324.14C2431.57 2329.21 2424.79 2335.29 2414.77 2342.39L2413.88 2335.54C2413.88 2331.49 2415.06 2328.7 2417.42 2327.18C2419.78 2325.15 2423.02 2323.37 2427.15 2321.85ZM2419.19 2361.41C2429.21 2345.18 2439.23 2337.07 2449.25 2337.07C2449.25 2345.69 2448.67 2351.52 2447.49 2354.56C2446.9 2357.1 2444.54 2358.87 2440.41 2359.88C2436.87 2360.9 2429.8 2361.41 2419.19 2361.41Z" fill="white"/>
    </g>

    <g class="card_letter-2">
    <path xmlns="http://www.w3.org/2000/svg" fill-rule="evenodd" clip-rule="evenodd" d="M1954.45 2375.81L1950.16 2375.81V2253.33L1887.63 2375.81H1821.28L1935.82 2149H1954.45H1959.04H2099.93V2375.81L1959.04 2375.81L1954.45 2375.81ZM1651.75 2375.81H1642.87V2149H1651.75V2375.81Z" fill="white"/>
    <path xmlns="http://www.w3.org/2000/svg" fill-rule="evenodd" clip-rule="evenodd" d="M2389 2372H2456.02V2303.25H2723V2278H2389V2372Z" fill="white"/>
    </g>
</g>
</svg>
