<svg width="353" height="537" viewBox="0 0 353 537" fill="none" xmlns="http://www.w3.org/2000/svg">
<path d="M329.816 5.05151C222.575 10.8838 116.951 86.3056 77.5441 123.287C39.9403 280.168 131.312 149.944 4.41302 442.587C5.63174 566.895 111.659 532.771 131.158 512.053C146.757 495.479 228.656 438.525 267.655 412.12C373.926 280.5 353.375 85.8994 329.816 5.05151Z" fill="#E299AD" stroke="black" stroke-width="8.34876"/>
<path d="M45.8563 404.767L82.4136 346.314C77.5405 307.308 84.1248 244.164 149.447 303.637" stroke="black" stroke-width="8.34876"/>
<path d="M155.537 280.482C141.606 265.923 125.502 244.245 116.115 220.958M155.537 120.873C262.772 73.3258 285.927 17.2655 299.333 108.668C310.058 181.79 288.371 262.631 276.188 293.911M155.537 120.873C241.338 130.637 260.344 215.926 259.122 257.35M155.537 120.873C103.186 144.085 101.417 184.495 116.115 220.958M116.115 220.958C153.222 228.62 223.049 259.056 205.499 319.503C183.563 395.063 181.125 339.003 140.908 364.595C100.691 390.188 82.4104 415.781 79.973 441.374" stroke="black" stroke-width="8.34876"/>
</svg>
