<svg width="279" height="473" viewBox="0 0 279 473" fill="none" xmlns="http://www.w3.org/2000/svg">
<mask id="path-1-outside-1_77_6194" maskUnits="userSpaceOnUse" x="-0.670291" y="0.240203" width="279.227" height="473.134" fill="black">
<rect fill="white" x="-0.670291" y="0.240203" width="279.227" height="473.134"/>
<path fill-rule="evenodd" clip-rule="evenodd" d="M216.315 295.855C235.479 277.863 257.592 257.103 265.64 145.826C265.605 72.6714 213.743 13.3924 149.802 13.4231C85.8622 13.4537 34.0569 72.7824 34.0919 145.937C34.1058 174.818 37.4161 224.894 43.67 264.32C43.6803 285.042 37.3495 315.572 26.8973 345.736C22.4084 354.185 17.98 364.991 13.4031 378.718C8.1073 417.24 34.6298 453.718 72.6427 460.195C113.62 460.175 148.116 430.799 158.879 397.136C165.879 383.794 173.611 368.229 180.797 353.762C192.233 330.74 202.287 310.501 205.807 306.436C209.125 302.606 212.666 299.281 216.315 295.855Z"/>
</mask>
<path fill-rule="evenodd" clip-rule="evenodd" d="M216.315 295.855C235.479 277.863 257.592 257.103 265.64 145.826C265.605 72.6714 213.743 13.3924 149.802 13.4231C85.8622 13.4537 34.0569 72.7824 34.0919 145.937C34.1058 174.818 37.4161 224.894 43.67 264.32C43.6803 285.042 37.3495 315.572 26.8973 345.736C22.4084 354.185 17.98 364.991 13.4031 378.718C8.1073 417.24 34.6298 453.718 72.6427 460.195C113.62 460.175 148.116 430.799 158.879 397.136C165.879 383.794 173.611 368.229 180.797 353.762C192.233 330.74 202.287 310.501 205.807 306.436C209.125 302.606 212.666 299.281 216.315 295.855Z" fill="#E299AD"/>
<path d="M265.64 145.826L278.167 146.732L278.2 146.277L278.2 145.82L265.64 145.826ZM216.315 295.855L207.718 286.698L207.718 286.698L216.315 295.855ZM43.67 264.32L56.2298 264.314L56.2293 263.327L56.0748 262.353L43.67 264.32ZM26.8973 345.736L37.9886 351.63L38.4458 350.769L38.7649 349.849L26.8973 345.736ZM13.4031 378.718L1.4881 374.746L1.11916 375.852L0.960293 377.008L13.4031 378.718ZM72.6427 460.195L70.5331 472.576L71.5833 472.755L72.6487 472.755L72.6427 460.195ZM158.879 397.136L147.757 391.301L147.249 392.269L146.916 393.311L158.879 397.136ZM180.797 353.762L169.549 348.175L180.797 353.762ZM205.807 306.436L196.313 298.214L196.313 298.214L205.807 306.436ZM253.113 144.92C249.131 199.975 241.731 231.438 233.559 250.976C225.654 269.874 216.873 278.104 207.718 286.698L224.912 305.012C234.922 295.614 246.778 284.469 256.733 260.669C266.42 237.51 274.101 202.954 278.167 146.732L253.113 144.92ZM149.808 25.9829C205.277 25.9563 253.048 77.9725 253.08 145.832L278.2 145.82C278.162 67.3704 222.208 0.828506 149.796 0.863208L149.808 25.9829ZM46.6518 145.931C46.6193 78.0714 94.3398 26.0095 149.808 25.9829L149.796 0.863208C77.3846 0.897909 21.4945 67.4934 21.5321 145.943L46.6518 145.931ZM56.0748 262.353C49.9303 223.616 46.6653 174.198 46.6518 145.931L21.5321 145.943C21.5462 175.438 24.9018 226.171 31.2652 266.288L56.0748 262.353ZM38.7649 349.849C49.4478 319.018 56.2412 286.997 56.2298 264.314L31.1101 264.326C31.1195 283.088 25.2512 312.126 15.0297 341.624L38.7649 349.849ZM25.3181 382.691C29.7714 369.334 33.9452 359.24 37.9886 351.63L15.806 339.843C10.8716 349.129 6.18856 360.648 1.4881 374.746L25.3181 382.691ZM74.7523 447.814C43.5152 442.491 21.4606 412.328 25.8459 380.429L0.960293 377.008C-5.246 422.152 25.7444 464.945 70.5331 472.576L74.7523 447.814ZM146.916 393.311C137.672 422.224 107.694 447.618 72.6367 447.635L72.6487 472.755C119.546 472.732 158.561 439.374 170.843 400.961L146.916 393.311ZM169.549 348.175C162.347 362.673 154.68 378.106 147.757 391.301L170.001 402.971C177.078 389.482 184.875 373.785 192.046 359.35L169.549 348.175ZM196.313 298.214C194.514 300.29 192.669 303.36 191.117 306.077C189.377 309.122 187.343 312.925 185.123 317.205C180.677 325.771 175.249 336.699 169.549 348.175L192.046 359.35C197.781 347.803 203.098 337.101 207.419 328.775C209.581 324.609 211.435 321.151 212.928 318.539C214.608 315.599 215.339 314.615 215.301 314.659L196.313 298.214ZM207.718 286.698C204.138 290.06 200.122 293.815 196.313 298.214L215.301 314.659C218.127 311.397 221.195 308.501 224.912 305.012L207.718 286.698Z" fill="black" mask="url(#path-1-outside-1_77_6194)"/>
<mask id="path-3-inside-2_77_6194" fill="white">
<path fill-rule="evenodd" clip-rule="evenodd" d="M151.743 279.25C163.585 266.316 177.249 251.391 182.218 171.385C182.192 118.788 150.14 76.1652 110.627 76.1841C71.1135 76.2031 39.1021 118.857 39.1273 171.454C39.1372 192.218 41.1853 228.222 45.052 256.569C45.0594 271.453 41.1564 293.374 34.7102 315.04C31.9218 321.128 29.172 328.926 26.3297 338.847C23.0589 366.543 39.4508 392.771 62.9421 397.43C88.2441 397.418 109.546 376.333 116.214 352.156C120.55 342.544 125.343 331.316 129.797 320.883C136.863 304.331 143.075 289.78 145.25 286.858C147.3 284.104 149.489 281.713 151.743 279.25Z"/>
</mask>
<path d="M182.218 171.385L191.916 171.987L191.934 171.684L191.934 171.381L182.218 171.385ZM151.743 279.25L144.577 272.689L144.577 272.689L151.743 279.25ZM45.052 256.569L54.7686 256.564L54.7683 255.907L54.6795 255.256L45.052 256.569ZM34.7102 315.04L43.5442 319.086L43.8286 318.465L44.0234 317.811L34.7102 315.04ZM26.3297 338.847L16.9889 336.171L16.7723 336.926L16.6801 337.707L26.3297 338.847ZM62.9421 397.43L61.0519 406.961L61.9902 407.147L62.9467 407.147L62.9421 397.43ZM116.214 352.156L107.357 348.161L107.048 348.847L106.848 349.572L116.214 352.156ZM129.797 320.883L120.861 317.068L129.797 320.883ZM145.25 286.858L153.044 292.66L153.044 292.66L145.25 286.858ZM172.52 170.783C170.059 210.41 165.48 233.091 160.414 247.183C155.534 260.759 150.149 266.602 144.577 272.689L158.91 285.812C165.18 278.964 172.548 270.877 178.702 253.756C184.671 237.15 189.408 212.366 191.916 171.987L172.52 170.783ZM110.631 85.9007C126.651 85.8931 141.893 94.5062 153.464 109.894C165.038 125.284 172.489 146.994 172.501 171.39L191.934 171.381C191.921 143.179 183.333 117.279 168.996 98.2138C154.656 79.1451 134.116 66.4562 110.622 66.4675L110.631 85.9007ZM48.8439 171.449C48.8322 147.053 56.2624 125.337 67.8216 109.935C79.378 94.5362 94.6119 85.9084 110.631 85.9007L110.622 66.4675C87.1283 66.4787 66.5999 79.1873 52.2786 98.2697C37.96 117.349 29.3971 143.257 29.4107 171.458L48.8439 171.449ZM54.6795 255.256C50.8759 227.371 48.8537 191.806 48.8439 171.449L29.4107 171.458C29.4208 192.63 31.4947 229.072 35.4245 257.882L54.6795 255.256ZM44.0234 317.811C50.6094 295.675 54.7767 272.751 54.7686 256.564L35.3354 256.574C35.3421 270.155 31.7033 291.073 25.397 312.269L44.0234 317.811ZM35.6705 341.523C38.4405 331.855 41.0349 324.565 43.5442 319.086L25.8762 310.994C22.8087 317.691 19.9036 325.998 16.9889 336.171L35.6705 341.523ZM64.8322 387.899C47.4833 384.458 33.1527 363.921 35.9793 339.986L16.6801 337.707C12.965 369.165 31.4183 401.084 61.0519 406.961L64.8322 387.899ZM106.848 349.572C100.995 370.79 82.694 387.704 62.9374 387.713L62.9467 407.147C93.7942 407.132 118.097 381.876 125.581 354.739L106.848 349.572ZM120.861 317.068C116.397 327.524 111.645 338.656 107.357 348.161L125.072 356.151C129.456 346.432 134.29 335.108 138.734 324.698L120.861 317.068ZM137.456 281.056C136.298 282.611 135.14 284.862 134.19 286.796C133.113 288.989 131.856 291.725 130.484 294.801C127.737 300.96 124.383 308.817 120.861 317.068L138.734 324.698C142.277 316.396 145.563 308.702 148.232 302.717C149.568 299.721 150.713 297.237 151.634 295.362C152.681 293.228 153.115 292.565 153.044 292.66L137.456 281.056ZM144.577 272.689C142.366 275.104 139.846 277.845 137.456 281.056L153.044 292.66C154.754 290.362 156.612 288.323 158.91 285.812L144.577 272.689Z" fill="black" mask="url(#path-3-inside-2_77_6194)"/>
<mask id="path-5-inside-3_77_6194" fill="white">
<path fill-rule="evenodd" clip-rule="evenodd" d="M216.315 295.855C235.479 277.863 257.592 257.103 265.64 145.826C265.605 72.6714 213.743 13.3924 149.802 13.4231C85.8622 13.4537 34.0569 72.7824 34.0919 145.937C34.9182 186.729 35.6851 195.448 36.6181 206.057C37.4646 215.682 38.4478 226.862 39.7363 264.956C39.7468 286.025 35.9443 316.788 26.0832 347.296C21.872 355.503 17.7031 365.822 13.4031 378.718C8.1073 417.24 34.6298 453.718 72.6427 460.195C113.62 460.175 148.116 430.799 158.879 397.136C165.879 383.794 173.611 368.229 180.797 353.762C192.233 330.74 202.287 310.501 205.807 306.436C209.125 302.606 212.666 299.281 216.315 295.855Z"/>
</mask>
<path d="M265.64 145.826L285.91 147.293L285.964 146.556L285.963 145.817L265.64 145.826ZM216.315 295.855L202.405 281.038L202.405 281.038L216.315 295.855ZM34.0919 145.937L13.7687 145.947L13.7688 146.148L13.7729 146.349L34.0919 145.937ZM36.6181 206.057L16.373 207.838L16.373 207.838L36.6181 206.057ZM39.7363 264.956L60.0596 264.946L60.0594 264.607L60.0479 264.269L39.7363 264.956ZM26.0832 347.296L44.165 356.574L44.9155 355.111L45.4212 353.547L26.0832 347.296ZM13.4031 378.718L-5.87671 372.29L-6.4737 374.08L-6.73075 375.95L13.4031 378.718ZM72.6427 460.195L69.2291 480.23L70.9285 480.519L72.6524 480.518L72.6427 460.195ZM158.879 397.136L140.883 387.694L140.061 389.261L139.522 390.947L158.879 397.136ZM180.797 353.762L162.596 344.721L180.797 353.762ZM205.807 306.436L190.445 293.131L190.445 293.131L205.807 306.436ZM245.37 144.36C241.414 199.055 234.101 229.561 226.397 247.98C219.126 265.364 211.294 272.692 202.405 281.038L230.225 310.672C240.5 301.026 253.307 288.979 263.895 263.665C274.05 239.387 281.818 203.875 285.91 147.293L245.37 144.36ZM149.812 33.7463C200.044 33.7222 245.286 81.2491 245.317 145.836L285.963 145.817C285.924 64.0937 227.441 -6.93739 149.793 -6.90018L149.812 33.7463ZM54.4152 145.928C54.3842 81.3406 99.5799 33.7704 149.812 33.7463L149.793 -6.90018C72.1446 -6.86297 13.7295 64.2242 13.7687 145.947L54.4152 145.928ZM56.8632 204.277C55.9835 194.275 55.2317 186.043 54.411 145.526L13.7729 146.349C14.6047 187.414 15.3866 196.622 16.373 207.838L56.8632 204.277ZM60.0479 264.269C58.7493 225.875 57.7469 214.325 56.8632 204.277L16.373 207.838C17.1822 217.039 18.1464 227.849 19.4247 265.643L60.0479 264.269ZM45.4212 353.547C55.9608 320.94 60.0711 288.059 60.0596 264.946L19.4131 264.966C19.4226 283.991 15.9278 312.636 6.74509 341.045L45.4212 353.547ZM32.6829 385.147C36.791 372.825 40.5857 363.549 44.165 356.574L8.00137 338.018C3.15824 347.456 -1.38482 358.818 -5.87671 372.29L32.6829 385.147ZM76.0563 440.16C49.0073 435.552 29.7144 409.291 33.537 381.486L-6.73075 375.95C-13.4998 425.188 20.2522 471.885 69.2291 480.23L76.0563 440.16ZM139.522 390.947C131.216 416.924 104.031 439.857 72.6329 439.872L72.6524 480.518C123.21 480.494 165.016 444.674 178.237 403.326L139.522 390.947ZM162.596 344.721C155.384 359.239 147.758 374.59 140.883 387.694L176.876 406.578C184.001 392.998 191.838 377.219 198.999 362.804L162.596 344.721ZM190.445 293.131C188.078 295.863 185.889 299.578 184.376 302.226C182.56 305.405 180.471 309.314 178.232 313.629C173.748 322.269 168.286 333.267 162.596 344.721L198.999 362.804C204.745 351.235 210.028 340.602 214.309 332.351C216.454 328.22 218.252 324.869 219.668 322.39C221.388 319.381 221.775 319.042 221.169 319.742L190.445 293.131ZM202.405 281.038C198.866 284.361 194.558 288.382 190.445 293.131L221.169 319.742C223.691 316.83 226.467 314.201 230.225 310.672L202.405 281.038Z" fill="#E299AD" mask="url(#path-5-inside-3_77_6194)"/>
</svg>
