<svg width="623" height="692" viewBox="0 0 623 692" fill="none" xmlns="http://www.w3.org/2000/svg">
<path fill-rule="evenodd" clip-rule="evenodd" d="M0.0120117 488.293C6.82633 404.961 387.362 94.3883 585.844 6.93807C784.325 -80.5122 118.071 703.578 68.9908 691.567L0.0120117 488.293ZM72.5897 483.45C76.1662 475.443 80.2901 467.223 84.9461 458.811C89.3928 450.777 94.3143 442.586 99.6905 434.26C107.837 441.646 117.331 448.542 126.997 452.904C137.836 457.796 149.555 459.781 159.789 454.696C170.059 449.594 177.619 437.98 181.545 418.537C185.453 399.177 185.916 371.377 181.442 332.604C187.209 326.519 193.146 320.409 199.247 314.279C206.995 306.493 215.005 298.679 223.263 290.849C224.017 310.527 224.191 338.119 222.564 364.949C221.636 380.246 220.127 395.235 217.823 408.338C215.507 421.507 212.433 432.496 208.506 439.963L214.991 443.374C219.453 434.891 222.683 423.009 225.039 409.607C227.408 396.138 228.94 380.852 229.878 365.392C231.705 335.257 231.286 304.225 230.31 284.22C262.066 254.579 297.324 224.764 335.387 195.462C342.686 208.195 357.131 225.171 377.073 235.037C397.294 245.041 423.008 247.63 452.022 231.437L448.451 225.038C421.684 239.978 398.528 237.476 380.322 228.469C361.911 219.36 348.405 203.493 341.672 191.692L336.315 194.749C416.075 133.437 508.094 74.3985 605.981 23.933L602.624 17.4201C441.135 100.675 295.455 207.218 194.053 309.11C143.359 360.049 103.625 409.931 78.535 455.262C53.5091 500.478 42.7286 541.758 50.9793 575.187L58.0933 573.431C52.4937 550.743 56.3263 523.425 68.6577 492.715C77.4468 488.483 88.7 487.284 96.3377 495.8C100.345 500.269 103.797 507.786 105.305 520.01C106.811 532.22 106.342 548.865 102.751 571.258L109.986 572.418C113.641 549.625 114.196 532.241 112.577 519.113C110.959 505.997 107.137 496.867 101.793 490.908C93.2376 481.369 81.8819 480.904 72.5897 483.45ZM174.845 339.634C146.565 370.068 122.616 399.803 103.764 428.056C111.726 435.399 120.917 442.121 130.012 446.226C139.968 450.719 149.148 451.801 156.528 448.134C163.871 444.486 170.638 435.531 174.362 417.087C177.851 399.807 178.529 374.795 174.845 339.634ZM573.671 90.5468C399.664 350.529 189.746 556.966 106.414 627.787L101.668 622.204C184.567 551.751 394.007 345.808 567.581 86.4711L573.671 90.5468ZM339.822 306.858C336.955 333.709 324.025 362.134 313.057 380.101L306.803 376.283C317.465 358.818 329.827 331.451 332.536 306.08C333.888 293.42 332.805 281.546 328.189 271.689C323.625 261.944 315.47 253.863 302.01 248.887L304.551 242.014C319.708 247.617 329.396 256.989 334.824 268.581C340.2 280.06 341.258 293.405 339.822 306.858Z" fill="#E299AD"/>
</svg>
