<svg width="295" height="472" viewBox="0 0 295 472" fill="none" xmlns="http://www.w3.org/2000/svg">
<path fill-rule="evenodd" clip-rule="evenodd" d="M249.221 104.107C162.171 13.5504 -8.96638 -100.922 2.88118 165.638C-8.96574 222.899 31.0348 353.712 174.385 418.871C214.369 458.855 272.107 514.832 294.617 418.871C282.068 381.988 273.544 297.234 266.252 224.718C260.261 165.142 255.101 113.827 249.221 104.107ZM51.2849 234.273C47.0962 210.351 44.1335 183.748 43.9042 158.822C43.6756 133.969 46.1579 110.458 53.0808 92.9117C60.0411 75.27 71.8492 62.9599 90.3367 62.4348C108.241 61.9262 131.327 72.5981 160.844 97.3738C180.536 113.902 203.324 136.909 229.64 167.614L229.916 167.936L230.107 168.313C235.803 179.574 239.468 197.457 233.793 216.822C227.006 239.982 207.073 264.604 162.925 282.574C165.491 290.459 168.639 298.995 172.257 307.467C197.673 287.841 217.056 286.464 231.017 294.971C245.06 303.527 251.958 321.227 254.211 334.391L254.399 335.49L253.918 336.496C246.563 351.884 238.777 361.574 230.534 366.284C221.995 371.163 213.432 370.442 205.571 366.142C197.915 361.955 190.878 354.382 184.613 345.372C178.31 336.306 172.592 325.498 167.669 314.489C162.699 303.372 158.505 291.973 155.318 281.82C150.358 271.533 145.787 259.376 143.372 247.573C140.959 235.786 140.585 223.82 144.685 214.427C146.768 209.656 150.003 205.562 154.634 202.579C159.244 199.611 165.045 197.866 172.096 197.464C185.416 196.703 203.633 200.706 228.059 211.002C231.629 195.249 228.541 180.984 224.032 171.852C198.886 142.538 177.114 120.456 158.327 104.435C147.728 111.581 133.266 123.557 121.955 137.869C109.775 153.279 101.792 170.691 105.042 187.406L98.1551 188.745C94.3132 168.987 103.849 149.462 116.45 133.518C127.706 119.276 141.842 107.328 152.727 99.7662C125.319 77.4509 105.093 69.0349 90.5359 69.4483C75.9308 69.8632 65.9997 79.2853 59.6076 95.4868C53.178 111.783 50.6946 134.226 50.9203 158.757C51.1453 183.214 54.057 209.424 58.1962 233.063L51.2849 234.273ZM150.246 246.166C152.311 256.258 156.09 266.768 160.354 276.045C200.983 259.492 219.259 237.63 226.118 217.799C201.677 207.418 184.383 203.79 172.496 204.469C166.372 204.818 161.81 206.304 158.433 208.478C155.077 210.639 152.702 213.601 151.116 217.234C147.88 224.647 147.936 234.881 150.246 246.166ZM227.367 300.963C216.777 294.511 200.21 294.25 175.188 314.081C179.73 323.96 184.855 333.43 190.374 341.367C196.388 350.015 202.676 356.562 208.938 359.987C214.994 363.299 220.942 363.683 227.053 360.191C233.314 356.614 240.145 348.744 247.098 334.483C244.794 322.268 238.488 307.739 227.367 300.963Z" fill="#E299AD"/>
</svg>
