<svg width="352" height="517" viewBox="0 0 352 517" fill="none" xmlns="http://www.w3.org/2000/svg">
<path d="M7.80523 228.99C125.895 -149.556 247.165 46.4816 338.724 143.148L312.805 212.737C290.046 181.635 238.713 158.395 209.64 223.427C187.832 272.207 250.701 335.87 298.566 389.788C325.303 419.906 347.358 446.982 347.358 466.725C347.358 561.922 215.975 484.213 136.187 430.138C11.8529 364.795 -3.50291 268.813 7.80523 228.99Z" fill="#E299AD"/>
<path d="M312.805 212.737C290.046 181.635 238.713 158.395 209.64 223.427C187.832 272.207 250.701 335.87 298.566 389.788M312.805 212.737C299.276 182.629 277.899 146.801 251.75 120.528M312.805 212.737L338.724 143.148C247.165 46.4816 125.895 -149.556 7.80523 228.99C-3.50291 268.813 11.8529 364.795 136.187 430.138C215.975 484.213 347.358 561.922 347.358 466.725C347.358 446.982 325.303 419.906 298.566 389.788M83.4002 158.395C143.053 57.1417 205.022 73.5775 251.75 120.528M251.75 120.528C204.033 120.205 115.796 150.616 144.59 274.848C173.383 399.08 259.238 403.238 298.566 389.788" stroke="black" stroke-width="9.2438"/>
</svg>
