<svg width="419" height="315" viewBox="0 0 419 315" fill="none" xmlns="http://www.w3.org/2000/svg">
<path fill-rule="evenodd" clip-rule="evenodd" d="M418.92 157.732C385.102 106.047 295.874 2.30008 209.503 0.788084C123.133 2.30007 33.9046 106.047 0.0862058 157.732L0.0857785 157.732C0.0858396 157.733 0.0859311 157.733 0.0859922 157.733C0.0859311 157.733 0.0858396 157.733 0.0857785 157.733L0.0862058 157.733C33.9046 209.418 123.133 313.165 209.503 314.677C295.874 313.165 385.102 209.418 418.92 157.733L418.921 157.733C418.921 157.733 418.921 157.733 418.921 157.733C418.921 157.733 418.921 157.733 418.921 157.732L418.92 157.732Z" fill="white"/>
<circle cx="209.512" cy="156.426" r="94.7229" fill="#FDB600"/>
<circle cx="209.499" cy="157.735" r="49.6922" fill="black"/>
</svg>
