<svg width="421" height="211" viewBox="0 0 421 211" fill="none" xmlns="http://www.w3.org/2000/svg">
<path fill-rule="evenodd" clip-rule="evenodd" d="M420.939 105.673C387.011 71.1409 297.514 1.84109 210.884 0.831055C124.254 1.84109 34.7569 71.1409 0.828491 105.673H0.820557C0.821869 105.674 0.823212 105.675 0.824524 105.677C0.823181 105.678 0.821838 105.679 0.820496 105.681H0.828552C34.7569 140.213 124.254 209.512 210.884 210.522C297.514 209.512 387.011 140.213 420.939 105.681H420.947C420.946 105.679 420.945 105.678 420.943 105.677C420.945 105.675 420.946 105.674 420.947 105.673H420.939Z" fill="white"/>
<circle cx="210.883" cy="105.68" r="90.3131" fill="#8000FF"/>
<circle cx="210.886" cy="105.68" r="47.1169" fill="black"/>
</svg>
