<svg width="409" height="332" viewBox="0 0 409 332" fill="none" xmlns="http://www.w3.org/2000/svg">
<path d="M116.576 0.18042C107.037 15.6253 141.371 38.7893 159.73 48.4406C166.732 70.3956 170.63 104.994 130.203 67.7465L116.374 76.1243C127.019 81.336 121.455 79.5913 114.78 77.0901L71.1556 103.517C-5.60991 98.5208 -4.74023 59.4189 5.2903 40.4925C8.46994 72.7421 60.3877 67.5911 85.9491 60.9844C58.7883 43.7175 43.422 16.4917 38.7888 3.58599C46.965 18.5757 98.5416 48.0973 123.308 60.9844C91.5644 27.6727 105.036 6.74895 116.576 0.18042Z" fill="white"/>
<path d="M408.167 242.475C408.167 242.475 402.789 296.949 230.156 331.224C61.161 340.386 34.6885 248.087 34.6885 174.497C34.6885 100.907 98.2648 47.2048 191.954 47.2048C285.644 47.2048 364.6 106.398 408.167 242.475Z" fill="white"/>
<path d="M408.657 245.387C333.714 291.271 335.098 288.721 272.027 288.721C208.957 288.721 160.938 222.19 160.938 162.78C160.938 103.371 192.694 66.4319 255.765 66.4319C318.835 66.4319 408.657 185.978 408.657 245.387Z" fill="#FC5812"/>
<circle cx="320.501" cy="189.523" r="54.9399" fill="black"/>
</svg>
