<svg width="533" height="295" viewBox="0 0 533 295" fill="none" xmlns="http://www.w3.org/2000/svg">
<path d="M136.113 23.866C110.567 46.4073 34.9454 100.582 0.328125 124.852C163.202 325.321 217.47 275.282 266.197 294.839V13.0653C208.903 -5.71951 168.046 -4.31065 136.113 23.866Z" fill="#E299AD"/>
<path d="M396.278 23.866C421.824 46.4073 497.445 100.582 532.062 124.852C369.188 325.321 314.92 275.282 266.194 294.839V13.0653C323.488 -5.71951 364.344 -4.31065 396.278 23.866Z" fill="#E299AD"/>
<path d="M156.446 99.3878C193.334 67.8521 244.988 72.2073 266.204 78.3269V179.308C207.668 187.516 103.823 150.327 59.2173 130.707C76.2573 133.407 119.559 130.924 156.446 99.3878Z" fill="#80263E"/>
<path d="M375.962 99.3878C339.074 67.8521 287.42 72.2073 266.204 78.3269V179.308C324.741 187.516 428.586 150.327 473.191 130.707C456.151 133.407 412.849 130.924 375.962 99.3878Z" fill="#80263E"/>
<path d="M266.204 78.1549V116.381C209.538 117.789 162.256 115.497 145.18 107.879C155.808 96.9594 175.622 83.7504 197.818 76.8773C219.104 70.2861 251.886 74.2143 266.204 78.1549Z" fill="white"/>
<path d="M266.204 78.1549V116.381C322.871 117.789 370.152 115.497 387.228 107.879C376.6 96.9594 356.786 83.7504 334.59 76.8773C313.304 70.2861 280.522 74.2143 266.204 78.1549Z" fill="white"/>
<path d="M326.085 176.686C326.085 180.6 299.306 182.277 266.179 182.277C233.053 182.277 204.932 180.6 204.932 176.686C204.932 172.772 233.053 173.577 266.179 173.577C299.306 173.577 326.085 172.772 326.085 176.686Z" fill="white"/>
</svg>
