<svg width="521" height="250" viewBox="0 0 521 250" fill="none" xmlns="http://www.w3.org/2000/svg">
<path fill-rule="evenodd" clip-rule="evenodd" d="M108.748 57.2021C137.353 32.3648 164.578 8.72522 187.826 0.657709C224.376 -0.478112 238.403 17.8819 247.579 29.8924C252.206 35.9494 255.6 40.3915 260.026 39.9039V39.8673C260.071 39.8746 260.116 39.8814 260.16 39.8877C260.225 39.8792 260.29 39.8696 260.354 39.859V39.9122C264.781 40.3997 268.175 35.9576 272.802 29.9007C281.978 17.8902 296.005 -0.469887 332.555 0.665935C355.802 8.73344 383.028 32.373 411.633 57.2104C447.41 88.2752 485.345 121.214 520.353 127.902C502.043 133.405 481.401 147.8 449.775 169.854C422.119 189.139 386.065 214.281 335.827 244.456C314.065 257.527 266.147 240.514 260.186 234.695C254.189 240.522 206.305 257.513 184.554 244.448C134.316 214.273 98.2615 189.131 70.6059 169.846C38.9802 147.792 18.3375 133.397 0.0273437 127.893C35.0362 121.206 72.9711 88.267 108.748 57.2021Z" fill="#80263E"/>
<path fill-rule="evenodd" clip-rule="evenodd" d="M461.265 122.419C407.313 112.857 329.258 99.0223 260.753 124.939H260.177V39.8541C264.766 40.6039 268.212 36.0933 272.953 29.8876C282.129 17.8771 296.155 -0.482996 332.706 0.652827C355.953 8.72034 383.179 32.3599 411.783 57.1972C443.797 84.9942 477.538 114.291 509.365 124.939H475.656C471.087 124.16 466.283 123.309 461.271 122.42L461.265 122.419ZM59.0885 122.419C113.035 112.858 191.079 99.0253 259.579 124.931H260.177V39.8542C255.588 40.604 252.142 36.0934 247.401 29.8876C238.225 17.8771 224.198 -0.482929 187.648 0.652893C164.401 8.7204 137.175 32.36 108.57 57.1973C76.5652 84.9872 42.8331 114.276 11.0137 124.931H44.7459C49.3022 124.154 54.092 123.305 59.0884 122.419L59.0885 122.419Z" fill="#E299AD"/>
</svg>
