<svg width="739" height="306" viewBox="0 0 739 306" fill="none" xmlns="http://www.w3.org/2000/svg">
<path d="M393.656 146.708C331.155 52.9546 216.57 87.3922 167.09 116.33C294.173 417.723 493.193 292.836 576.817 192.718C545.567 92.0229 441.689 120.088 393.656 146.708Z" fill="#E299AD"/>
<path d="M235.172 158.461C315.175 194.657 413.259 218.318 520.579 206.085C400.724 250.935 280.368 193.024 235.172 158.461Z" fill="#80263E"/>
<path d="M63.4366 41.1205C99.1898 78.1517 158.982 123.991 235.172 158.461M703.429 150.021C640.682 181.981 579.25 199.397 520.579 206.085M4.53711 57.5342C15.8975 38.7307 49.6654 2.06402 93.8535 5.82471M676.758 98.6699C697.912 113.948 738.809 153.67 733.168 190.337M235.172 158.461C315.175 194.657 413.259 218.318 520.579 206.085M235.172 158.461C280.368 193.024 400.724 250.935 520.579 206.085" stroke="#80263E" stroke-width="10.4199"/>
</svg>
