<svg width="525" height="296" viewBox="0 0 525 296" fill="none" xmlns="http://www.w3.org/2000/svg">
<path d="M258.98 16.3638C138.496 -25.3645 29.5273 122.894 26.6072 122.894C13.2657 142.083 -42.0678 130.773 63.0128 260.427C128.409 341.116 206.456 264.875 258.98 196.49C311.504 128.104 439.411 171.471 503.904 150.899C568.398 130.328 464.842 41.7319 411.459 16.3638C358.076 -9.00428 334.35 1.82943 304.154 13.1531C279.997 22.212 263.972 19.0681 258.98 16.3638Z" fill="#E299AD"/>
<path d="M240.297 139.968C138.088 258.941 40.8811 192.696 5.05371 144.702C271.662 -6.71458 449.182 67.8522 509.571 127.787C367.343 93.7175 274.097 124.195 240.297 139.968Z" fill="#80263E"/>
<path d="M145.272 86.7877C141.141 64.1737 408.443 25.0874 431.365 96.5318C299.453 142.905 182.512 119.235 145.272 86.7877Z" fill="white"/>
</svg>
