<svg width="520" height="215" viewBox="0 0 520 215" fill="none" xmlns="http://www.w3.org/2000/svg">
<path fill-rule="evenodd" clip-rule="evenodd" d="M259.575 33.6368L260 33.5219V214.782C141.353 213.811 32.6911 101.227 0.0644531 0.433105C12.7757 4.60989 21.96 9.97865 30.5816 15.0184C51.5044 27.249 69.1129 37.5422 125.771 24.16C211.962 3.80238 226.272 13.7283 241.567 24.3383C246.477 27.7443 251.489 31.2209 259.013 33.7887C259.201 33.7379 259.388 33.6872 259.575 33.6368ZM260.559 33.6727C260.372 33.6222 260.186 33.5718 260 33.5216V214.782C378.647 213.812 487.31 101.227 519.937 0.433105C507.225 4.60989 498.041 9.97865 489.419 15.0184C468.497 27.249 450.888 37.5422 394.23 24.16C308.039 3.80238 293.729 13.7283 278.434 24.3383C273.524 27.7443 268.512 31.2209 260.988 33.7887L260.559 33.6727Z" fill="#E299AD"/>
<path d="M8.28906 8.56982C13.4372 12.1496 18.5705 15.8206 23.6989 19.5541C203.719 142.452 405.261 93.7412 494.907 23.3052C500.443 18.5713 506.045 13.661 511.714 8.56982C506.666 13.5515 501.049 18.4793 494.907 23.3052C258.313 225.625 142.299 105.893 23.6989 19.5541C18.5436 16.0346 13.406 12.3743 8.28906 8.56982Z" fill="white"/>
</svg>
