<svg width="692" height="246" viewBox="0 0 692 246" fill="none" xmlns="http://www.w3.org/2000/svg">
<path fill-rule="evenodd" clip-rule="evenodd" d="M345.976 211.97C352.901 237.042 378.432 272.139 425.167 211.967C441.963 236.066 483.588 269.804 515.719 211.967C534.463 233.388 578.814 263.377 606.272 211.967C623.373 229.101 662.815 256.694 683.772 230C728.956 143.325 579.984 -117.381 345.976 62.0866C111.969 -117.381 -37.0032 143.325 8.18057 230C29.1378 256.694 68.5797 229.101 85.681 211.967C113.139 263.377 157.49 233.388 176.233 211.967C208.365 269.804 249.989 236.066 266.785 211.967C313.521 272.139 339.052 237.042 345.976 211.97Z" fill="#FC5812"/>
</svg>
