<svg width="889" height="353" viewBox="0 0 889 353" fill="none" xmlns="http://www.w3.org/2000/svg">
<path fill-rule="evenodd" clip-rule="evenodd" d="M444.379 55.5557C502.596 14.2431 648.579 -43.5913 766.799 55.5577C800.818 75.7036 797.282 139.902 794.003 199.434C789.481 281.545 785.447 354.779 881.117 291.303C896.337 311.999 893.35 335.452 808.445 351.387C766.799 359.203 656.369 323.501 655.294 247.367C655.294 243.262 655.448 238.605 655.614 233.583C656.896 194.747 658.9 134.074 596.09 137.733C507.766 142.877 444.864 118.455 444.379 108.786C443.894 118.455 380.992 142.877 292.668 137.733C229.858 134.074 231.861 194.747 233.144 233.583C233.31 238.605 233.464 243.262 233.464 247.367C232.389 323.501 121.959 359.203 80.3127 351.387C-4.59189 335.452 -7.57889 311.999 7.64099 291.303C103.311 354.779 99.2774 281.545 94.7549 199.434C91.4759 139.902 87.94 75.7036 121.959 55.5577C240.179 -43.5913 386.162 14.2431 444.379 55.5557Z" fill="#FDB600"/>
</svg>
