<svg width="927" height="338" viewBox="0 0 927 338" fill="none" xmlns="http://www.w3.org/2000/svg">
<path fill-rule="evenodd" clip-rule="evenodd" d="M463.715 1.97794C418.724 -3.37197 301.393 7.53422 271.643 125.79C234.025 275.319 87.9162 374.627 30.6776 243.174C20.191 208.096 51.1253 156.516 99.2988 187.698C90.6471 170.12 64.2074 140.237 27.6618 161.331C-18.0201 187.698 -15.9437 341.316 120.063 337.877C190.211 336.103 243.195 271.775 296.741 206.765C347.014 145.729 397.782 84.0914 463.715 73.0574V1.97794ZM463.715 1.97794C508.706 -3.37197 626.037 7.53422 655.787 125.79C693.405 275.319 839.514 374.627 896.752 243.174C907.239 208.096 876.305 156.516 828.131 187.698C836.783 170.12 863.223 140.237 899.768 161.331C945.45 187.698 943.374 341.316 807.367 337.877C737.219 336.103 684.235 271.775 630.689 206.765C580.416 145.729 529.648 84.0914 463.715 73.0574V1.97794Z" fill="#097441"/>
</svg>
