<svg width="814" height="259" viewBox="0 0 814 259" fill="none" xmlns="http://www.w3.org/2000/svg">
<path fill-rule="evenodd" clip-rule="evenodd" d="M10.4399 17.6483C5.88957 25.6566 1.00725 56.8459 0.861328 72.8632L1.15047 74.9131C-0.359248 104.265 24.9284 184.102 39.1327 199.108C54.4347 215.273 104.299 247.913 124.373 247.418C162.487 257.357 215.699 259.219 255.278 258.75C305.445 258.157 372.69 227.689 407.088 192.767C441.486 227.689 508.732 258.157 558.899 258.75C598.487 259.219 651.713 257.356 689.829 247.412C709.927 247.866 759.74 215.256 775.032 199.1C789.239 184.092 814.533 104.229 813.014 74.8901L813.3 72.8632C813.154 56.8459 808.271 25.6566 803.721 17.6483C798.033 7.63786 788.576 -3.65065 767.575 1.7837C746.573 7.21804 710.237 34.0796 710.237 65.3361C710.237 71.8012 710.039 76.6764 709.882 80.5428C709.291 95.0968 709.28 95.3577 722.591 112.326C731.903 124.195 754.451 115.987 752.701 112.326C737.071 106.46 727.608 85.2644 733.231 72.8632C734.315 70.4721 735.292 67.9501 736.285 65.385C741.619 51.6045 747.435 36.5819 773.047 33.9651C786.015 32.6401 793.18 56.1863 787.23 87.0763C784.532 105.191 777.198 129.804 752.701 141.508C738.698 144.163 708.965 141.933 697.788 132.637C653.019 77.0318 587.657 53.9471 515.773 53.0967C471.326 52.5709 430.924 72.0937 407.089 98.7001C383.253 72.0936 342.851 52.5707 298.404 53.0965C226.537 53.9467 161.19 77.0205 116.422 132.596C105.282 141.927 75.4833 144.167 61.4596 141.508C36.9629 129.804 29.6293 105.191 26.9312 87.0763C20.9807 56.1863 28.1464 32.6401 41.1144 33.9651C66.7262 36.5819 72.5416 51.6045 77.8762 65.385C78.8692 67.9501 79.8455 70.4721 80.9297 72.8632C86.5533 85.2644 77.0896 106.46 61.4596 112.326C59.7095 115.987 82.2582 124.195 91.5698 112.326C104.881 95.3577 104.87 95.0968 104.279 80.5428C104.122 76.6764 103.924 71.8012 103.924 65.3361C103.924 34.0796 67.5877 7.21804 46.5862 1.7837C25.5847 -3.65065 16.1278 7.63786 10.4399 17.6483Z" fill="white"/>
</svg>
