<svg width="692" height="370" viewBox="0 0 692 370" fill="none" xmlns="http://www.w3.org/2000/svg">
<path fill-rule="evenodd" clip-rule="evenodd" d="M345.92 143.983C356.47 155.939 390.993 188.241 444.71 221.813C440.386 207.315 431.89 175.724 432.501 165.346C432.88 158.909 451.828 176.937 473.713 197.759C495.926 218.893 521.165 242.906 533.08 247.135C525.195 226.277 512.511 178.04 524.72 183.534C531.712 186.681 542.498 205.996 554.41 227.325C568.499 252.553 584.161 280.599 596.979 288.042C588.32 233.101 607.715 174.961 617.164 240.89C626.612 306.819 627.435 354.914 627.435 369.855C773.15 239.786 667.403 -96.594 345.92 27.5138C24.4368 -96.594 -81.31 239.786 64.4047 369.855C64.4047 354.914 65.2281 306.819 74.6765 240.89C84.125 174.961 103.52 233.101 94.861 288.042C107.679 280.599 123.341 252.553 137.43 227.325C149.342 205.996 160.129 186.681 167.12 183.534C179.33 178.04 166.645 226.277 158.76 247.135C170.676 242.906 195.914 218.893 218.128 197.759C240.012 176.937 258.961 158.909 259.339 165.346C259.95 175.724 251.454 207.315 247.13 221.813C300.847 188.241 335.37 155.939 345.92 143.983Z" fill="white"/>
</svg>
