<svg width="936" height="256" viewBox="0 0 936 256" fill="none" xmlns="http://www.w3.org/2000/svg">
<path fill-rule="evenodd" clip-rule="evenodd" d="M467.934 39.4039C439.318 4.21469 355.607 -38.8854 249.684 70.2275C143.761 179.34 78.9227 170.978 61.0983 152.952C29.6434 117.043 70.1552 37.4701 97.8002 95.103L97.8295 95.0444C101.374 87.9569 111.996 66.714 83.3243 51.6956C59.9912 46.4615 8.60514 62.7404 1.81139 122.61C-6.6808 197.448 13.8119 240.715 177.862 253.075C338.242 265.159 408.764 227.068 467.934 188.322V39.4039ZM467.935 39.4039C496.551 4.21469 580.262 -38.8854 686.185 70.2275C792.108 179.34 856.947 170.978 874.771 152.952C906.226 117.043 865.714 37.4701 838.069 95.103L838.04 95.0444C834.496 87.9569 823.874 66.714 852.545 51.6956C875.878 46.4615 927.264 62.7404 934.058 122.61C942.55 197.448 922.057 240.715 758.008 253.075C597.627 265.159 527.105 227.068 467.935 188.322V39.4039Z" fill="#8000FF"/>
</svg>
