<svg width="777" height="289" viewBox="0 0 777 289" fill="none" xmlns="http://www.w3.org/2000/svg">
<path fill-rule="evenodd" clip-rule="evenodd" d="M388.501 50.8036C365.736 21.1003 330.617 2.0591 291.215 2.0591C245.305 -8.80353 176.708 59.8482 126.015 126.126C120.732 130.885 115.57 134.209 111.311 134.209C104.739 134.209 90.1756 131.417 75.2986 128.564C69.9469 127.538 64.5546 126.504 59.4791 125.589C30.3807 112.094 6.04348 96.711 4.21905 76.2484C-10.3794 88.1543 21.0525 169.033 37.3149 195.549C45.7607 209.319 65.1331 231.204 83.8497 247.393C114.413 281.741 192.18 288.646 245.036 288.646C291.649 288.646 353.57 248.827 388.502 200.954C423.433 248.827 485.354 288.646 531.967 288.646C584.756 288.646 662.393 281.758 693.037 247.524C711.791 231.324 731.23 209.374 739.694 195.573C755.957 169.058 787.388 88.1789 772.79 76.2729C770.966 96.7288 746.644 112.108 717.559 125.601C712.476 126.516 707.075 127.552 701.714 128.58L701.71 128.58C686.833 131.433 672.27 134.226 665.698 134.226C661.445 134.226 656.29 130.91 651.015 126.161C600.319 59.8727 531.706 -8.80556 485.788 2.05901C446.386 2.05901 411.267 21.1002 388.501 50.8036Z" fill="#FC5812"/>
</svg>
