<svg width="343" height="520" viewBox="0 0 343 520" fill="none" xmlns="http://www.w3.org/2000/svg">
<ellipse cx="116.949" cy="397.608" rx="31.9118" ry="38.4" fill="black"/>
<path d="M70.3529 326.945C173.524 278.265 120.841 74.5732 83.9216 2.47852H171.331V515.14C165.75 519.546 148.963 520.003 114.133 467.556C74.95 408.557 66.4898 498.398 42.8493 498.398C5.73967 498.398 -37.165 377.676 70.3529 326.945Z" fill="#E299AD"/>
<path d="M114.133 467.556C74.95 408.557 66.4898 498.398 42.8493 498.398C5.73967 498.398 -37.165 377.676 70.3529 326.945C173.524 278.265 120.841 74.5732 83.9216 2.47852H171.331V515.14C165.75 519.546 148.963 520.003 114.133 467.556ZM114.133 467.556C110.621 456.331 105.661 443.499 99.6833 432.009M99.6833 432.009C82.6352 399.243 54.157 387.689 33.8719 429.179C29.4833 441.651 53.6507 467.604 99.6833 432.009Z" stroke="black" stroke-width="4.36008"/>
<path d="M272.306 326.945C169.135 278.265 221.818 74.5732 258.738 2.47852H171.328V515.14C176.909 519.546 193.696 520.003 228.526 467.556C267.709 408.557 276.169 498.398 299.81 498.398C336.92 498.398 379.824 377.676 272.306 326.945Z" fill="#E299AD"/>
<path d="M228.526 467.556C267.709 408.557 276.169 498.398 299.81 498.398C336.92 498.398 379.824 377.676 272.306 326.945C169.135 278.265 221.818 74.5732 258.738 2.47852H171.328V515.14C176.909 519.546 193.696 520.003 228.526 467.556ZM228.526 467.556C232.038 456.331 236.998 443.499 242.976 432.009M242.976 432.009C260.024 399.243 288.502 387.689 308.787 429.179C313.176 441.651 289.009 467.604 242.976 432.009Z" stroke="black" stroke-width="4.36008"/>
<rect x="163.337" y="5.08618" width="17.3217" height="508.509" fill="#E299AD"/>
<ellipse cx="171.996" cy="508.846" rx="13.02" ry="7.08379" fill="#E299AD"/>
<path d="M97.6238 432.371C79.998 445.134 34.2499 462.931 35.8855 430.844C37.4686 399.785 89.0712 391.026 97.6238 432.371Z" fill="black" stroke="black" stroke-width="1.27608"/>
<path d="M94.9711 475.096C86.3702 464.834 72.1073 436.332 89.1526 433.521C105.651 430.8 115.79 464.328 94.9711 475.096Z" fill="black" stroke="black" stroke-width="1.27608"/>
<path d="M247.173 473.358C255.774 463.097 270.037 434.594 252.992 431.783C236.493 429.062 226.354 462.59 247.173 473.358Z" fill="black" stroke="black" stroke-width="1.27608"/>
<path d="M245.998 433.022C263.624 445.786 309.372 463.583 307.737 431.495C306.153 400.436 254.551 391.678 245.998 433.022Z" fill="black" stroke="black" stroke-width="1.27608"/>
</svg>
