<svg width="391" height="612" viewBox="0 0 391 612" fill="none" xmlns="http://www.w3.org/2000/svg">
<path fill-rule="evenodd" clip-rule="evenodd" d="M115.361 87.2847C141.301 168.966 169.648 258.226 49.9177 415.242C5.23267 468.247 -51.3186 577.989 95.3508 561.835C95.682 561.339 96.0569 560.826 96.4452 560.294C100.973 554.092 107.327 545.391 67.4678 532.982C13.3709 516.141 127.239 457.805 156.846 601.936C162.238 605.873 176.725 612.484 195.623 611.415C214.522 612.484 229.009 605.873 234.4 601.936C264.008 457.805 377.876 516.141 323.779 532.982C283.919 545.391 290.273 554.092 294.801 560.294C295.189 560.826 295.564 561.339 295.896 561.835C442.565 577.989 386.014 468.247 341.329 415.242C221.598 258.226 249.945 168.966 275.885 87.2847C285.139 58.1463 294.086 29.9725 295.896 0.0314941H204.078H187.168H95.3508C97.1602 29.9725 106.107 58.1463 115.361 87.2847Z" fill="white"/>
</svg>
