<svg width="378" height="437" viewBox="0 0 378 437" fill="none" xmlns="http://www.w3.org/2000/svg">
<path fill-rule="evenodd" clip-rule="evenodd" d="M188.965 436.748C221.797 436.503 250.251 417.701 264.523 390.227C276.375 392.011 295.253 392.565 324.132 391.565C353.511 391.565 377.328 367.548 377.328 337.922C377.328 321.068 360.987 293.97 341.489 273.739H342.444C304.871 237.672 284.528 137.748 284.528 18.8598C270.208 11.2963 241.079 2.0515 202.793 0.936833V0.911605C200.355 0.849749 197.948 0.8218 195.573 0.82561C193.393 0.82176 191.187 0.844655 188.954 0.895954V1.0374C186.742 0.986778 184.556 0.964032 182.396 0.967548C180.011 0.96345 177.594 0.991372 175.146 1.05349V1.07865C136.857 2.19246 107.725 11.4379 93.4044 19.0018C93.4044 137.89 73.0612 237.814 35.4881 273.881H36.4868C16.9689 294.117 0.603516 321.243 0.603516 338.109C0.603516 367.735 24.4205 391.752 53.8003 391.752C82.6816 392.753 101.56 392.198 113.412 390.414C127.685 417.883 156.136 436.682 188.965 436.927V436.748Z" fill="#E299AD"/>
</svg>
