<svg width="306" height="636" viewBox="0 0 306 636" fill="none" xmlns="http://www.w3.org/2000/svg">
<path fill-rule="evenodd" clip-rule="evenodd" d="M30.021 440.28C61.9328 378.462 112.995 216.516 76.8037 29.8644C89.8127 16.6244 117.309 0.215029 153.337 0.5508C190.437 -0.486863 218.783 16.3174 232.054 29.8237C195.866 216.454 246.913 378.385 278.826 440.218C294.893 455.995 305.394 482.094 305.394 511.619C305.394 559.782 277.453 598.825 242.986 598.825C233.598 598.825 224.694 595.929 216.707 590.74C199.084 617.689 176.207 635.752 151.207 635.752C127.328 635.752 105.387 619.274 88.1108 594.314C80.29 599.244 71.6116 601.988 62.4746 601.988C28.0075 601.988 0.0664062 562.944 0.0664062 514.782C0.0664062 483.229 12.0584 455.591 30.021 440.28Z" fill="#E299AD"/>
</svg>
