<svg width="304" height="146" viewBox="0 0 304 146" fill="none" xmlns="http://www.w3.org/2000/svg">
<path fill-rule="evenodd" clip-rule="evenodd" d="M63.7194 33.2936C80.3691 18.8368 96.2159 5.07721 109.747 0.381443C131.022 -0.279672 139.186 10.407 144.527 17.3978C147.22 20.9232 149.196 23.5087 151.772 23.2251V23.2071C151.794 23.2107 151.816 23.2141 151.838 23.2172C151.879 23.2119 151.921 23.2058 151.963 23.1989V23.2332C154.54 23.5169 156.515 20.9314 159.208 17.406C164.549 10.4151 172.714 -0.271498 193.988 0.389617C207.519 5.08538 223.366 18.845 240.016 33.3018C260.84 51.3834 282.92 70.5555 303.298 74.4483C292.64 77.6515 280.625 86.0302 262.217 98.8669C246.12 110.092 225.134 124.726 195.893 142.29C183.224 149.899 155.326 139.992 151.863 136.606C148.365 140 120.501 149.885 107.843 142.282C78.6013 124.718 57.6156 110.084 41.5184 98.8587C23.1103 86.022 11.0951 77.6433 0.4375 74.4401C20.8147 70.5474 42.8951 51.3752 63.7194 33.2936Z" fill="#FC5812"/>
<path fill-rule="evenodd" clip-rule="evenodd" d="M34.8185 71.2443C66.2225 65.6783 111.655 57.6257 151.53 72.7116L151.853 72.7117H152.186C192.061 57.6258 237.494 65.6783 268.898 71.2444L268.903 71.2453C271.821 71.7624 274.617 72.258 277.277 72.7117H296.896C278.37 66.5144 258.73 49.4613 240.096 33.2813L240.096 33.2813C223.447 18.8245 207.6 5.06492 194.068 0.369165C172.794 -0.29195 164.63 10.3947 159.289 17.3855C156.533 20.9926 154.529 23.6157 151.864 23.1884V23.1866C151.862 23.1869 151.86 23.1872 151.858 23.1875C151.856 23.1872 151.854 23.1869 151.853 23.1866V23.1884C149.187 23.6157 147.183 20.9925 144.427 17.3854C139.087 10.3946 130.922 -0.292001 109.648 0.369114C96.1164 5.06487 80.2696 18.8245 63.62 33.2812L63.6199 33.2813C44.9857 49.4612 25.3457 66.5144 6.82031 72.7116H26.4392C29.1005 72.2578 31.8989 71.7618 34.8185 71.2443Z" fill="#E299AD"/>
</svg>
