<svg width="318" height="416" viewBox="0 0 318 416" fill="none" xmlns="http://www.w3.org/2000/svg">
<path fill-rule="evenodd" clip-rule="evenodd" d="M0.00476053 306.691C-1.10414 260.061 191.784 65.4379 296.764 5.27778C401.745 -54.8823 78.1315 419.198 50.1986 415.414L0.00476053 306.691ZM39.979 299.754C41.4935 295.101 43.2995 290.297 45.3895 285.356C47.3854 280.637 49.6356 275.804 52.1302 270.868C57.0839 274.489 62.7578 277.759 68.3781 279.613C74.678 281.691 81.2959 282.104 86.6749 278.683C92.0732 275.25 95.5859 268.363 96.6228 257.346C97.6554 246.375 96.2805 230.924 91.5227 209.673C94.3636 205.96 97.2971 202.224 100.32 198.468C104.163 193.692 108.15 188.885 112.274 184.054C113.848 194.927 115.563 210.228 116.235 225.211C116.618 233.751 116.66 242.155 116.15 249.56C115.638 257.002 114.578 263.278 112.837 267.651L116.635 269.163C118.613 264.195 119.707 257.414 120.228 249.84C120.752 242.229 120.706 233.659 120.319 225.027C119.564 208.199 117.51 191.004 115.795 179.963C131.673 161.657 149.483 143.049 168.878 124.561C173.674 131.197 182.685 139.768 194.328 144.072C206.133 148.435 220.55 148.363 235.696 137.677L233.339 134.337C219.366 144.196 206.373 144.166 195.745 140.238C184.996 136.265 176.573 128.254 172.145 122.102L169.341 124.12C209.994 85.4248 257.582 47.2705 308.929 13.5287L306.684 10.1126C221.98 65.7749 147.412 133.429 97.1354 195.905C72.0006 227.139 52.8841 257.143 41.6247 283.764C30.3939 310.316 26.8352 333.849 33.3738 351.911L37.2174 350.519C32.7802 338.263 33.3031 322.885 38.3408 305.127C42.9693 302.26 49.1463 300.93 53.8858 305.209C56.3712 307.453 58.7273 311.421 60.2809 318.114C61.8328 324.799 62.5492 334.061 61.871 346.695L65.9528 346.914C66.6432 334.054 65.9313 324.378 64.2627 317.189C62.5958 310.008 59.9393 305.167 56.625 302.175C51.3166 297.382 44.9858 297.794 39.979 299.754ZM88.2752 213.96C74.3707 232.504 62.8278 250.406 54.026 267.187C58.8754 270.795 64.3703 273.987 69.6585 275.731C75.4454 277.64 80.6021 277.701 84.4811 275.234C88.3407 272.779 91.5694 267.414 92.5531 256.963C93.4747 247.171 92.383 233.253 88.2752 213.96ZM294.916 52.377C213.636 206.817 109.291 333.658 67.2164 377.837L64.2563 375.018C106.112 331.069 210.22 204.53 291.298 50.4732L294.916 52.377ZM177.877 186.102C177.862 201.167 172.357 217.695 167.326 228.306L163.633 226.555C168.523 216.24 173.775 200.332 173.79 186.098C173.797 178.996 172.499 172.472 169.36 167.274C166.257 162.136 161.258 158.131 153.499 156.16L154.505 152.198C163.243 154.417 169.167 159.048 172.859 165.161C176.515 171.214 177.885 178.555 177.877 186.102Z" fill="#E299AD"/>
</svg>
