<svg width="154" height="338" viewBox="0 0 154 338" fill="none" xmlns="http://www.w3.org/2000/svg">
<path fill-rule="evenodd" clip-rule="evenodd" d="M108.352 48.8189C98.134 93.8382 86.9678 143.035 134.131 229.576C151.733 258.79 174.009 319.275 116.234 310.372C116.104 310.099 115.956 309.816 115.803 309.523C114.019 306.105 111.517 301.309 127.218 294.47C148.527 285.187 103.673 253.035 92.0106 332.474C89.8873 334.644 84.1824 338.286 76.7402 337.699C69.2977 338.286 63.5927 334.644 61.4693 332.474C49.8067 253.035 4.95314 285.187 26.2624 294.47C41.9634 301.309 39.4606 306.105 37.6769 309.523C37.5239 309.816 37.3762 310.099 37.2458 310.372C-20.5286 319.275 1.74742 258.79 19.3492 229.576C66.5121 143.035 55.346 93.8382 45.128 48.8189C41.4829 32.759 37.9585 17.2307 37.2458 0.728424L73.4056 0.728394H116.234C115.521 17.2307 111.997 32.759 108.352 48.8189Z" fill="white"/>
</svg>
